<?xml version="1.0" encoding="utf-8" standalone="no"?>
<!DOCTYPE svg PUBLIC "-//W3C//DTD SVG 1.1//EN"
  "http://www.w3.org/Graphics/SVG/1.1/DTD/svg11.dtd">
<svg xmlns:xlink="http://www.w3.org/1999/xlink" width="563.838437pt" height="347.916719pt" viewBox="0 0 563.838437 347.916719" xmlns="http://www.w3.org/2000/svg" version="1.1">
 <metadata>
  <rdf:RDF xmlns:dc="http://purl.org/dc/elements/1.1/" xmlns:cc="http://creativecommons.org/ns#" xmlns:rdf="http://www.w3.org/1999/02/22-rdf-syntax-ns#">
   <cc:Work>
    <dc:type rdf:resource="http://purl.org/dc/dcmitype/StillImage"/>
    <dc:date>2025-10-09T10:30:28.992997</dc:date>
    <dc:format>image/svg+xml</dc:format>
    <dc:creator>
     <cc:Agent>
      <dc:title>Matplotlib v3.10.7, https://matplotlib.org/</dc:title>
     </cc:Agent>
    </dc:creator>
   </cc:Work>
  </rdf:RDF>
 </metadata>
 <defs>
  <style type="text/css">*{stroke-linejoin: round; stroke-linecap: butt}</style>
 </defs>
 <g id="figure_1">
  <g id="patch_1">
   <path d="M 0 347.916719 
L 563.838437 347.916719 
L 563.838437 0 
L 0 0 
L 0 347.916719 
z
" style="fill: none"/>
  </g>
  <g id="axes_1">
   <g id="patch_2">
    <path d="M 36.603438 311.778125 
L 556.638438 311.778125 
L 556.638438 32.013125 
L 36.603438 32.013125 
L 36.603438 311.778125 
z
" style="fill: none"/>
   </g>
   <g id="line2d_1">
    <path d="M 215.110749 311.778125 
L 215.110749 32.013125 
" clip-path="url(#pd4ad7a0876)" style="fill: none; stroke-dasharray: 9.25,4; stroke-dashoffset: 0; stroke: #ff0000; stroke-opacity: 0.8; stroke-width: 2.5"/>
   </g>
   <g id="matplotlib.axis_1">
    <g id="xtick_1">
     <g id="line2d_2">
      <path d="M 92.845467 311.778125 
L 92.845467 32.013125 
" clip-path="url(#pd4ad7a0876)" style="fill: none; stroke: #ffffff; stroke-width: 0.8; stroke-linecap: round"/>
     </g>
     <g id="line2d_3"/>
     <g id="text_1">
      <!-- &lt;3% -->
      <g style="fill: #262626" transform="translate(82.84578 323.110469) scale(0.11 -0.11)">
       <defs>
        <path id="SourceSansPro-Regular-3c" d="M 2963 838 
L 2963 1293 
L 1613 1792 
L 755 2112 
L 755 2138 
L 1613 2458 
L 2963 2957 
L 2963 3411 
L 218 2336 
L 218 1914 
L 2963 838 
z
" transform="scale(0.015625)"/>
        <path id="SourceSansPro-Regular-33" d="M 1510 -77 
C 2259 -77 2854 365 2854 1088 
C 2854 1651 2464 2010 1971 2125 
L 1971 2150 
C 2413 2317 2714 2630 2714 3123 
C 2714 3782 2202 4160 1491 4160 
C 1011 4160 634 3942 320 3648 
L 602 3315 
C 845 3558 1133 3731 1472 3731 
C 1907 3731 2176 3482 2176 3085 
C 2176 2656 1888 2323 1018 2323 
L 1018 1920 
C 1990 1920 2323 1594 2323 1107 
C 2323 653 1971 358 1478 358 
C 998 358 678 589 435 845 
L 166 499 
C 442 198 858 -77 1510 -77 
z
" transform="scale(0.015625)"/>
        <path id="SourceSansPro-Regular-25" d="M 1178 1626 
C 1747 1626 2131 2106 2131 2957 
C 2131 3795 1747 4275 1178 4275 
C 602 4275 224 3795 224 2957 
C 224 2106 602 1626 1178 1626 
z
M 1178 1952 
C 845 1952 621 2291 621 2957 
C 621 3622 845 3949 1178 3949 
C 1504 3949 1728 3622 1728 2957 
C 1728 2291 1504 1952 1178 1952 
z
M 1299 -77 
L 1658 -77 
L 3974 4275 
L 3616 4275 
L 1299 -77 
z
M 4102 -77 
C 4672 -77 5056 403 5056 1254 
C 5056 2093 4672 2573 4102 2573 
C 3526 2573 3149 2093 3149 1254 
C 3149 403 3526 -77 4102 -77 
z
M 4102 250 
C 3770 250 3546 589 3546 1254 
C 3546 1920 3770 2246 4102 2246 
C 4429 2246 4653 1920 4653 1254 
C 4653 589 4429 250 4102 250 
z
" transform="scale(0.015625)"/>
       </defs>
       <use xlink:href="#SourceSansPro-Regular-3c"/>
       <use xlink:href="#SourceSansPro-Regular-33" transform="translate(49.699997 0)"/>
       <use xlink:href="#SourceSansPro-Regular-25" transform="translate(99.399994 0)"/>
      </g>
     </g>
    </g>
    <g id="xtick_2">
     <g id="line2d_4">
      <path d="M 174.355655 311.778125 
L 174.355655 32.013125 
" clip-path="url(#pd4ad7a0876)" style="fill: none; stroke: #ffffff; stroke-width: 0.8; stroke-linecap: round"/>
     </g>
     <g id="line2d_5"/>
     <g id="text_2">
      <!-- 3-6% -->
      <g style="fill: #262626" transform="translate(162.645812 323.110469) scale(0.11 -0.11)">
       <defs>
        <path id="SourceSansPro-Regular-2d" d="M 262 1402 
L 1734 1402 
L 1734 1805 
L 262 1805 
L 262 1402 
z
" transform="scale(0.015625)"/>
        <path id="SourceSansPro-Regular-36" d="M 1715 -77 
C 2374 -77 2925 454 2925 1235 
C 2925 2074 2464 2496 1760 2496 
C 1427 2496 1062 2298 806 1984 
C 832 3277 1312 3718 1882 3718 
C 2138 3718 2387 3597 2554 3398 
L 2848 3725 
C 2618 3974 2304 4160 1862 4160 
C 1050 4160 307 3526 307 1888 
C 307 576 915 -77 1715 -77 
z
M 1715 339 
C 1197 339 883 768 819 1562 
C 1075 1939 1408 2099 1670 2099 
C 2176 2099 2426 1766 2426 1235 
C 2426 698 2118 339 1715 339 
z
" transform="scale(0.015625)"/>
       </defs>
       <use xlink:href="#SourceSansPro-Regular-33"/>
       <use xlink:href="#SourceSansPro-Regular-2d" transform="translate(49.699997 0)"/>
       <use xlink:href="#SourceSansPro-Regular-36" transform="translate(80.799988 0)"/>
       <use xlink:href="#SourceSansPro-Regular-25" transform="translate(130.499985 0)"/>
      </g>
     </g>
    </g>
    <g id="xtick_3">
     <g id="line2d_6">
      <path d="M 255.865843 311.778125 
L 255.865843 32.013125 
" clip-path="url(#pd4ad7a0876)" style="fill: none; stroke: #ffffff; stroke-width: 0.8; stroke-linecap: round"/>
     </g>
     <g id="line2d_7"/>
     <g id="text_3">
      <!-- 6-9% -->
      <g style="fill: #262626" transform="translate(244.156 323.110469) scale(0.11 -0.11)">
       <defs>
        <path id="SourceSansPro-Regular-39" d="M 1504 1984 
C 998 1984 749 2317 749 2848 
C 749 3386 1062 3744 1459 3744 
C 1978 3744 2291 3322 2362 2528 
C 2099 2144 1773 1984 1504 1984 
z
M 1312 -77 
C 2125 -77 2867 557 2867 2195 
C 2867 3507 2266 4160 1459 4160 
C 806 4160 256 3629 256 2848 
C 256 2010 710 1587 1414 1587 
C 1754 1587 2118 1786 2374 2112 
C 2355 806 1869 358 1293 358 
C 1037 358 787 486 621 685 
L 326 352 
C 550 109 877 -77 1312 -77 
z
" transform="scale(0.015625)"/>
       </defs>
       <use xlink:href="#SourceSansPro-Regular-36"/>
       <use xlink:href="#SourceSansPro-Regular-2d" transform="translate(49.699997 0)"/>
       <use xlink:href="#SourceSansPro-Regular-39" transform="translate(80.799988 0)"/>
       <use xlink:href="#SourceSansPro-Regular-25" transform="translate(130.499985 0)"/>
      </g>
     </g>
    </g>
    <g id="xtick_4">
     <g id="line2d_8">
      <path d="M 337.376032 311.778125 
L 337.376032 32.013125 
" clip-path="url(#pd4ad7a0876)" style="fill: none; stroke: #ffffff; stroke-width: 0.8; stroke-linecap: round"/>
     </g>
     <g id="line2d_9"/>
     <g id="text_4">
      <!-- 9-12% -->
      <g style="fill: #262626" transform="translate(322.932516 323.110469) scale(0.11 -0.11)">
       <defs>
        <path id="SourceSansPro-Regular-31" d="M 506 0 
L 2810 0 
L 2810 435 
L 1965 435 
L 1965 4083 
L 1562 4083 
C 1338 3949 1069 3846 698 3782 
L 698 3443 
L 1440 3443 
L 1440 435 
L 506 435 
L 506 0 
z
" transform="scale(0.015625)"/>
        <path id="SourceSansPro-Regular-32" d="M 256 0 
L 2893 0 
L 2893 454 
L 1709 454 
C 1498 454 1248 435 1024 416 
C 1990 1427 2688 2189 2688 2957 
C 2688 3680 2221 4160 1466 4160 
C 934 4160 570 3910 230 3539 
L 531 3238 
C 768 3514 1062 3731 1402 3731 
C 1920 3731 2176 3398 2176 2931 
C 2176 2272 1485 1536 256 314 
L 256 0 
z
" transform="scale(0.015625)"/>
       </defs>
       <use xlink:href="#SourceSansPro-Regular-39"/>
       <use xlink:href="#SourceSansPro-Regular-2d" transform="translate(49.699997 0)"/>
       <use xlink:href="#SourceSansPro-Regular-31" transform="translate(80.799988 0)"/>
       <use xlink:href="#SourceSansPro-Regular-32" transform="translate(130.499985 0)"/>
       <use xlink:href="#SourceSansPro-Regular-25" transform="translate(180.199982 0)"/>
      </g>
     </g>
    </g>
    <g id="xtick_5">
     <g id="line2d_10">
      <path d="M 418.88622 311.778125 
L 418.88622 32.013125 
" clip-path="url(#pd4ad7a0876)" style="fill: none; stroke: #ffffff; stroke-width: 0.8; stroke-linecap: round"/>
     </g>
     <g id="line2d_11"/>
     <g id="text_5">
      <!-- 12-15% -->
      <g style="fill: #262626" transform="translate(401.709032 323.110469) scale(0.11 -0.11)">
       <defs>
        <path id="SourceSansPro-Regular-35" d="M 1498 -77 
C 2208 -77 2874 422 2874 1306 
C 2874 2189 2304 2586 1606 2586 
C 1357 2586 1171 2522 979 2419 
L 1088 3629 
L 2669 3629 
L 2669 4083 
L 627 4083 
L 493 2118 
L 774 1939 
C 1018 2099 1190 2189 1472 2189 
C 1997 2189 2342 1856 2342 1293 
C 2342 723 1946 358 1446 358 
C 966 358 659 582 416 826 
L 160 480 
C 442 198 845 -77 1498 -77 
z
" transform="scale(0.015625)"/>
       </defs>
       <use xlink:href="#SourceSansPro-Regular-31"/>
       <use xlink:href="#SourceSansPro-Regular-32" transform="translate(49.699997 0)"/>
       <use xlink:href="#SourceSansPro-Regular-2d" transform="translate(99.399994 0)"/>
       <use xlink:href="#SourceSansPro-Regular-31" transform="translate(130.499985 0)"/>
       <use xlink:href="#SourceSansPro-Regular-35" transform="translate(180.199982 0)"/>
       <use xlink:href="#SourceSansPro-Regular-25" transform="translate(229.899979 0)"/>
      </g>
     </g>
    </g>
    <g id="xtick_6">
     <g id="line2d_12">
      <path d="M 500.396408 311.778125 
L 500.396408 32.013125 
" clip-path="url(#pd4ad7a0876)" style="fill: none; stroke: #ffffff; stroke-width: 0.8; stroke-linecap: round"/>
     </g>
     <g id="line2d_13"/>
     <g id="text_6">
      <!-- 15+% -->
      <g style="fill: #262626" transform="translate(487.663048 323.110469) scale(0.11 -0.11)">
       <defs>
        <path id="SourceSansPro-Regular-2b" d="M 1382 666 
L 1798 666 
L 1798 1914 
L 2963 1914 
L 2963 2310 
L 1798 2310 
L 1798 3558 
L 1382 3558 
L 1382 2310 
L 218 2310 
L 218 1914 
L 1382 1914 
L 1382 666 
z
" transform="scale(0.015625)"/>
       </defs>
       <use xlink:href="#SourceSansPro-Regular-31"/>
       <use xlink:href="#SourceSansPro-Regular-35" transform="translate(49.699997 0)"/>
       <use xlink:href="#SourceSansPro-Regular-2b" transform="translate(99.399994 0)"/>
       <use xlink:href="#SourceSansPro-Regular-25" transform="translate(149.099991 0)"/>
      </g>
     </g>
    </g>
    <g id="text_7">
     <!-- Energy Cost Burden (% of Income) -->
     <g style="fill: #275258" transform="translate(206.6275 338.185469) scale(0.12 -0.12)">
      <defs>
       <path id="SourceSansPro-Bold-45" d="M 493 0 
L 3168 0 
L 3168 794 
L 1434 794 
L 1434 1754 
L 2854 1754 
L 2854 2541 
L 1434 2541 
L 1434 3379 
L 3104 3379 
L 3104 4173 
L 493 4173 
L 493 0 
z
" transform="scale(0.015625)"/>
       <path id="SourceSansPro-Bold-6e" d="M 416 0 
L 1357 0 
L 1357 2144 
C 1562 2342 1709 2451 1946 2451 
C 2214 2451 2336 2310 2336 1850 
L 2336 0 
L 3277 0 
L 3277 1971 
C 3277 2765 2982 3251 2291 3251 
C 1862 3251 1542 3027 1274 2771 
L 1248 2771 
L 1184 3174 
L 416 3174 
L 416 0 
z
" transform="scale(0.015625)"/>
       <path id="SourceSansPro-Bold-65" d="M 1837 -77 
C 2214 -77 2637 58 2963 282 
L 2650 851 
C 2419 710 2202 640 1965 640 
C 1542 640 1222 851 1139 1312 
L 3040 1312 
C 3059 1389 3078 1562 3078 1728 
C 3078 2592 2630 3251 1728 3251 
C 966 3251 230 2618 230 1587 
C 230 538 928 -77 1837 -77 
z
M 1133 1933 
C 1197 2336 1453 2534 1747 2534 
C 2125 2534 2278 2285 2278 1933 
L 1133 1933 
z
" transform="scale(0.015625)"/>
       <path id="SourceSansPro-Bold-72" d="M 416 0 
L 1357 0 
L 1357 1843 
C 1523 2272 1818 2426 2054 2426 
C 2189 2426 2285 2406 2400 2374 
L 2554 3187 
C 2464 3226 2355 3251 2176 3251 
C 1850 3251 1504 3046 1274 2618 
L 1248 2618 
L 1184 3174 
L 416 3174 
L 416 0 
z
" transform="scale(0.015625)"/>
       <path id="SourceSansPro-Bold-67" d="M 1549 -1350 
C 2637 -1350 3322 -870 3322 -211 
C 3322 358 2893 595 2112 595 
L 1600 595 
C 1248 595 1120 672 1120 832 
C 1120 941 1152 998 1235 1069 
C 1376 1024 1504 1005 1619 1005 
C 2317 1005 2867 1344 2867 2074 
C 2867 2240 2822 2394 2765 2490 
L 3270 2490 
L 3270 3174 
L 2112 3174 
C 1971 3226 1798 3251 1619 3251 
C 934 3251 307 2867 307 2106 
C 307 1734 512 1434 736 1280 
L 736 1254 
C 531 1114 378 890 378 659 
C 378 397 506 230 672 122 
L 672 96 
C 378 -70 218 -282 218 -544 
C 218 -1107 806 -1350 1549 -1350 
z
M 1619 1574 
C 1370 1574 1184 1754 1184 2106 
C 1184 2445 1370 2618 1619 2618 
C 1869 2618 2054 2438 2054 2106 
C 2054 1754 1869 1574 1619 1574 
z
M 1696 -762 
C 1274 -762 992 -634 992 -397 
C 992 -282 1050 -186 1165 -83 
C 1267 -109 1395 -122 1613 -122 
L 1939 -122 
C 2253 -122 2426 -173 2426 -371 
C 2426 -589 2118 -762 1696 -762 
z
" transform="scale(0.015625)"/>
       <path id="SourceSansPro-Bold-79" d="M 768 -1242 
C 1517 -1242 1856 -832 2157 -32 
L 3258 3174 
L 2355 3174 
L 1971 1811 
C 1894 1510 1824 1210 1754 909 
L 1728 909 
C 1645 1222 1568 1523 1478 1811 
L 1024 3174 
L 77 3174 
L 1299 83 
L 1254 -83 
C 1171 -333 1011 -499 698 -499 
C 627 -499 544 -474 486 -461 
L 320 -1178 
C 448 -1216 576 -1242 768 -1242 
z
" transform="scale(0.015625)"/>
       <path id="SourceSansPro-Bold-20" transform="scale(0.015625)"/>
       <path id="SourceSansPro-Bold-43" d="M 2234 -77 
C 2778 -77 3238 134 3584 538 
L 3085 1126 
C 2880 909 2611 736 2272 736 
C 1658 736 1261 1235 1261 2093 
C 1261 2931 1715 3437 2285 3437 
C 2586 3437 2810 3296 3021 3104 
L 3520 3706 
C 3238 3994 2803 4250 2266 4250 
C 1210 4250 294 3443 294 2061 
C 294 659 1178 -77 2234 -77 
z
" transform="scale(0.015625)"/>
       <path id="SourceSansPro-Bold-6f" d="M 1779 -77 
C 2579 -77 3322 531 3322 1587 
C 3322 2643 2579 3251 1779 3251 
C 973 3251 230 2643 230 1587 
C 230 531 973 -77 1779 -77 
z
M 1779 685 
C 1389 685 1197 1037 1197 1587 
C 1197 2138 1389 2490 1779 2490 
C 2163 2490 2362 2138 2362 1587 
C 2362 1037 2163 685 1779 685 
z
" transform="scale(0.015625)"/>
       <path id="SourceSansPro-Bold-73" d="M 1350 -77 
C 2202 -77 2656 371 2656 947 
C 2656 1530 2202 1754 1798 1901 
C 1472 2022 1178 2099 1178 2304 
C 1178 2464 1293 2554 1536 2554 
C 1760 2554 1978 2451 2208 2285 
L 2630 2848 
C 2355 3053 1997 3251 1510 3251 
C 774 3251 294 2848 294 2259 
C 294 1734 749 1472 1133 1325 
C 1459 1197 1779 1101 1779 890 
C 1779 723 1658 621 1376 621 
C 1107 621 845 736 557 954 
L 134 365 
C 454 102 934 -77 1350 -77 
z
" transform="scale(0.015625)"/>
       <path id="SourceSansPro-Bold-74" d="M 1638 -77 
C 1946 -77 2176 -13 2342 38 
L 2195 723 
C 2112 691 1997 659 1894 659 
C 1645 659 1485 806 1485 1165 
L 1485 2438 
L 2246 2438 
L 2246 3174 
L 1485 3174 
L 1485 4019 
L 704 4019 
L 595 3174 
L 109 3136 
L 109 2438 
L 544 2438 
L 544 1152 
C 544 416 851 -77 1638 -77 
z
" transform="scale(0.015625)"/>
       <path id="SourceSansPro-Bold-42" d="M 493 0 
L 2042 0 
C 2944 0 3661 378 3661 1229 
C 3661 1786 3334 2099 2912 2208 
L 2912 2234 
C 3251 2362 3456 2765 3456 3136 
C 3456 3936 2784 4173 1920 4173 
L 493 4173 
L 493 0 
z
M 1434 2502 
L 1434 3443 
L 1882 3443 
C 2323 3443 2534 3322 2534 2995 
C 2534 2694 2336 2502 1875 2502 
L 1434 2502 
z
M 1434 730 
L 1434 1805 
L 1965 1805 
C 2483 1805 2739 1658 2739 1293 
C 2739 909 2477 730 1965 730 
L 1434 730 
z
" transform="scale(0.015625)"/>
       <path id="SourceSansPro-Bold-75" d="M 1370 -77 
C 1805 -77 2099 122 2368 442 
L 2387 442 
L 2458 0 
L 3226 0 
L 3226 3174 
L 2285 3174 
L 2285 1075 
C 2099 826 1958 723 1722 723 
C 1446 723 1325 870 1325 1325 
L 1325 3174 
L 384 3174 
L 384 1203 
C 384 410 678 -77 1370 -77 
z
" transform="scale(0.015625)"/>
       <path id="SourceSansPro-Bold-64" d="M 1549 -77 
C 1856 -77 2170 90 2394 314 
L 2419 314 
L 2483 0 
L 3251 0 
L 3251 4486 
L 2310 4486 
L 2310 3405 
L 2349 2918 
C 2131 3123 1920 3251 1568 3251 
C 896 3251 250 2624 250 1587 
C 250 550 762 -77 1549 -77 
z
M 1792 691 
C 1427 691 1216 973 1216 1600 
C 1216 2202 1485 2483 1786 2483 
C 1958 2483 2144 2432 2310 2278 
L 2310 979 
C 2157 768 1997 691 1792 691 
z
" transform="scale(0.015625)"/>
       <path id="SourceSansPro-Bold-28" d="M 1306 -1146 
L 1894 -902 
C 1427 -70 1222 870 1222 1779 
C 1222 2688 1427 3629 1894 4461 
L 1306 4704 
C 768 3827 461 2906 461 1779 
C 461 653 768 -269 1306 -1146 
z
" transform="scale(0.015625)"/>
       <path id="SourceSansPro-Bold-25" d="M 1203 1600 
C 1805 1600 2246 2093 2246 2931 
C 2246 3763 1805 4250 1203 4250 
C 602 4250 166 3763 166 2931 
C 166 2093 602 1600 1203 1600 
z
M 1203 2125 
C 992 2125 819 2336 819 2931 
C 819 3526 992 3725 1203 3725 
C 1414 3725 1587 3526 1587 2931 
C 1587 2336 1414 2125 1203 2125 
z
M 1344 -77 
L 1888 -77 
L 4141 4250 
L 3597 4250 
L 1344 -77 
z
M 4282 -77 
C 4883 -77 5325 416 5325 1254 
C 5325 2086 4883 2573 4282 2573 
C 3680 2573 3245 2086 3245 1254 
C 3245 416 3680 -77 4282 -77 
z
M 4282 448 
C 4070 448 3898 659 3898 1254 
C 3898 1850 4070 2048 4282 2048 
C 4493 2048 4666 1850 4666 1254 
C 4666 659 4493 448 4282 448 
z
" transform="scale(0.015625)"/>
       <path id="SourceSansPro-Bold-66" d="M 576 0 
L 1517 0 
L 1517 2438 
L 2086 2438 
L 2086 3174 
L 1517 3174 
L 1517 3366 
C 1517 3693 1651 3821 1882 3821 
C 1984 3821 2099 3795 2208 3757 
L 2381 4448 
C 2240 4499 2010 4563 1747 4563 
C 890 4563 576 4013 576 3341 
L 576 3168 
L 154 3136 
L 154 2438 
L 576 2438 
L 576 0 
z
" transform="scale(0.015625)"/>
       <path id="SourceSansPro-Bold-49" d="M 493 0 
L 1434 0 
L 1434 4173 
L 493 4173 
L 493 0 
z
" transform="scale(0.015625)"/>
       <path id="SourceSansPro-Bold-63" d="M 1798 -77 
C 2144 -77 2534 26 2848 301 
L 2477 915 
C 2310 787 2112 685 1907 685 
C 1498 685 1197 1037 1197 1587 
C 1197 2138 1485 2490 1939 2490 
C 2086 2490 2214 2432 2368 2304 
L 2810 2912 
C 2573 3110 2272 3251 1882 3251 
C 1005 3251 230 2643 230 1587 
C 230 531 915 -77 1798 -77 
z
" transform="scale(0.015625)"/>
       <path id="SourceSansPro-Bold-6d" d="M 416 0 
L 1357 0 
L 1357 2144 
C 1555 2349 1741 2451 1894 2451 
C 2163 2451 2285 2310 2285 1850 
L 2285 0 
L 3226 0 
L 3226 2144 
C 3430 2349 3610 2451 3770 2451 
C 4038 2451 4160 2310 4160 1850 
L 4160 0 
L 5101 0 
L 5101 1971 
C 5101 2765 4794 3251 4109 3251 
C 3686 3251 3392 3008 3110 2720 
C 2950 3059 2682 3251 2234 3251 
C 1818 3251 1536 3027 1274 2765 
L 1248 2765 
L 1184 3174 
L 416 3174 
L 416 0 
z
" transform="scale(0.015625)"/>
       <path id="SourceSansPro-Bold-29" d="M 896 -1146 
C 1434 -269 1741 653 1741 1779 
C 1741 2906 1434 3827 896 4704 
L 307 4461 
C 781 3629 986 2688 986 1779 
C 986 870 781 -70 307 -902 
L 896 -1146 
z
" transform="scale(0.015625)"/>
      </defs>
      <use xlink:href="#SourceSansPro-Bold-45"/>
      <use xlink:href="#SourceSansPro-Bold-6e" transform="translate(54.799988 0)"/>
      <use xlink:href="#SourceSansPro-Bold-65" transform="translate(111.999985 0)"/>
      <use xlink:href="#SourceSansPro-Bold-72" transform="translate(163.799973 0)"/>
      <use xlink:href="#SourceSansPro-Bold-67" transform="translate(203.59996 0)"/>
      <use xlink:href="#SourceSansPro-Bold-79" transform="translate(256.999954 0)"/>
      <use xlink:href="#SourceSansPro-Bold-20" transform="translate(309.099945 0)"/>
      <use xlink:href="#SourceSansPro-Bold-43" transform="translate(329.09993 0)"/>
      <use xlink:href="#SourceSansPro-Bold-6f" transform="translate(387.299927 0)"/>
      <use xlink:href="#SourceSansPro-Bold-73" transform="translate(442.799911 0)"/>
      <use xlink:href="#SourceSansPro-Bold-74" transform="translate(487.099899 0)"/>
      <use xlink:href="#SourceSansPro-Bold-20" transform="translate(525.399887 0)"/>
      <use xlink:href="#SourceSansPro-Bold-42" transform="translate(545.399872 0)"/>
      <use xlink:href="#SourceSansPro-Bold-75" transform="translate(605.899857 0)"/>
      <use xlink:href="#SourceSansPro-Bold-72" transform="translate(662.699844 0)"/>
      <use xlink:href="#SourceSansPro-Bold-64" transform="translate(702.499832 0)"/>
      <use xlink:href="#SourceSansPro-Bold-65" transform="translate(759.79982 0)"/>
      <use xlink:href="#SourceSansPro-Bold-6e" transform="translate(811.599808 0)"/>
      <use xlink:href="#SourceSansPro-Bold-20" transform="translate(868.799805 0)"/>
      <use xlink:href="#SourceSansPro-Bold-28" transform="translate(888.799789 0)"/>
      <use xlink:href="#SourceSansPro-Bold-25" transform="translate(923.199783 0)"/>
      <use xlink:href="#SourceSansPro-Bold-20" transform="translate(1008.899765 0)"/>
      <use xlink:href="#SourceSansPro-Bold-6f" transform="translate(1028.89975 0)"/>
      <use xlink:href="#SourceSansPro-Bold-66" transform="translate(1084.399734 0)"/>
      <use xlink:href="#SourceSansPro-Bold-20" transform="translate(1118.499725 0)"/>
      <use xlink:href="#SourceSansPro-Bold-49" transform="translate(1138.49971 0)"/>
      <use xlink:href="#SourceSansPro-Bold-6e" transform="translate(1168.599701 0)"/>
      <use xlink:href="#SourceSansPro-Bold-63" transform="translate(1225.799698 0)"/>
      <use xlink:href="#SourceSansPro-Bold-6f" transform="translate(1272.499695 0)"/>
      <use xlink:href="#SourceSansPro-Bold-6d" transform="translate(1327.99968 0)"/>
      <use xlink:href="#SourceSansPro-Bold-65" transform="translate(1413.699661 0)"/>
      <use xlink:href="#SourceSansPro-Bold-29" transform="translate(1465.499649 0)"/>
     </g>
    </g>
   </g>
   <g id="matplotlib.axis_2">
    <g id="ytick_1">
     <g id="line2d_14">
      <path d="M 36.603438 311.778125 
L 556.638438 311.778125 
" clip-path="url(#pd4ad7a0876)" style="fill: none; stroke: #ffffff; stroke-opacity: 0.3; stroke-width: 0.8; stroke-linecap: round"/>
     </g>
     <g id="line2d_15"/>
     <g id="text_8">
      <!-- 0 -->
      <g style="fill: #262626" transform="translate(27.636094 315.694297) scale(0.11 -0.11)">
       <defs>
        <path id="SourceSansPro-Regular-30" d="M 1594 -77 
C 2406 -77 2899 685 2899 2054 
C 2899 3424 2406 4160 1594 4160 
C 774 4160 282 3424 282 2054 
C 282 685 774 -77 1594 -77 
z
M 1594 346 
C 1114 346 794 858 794 2054 
C 794 3251 1114 3738 1594 3738 
C 2067 3738 2387 3251 2387 2054 
C 2387 858 2067 346 1594 346 
z
" transform="scale(0.015625)"/>
       </defs>
       <use xlink:href="#SourceSansPro-Regular-30"/>
      </g>
     </g>
    </g>
    <g id="ytick_2">
     <g id="line2d_16">
      <path d="M 36.603438 265.855784 
L 556.638438 265.855784 
" clip-path="url(#pd4ad7a0876)" style="fill: none; stroke: #ffffff; stroke-opacity: 0.3; stroke-width: 0.8; stroke-linecap: round"/>
     </g>
     <g id="line2d_17"/>
     <g id="text_9">
      <!-- 10 -->
      <g style="fill: #262626" transform="translate(22.16875 269.771956) scale(0.11 -0.11)">
       <use xlink:href="#SourceSansPro-Regular-31"/>
       <use xlink:href="#SourceSansPro-Regular-30" transform="translate(49.699997 0)"/>
      </g>
     </g>
    </g>
    <g id="ytick_3">
     <g id="line2d_18">
      <path d="M 36.603438 219.933442 
L 556.638438 219.933442 
" clip-path="url(#pd4ad7a0876)" style="fill: none; stroke: #ffffff; stroke-opacity: 0.3; stroke-width: 0.8; stroke-linecap: round"/>
     </g>
     <g id="line2d_19"/>
     <g id="text_10">
      <!-- 20 -->
      <g style="fill: #262626" transform="translate(22.16875 223.849614) scale(0.11 -0.11)">
       <use xlink:href="#SourceSansPro-Regular-32"/>
       <use xlink:href="#SourceSansPro-Regular-30" transform="translate(49.699997 0)"/>
      </g>
     </g>
    </g>
    <g id="ytick_4">
     <g id="line2d_20">
      <path d="M 36.603438 174.011101 
L 556.638438 174.011101 
" clip-path="url(#pd4ad7a0876)" style="fill: none; stroke: #ffffff; stroke-opacity: 0.3; stroke-width: 0.8; stroke-linecap: round"/>
     </g>
     <g id="line2d_21"/>
     <g id="text_11">
      <!-- 30 -->
      <g style="fill: #262626" transform="translate(22.16875 177.927273) scale(0.11 -0.11)">
       <use xlink:href="#SourceSansPro-Regular-33"/>
       <use xlink:href="#SourceSansPro-Regular-30" transform="translate(49.699997 0)"/>
      </g>
     </g>
    </g>
    <g id="ytick_5">
     <g id="line2d_22">
      <path d="M 36.603438 128.08876 
L 556.638438 128.08876 
" clip-path="url(#pd4ad7a0876)" style="fill: none; stroke: #ffffff; stroke-opacity: 0.3; stroke-width: 0.8; stroke-linecap: round"/>
     </g>
     <g id="line2d_23"/>
     <g id="text_12">
      <!-- 40 -->
      <g style="fill: #262626" transform="translate(22.16875 132.004932) scale(0.11 -0.11)">
       <defs>
        <path id="SourceSansPro-Regular-34" d="M 1946 0 
L 2445 0 
L 2445 1126 
L 3002 1126 
L 3002 1549 
L 2445 1549 
L 2445 4083 
L 1856 4083 
L 109 1472 
L 109 1126 
L 1946 1126 
L 1946 0 
z
M 666 1549 
L 1619 2944 
C 1734 3142 1850 3322 1952 3520 
L 1978 3520 
C 1965 3302 1946 2950 1946 2733 
L 1946 1549 
L 666 1549 
z
" transform="scale(0.015625)"/>
       </defs>
       <use xlink:href="#SourceSansPro-Regular-34"/>
       <use xlink:href="#SourceSansPro-Regular-30" transform="translate(49.699997 0)"/>
      </g>
     </g>
    </g>
    <g id="ytick_6">
     <g id="line2d_24">
      <path d="M 36.603438 82.166418 
L 556.638438 82.166418 
" clip-path="url(#pd4ad7a0876)" style="fill: none; stroke: #ffffff; stroke-opacity: 0.3; stroke-width: 0.8; stroke-linecap: round"/>
     </g>
     <g id="line2d_25"/>
     <g id="text_13">
      <!-- 50 -->
      <g style="fill: #262626" transform="translate(22.16875 86.08259) scale(0.11 -0.11)">
       <use xlink:href="#SourceSansPro-Regular-35"/>
       <use xlink:href="#SourceSansPro-Regular-30" transform="translate(49.699997 0)"/>
      </g>
     </g>
    </g>
    <g id="ytick_7">
     <g id="line2d_26">
      <path d="M 36.603438 36.244077 
L 556.638438 36.244077 
" clip-path="url(#pd4ad7a0876)" style="fill: none; stroke: #ffffff; stroke-opacity: 0.3; stroke-width: 0.8; stroke-linecap: round"/>
     </g>
     <g id="line2d_27"/>
     <g id="text_14">
      <!-- 60 -->
      <g style="fill: #262626" transform="translate(22.16875 40.160249) scale(0.11 -0.11)">
       <use xlink:href="#SourceSansPro-Regular-36"/>
       <use xlink:href="#SourceSansPro-Regular-30" transform="translate(49.699997 0)"/>
      </g>
     </g>
    </g>
    <g id="text_15">
     <!-- Number of Households (Millions) -->
     <g style="fill: #275258" transform="translate(15.96 258.322812) rotate(-90) scale(0.12 -0.12)">
      <defs>
       <path id="SourceSansPro-Bold-4e" d="M 493 0 
L 1389 0 
L 1389 1478 
C 1389 1971 1312 2528 1274 2989 
L 1299 2989 
L 1709 2080 
L 2797 0 
L 3763 0 
L 3763 4173 
L 2867 4173 
L 2867 2701 
C 2867 2208 2944 1619 2982 1178 
L 2957 1178 
L 2547 2099 
L 1459 4173 
L 493 4173 
L 493 0 
z
" transform="scale(0.015625)"/>
       <path id="SourceSansPro-Bold-62" d="M 2080 -77 
C 2765 -77 3418 550 3418 1645 
C 3418 2618 2938 3251 2170 3251 
C 1875 3251 1574 3117 1331 2899 
L 1357 3386 
L 1357 4486 
L 416 4486 
L 416 0 
L 1152 0 
L 1229 339 
L 1254 339 
C 1504 64 1798 -77 2080 -77 
z
M 1862 691 
C 1702 691 1523 742 1357 896 
L 1357 2195 
C 1536 2394 1709 2483 1901 2483 
C 2278 2483 2451 2195 2451 1626 
C 2451 973 2189 691 1862 691 
z
" transform="scale(0.015625)"/>
       <path id="SourceSansPro-Bold-48" d="M 493 0 
L 1434 0 
L 1434 1741 
L 2874 1741 
L 2874 0 
L 3821 0 
L 3821 4173 
L 2874 4173 
L 2874 2566 
L 1434 2566 
L 1434 4173 
L 493 4173 
L 493 0 
z
" transform="scale(0.015625)"/>
       <path id="SourceSansPro-Bold-68" d="M 416 0 
L 1357 0 
L 1357 2144 
C 1562 2342 1709 2451 1946 2451 
C 2214 2451 2336 2310 2336 1850 
L 2336 0 
L 3277 0 
L 3277 1971 
C 3277 2765 2982 3251 2291 3251 
C 1862 3251 1549 3027 1312 2816 
L 1357 3386 
L 1357 4486 
L 416 4486 
L 416 0 
z
" transform="scale(0.015625)"/>
       <path id="SourceSansPro-Bold-6c" d="M 1280 -77 
C 1491 -77 1651 -45 1754 0 
L 1638 698 
C 1587 685 1562 685 1523 685 
C 1446 685 1357 749 1357 947 
L 1357 4486 
L 416 4486 
L 416 986 
C 416 346 634 -77 1280 -77 
z
" transform="scale(0.015625)"/>
       <path id="SourceSansPro-Bold-4d" d="M 493 0 
L 1338 0 
L 1338 1530 
C 1338 1939 1261 2547 1216 2950 
L 1242 2950 
L 1574 1958 
L 2170 365 
L 2688 365 
L 3283 1958 
L 3622 2950 
L 3648 2950 
C 3603 2547 3526 1939 3526 1530 
L 3526 0 
L 4384 0 
L 4384 4173 
L 3360 4173 
L 2701 2317 
C 2618 2074 2547 1805 2464 1549 
L 2438 1549 
C 2355 1805 2278 2074 2195 2317 
L 1523 4173 
L 493 4173 
L 493 0 
z
" transform="scale(0.015625)"/>
       <path id="SourceSansPro-Bold-69" d="M 416 0 
L 1357 0 
L 1357 3174 
L 416 3174 
L 416 0 
z
M 883 3642 
C 1203 3642 1427 3846 1427 4134 
C 1427 4422 1203 4621 883 4621 
C 570 4621 339 4422 339 4134 
C 339 3846 570 3642 883 3642 
z
" transform="scale(0.015625)"/>
      </defs>
      <use xlink:href="#SourceSansPro-Bold-4e"/>
      <use xlink:href="#SourceSansPro-Bold-75" transform="translate(66.499985 0)"/>
      <use xlink:href="#SourceSansPro-Bold-6d" transform="translate(123.299973 0)"/>
      <use xlink:href="#SourceSansPro-Bold-62" transform="translate(208.999954 0)"/>
      <use xlink:href="#SourceSansPro-Bold-65" transform="translate(266.299942 0)"/>
      <use xlink:href="#SourceSansPro-Bold-72" transform="translate(318.09993 0)"/>
      <use xlink:href="#SourceSansPro-Bold-20" transform="translate(357.899918 0)"/>
      <use xlink:href="#SourceSansPro-Bold-6f" transform="translate(377.899902 0)"/>
      <use xlink:href="#SourceSansPro-Bold-66" transform="translate(433.399887 0)"/>
      <use xlink:href="#SourceSansPro-Bold-20" transform="translate(467.499878 0)"/>
      <use xlink:href="#SourceSansPro-Bold-48" transform="translate(487.499863 0)"/>
      <use xlink:href="#SourceSansPro-Bold-6f" transform="translate(554.899857 0)"/>
      <use xlink:href="#SourceSansPro-Bold-75" transform="translate(610.399841 0)"/>
      <use xlink:href="#SourceSansPro-Bold-73" transform="translate(667.199829 0)"/>
      <use xlink:href="#SourceSansPro-Bold-65" transform="translate(711.499817 0)"/>
      <use xlink:href="#SourceSansPro-Bold-68" transform="translate(763.299805 0)"/>
      <use xlink:href="#SourceSansPro-Bold-6f" transform="translate(820.399796 0)"/>
      <use xlink:href="#SourceSansPro-Bold-6c" transform="translate(875.89978 0)"/>
      <use xlink:href="#SourceSansPro-Bold-64" transform="translate(904.499771 0)"/>
      <use xlink:href="#SourceSansPro-Bold-73" transform="translate(961.799759 0)"/>
      <use xlink:href="#SourceSansPro-Bold-20" transform="translate(1006.099747 0)"/>
      <use xlink:href="#SourceSansPro-Bold-28" transform="translate(1026.099731 0)"/>
      <use xlink:href="#SourceSansPro-Bold-4d" transform="translate(1060.499725 0)"/>
      <use xlink:href="#SourceSansPro-Bold-69" transform="translate(1136.699707 0)"/>
      <use xlink:href="#SourceSansPro-Bold-6c" transform="translate(1164.299698 0)"/>
      <use xlink:href="#SourceSansPro-Bold-6c" transform="translate(1192.899689 0)"/>
      <use xlink:href="#SourceSansPro-Bold-69" transform="translate(1221.49968 0)"/>
      <use xlink:href="#SourceSansPro-Bold-6f" transform="translate(1249.09967 0)"/>
      <use xlink:href="#SourceSansPro-Bold-6e" transform="translate(1304.599655 0)"/>
      <use xlink:href="#SourceSansPro-Bold-73" transform="translate(1361.799652 0)"/>
      <use xlink:href="#SourceSansPro-Bold-29" transform="translate(1406.09964 0)"/>
     </g>
    </g>
   </g>
   <g id="patch_3">
    <path d="M 60.241392 311.778125 
L 125.449543 311.778125 
L 125.449543 45.335268 
L 60.241392 45.335268 
z
" clip-path="url(#pd4ad7a0876)" style="fill: #275258; opacity: 0.85; stroke: #252728; stroke-width: 1.5; stroke-linejoin: miter"/>
   </g>
   <g id="patch_4">
    <path d="M 141.75158 311.778125 
L 206.959731 311.778125 
L 206.959731 148.914578 
L 141.75158 148.914578 
z
" clip-path="url(#pd4ad7a0876)" style="fill: #275258; opacity: 0.85; stroke: #252728; stroke-width: 1.5; stroke-linejoin: miter"/>
   </g>
   <g id="patch_5">
    <path d="M 223.261768 311.778125 
L 288.469919 311.778125 
L 288.469919 253.909959 
L 223.261768 253.909959 
z
" clip-path="url(#pd4ad7a0876)" style="fill: #fb923c; opacity: 0.85; stroke: #252728; stroke-width: 1.5; stroke-linejoin: miter"/>
   </g>
   <g id="patch_6">
    <path d="M 304.771956 311.778125 
L 369.980107 311.778125 
L 369.980107 284.311197 
L 304.771956 284.311197 
z
" clip-path="url(#pd4ad7a0876)" style="fill: #fb923c; opacity: 0.85; stroke: #252728; stroke-width: 1.5; stroke-linejoin: miter"/>
   </g>
   <g id="patch_7">
    <path d="M 386.282144 311.778125 
L 451.490295 311.778125 
L 451.490295 295.987811 
L 386.282144 295.987811 
z
" clip-path="url(#pd4ad7a0876)" style="fill: #fb923c; opacity: 0.85; stroke: #252728; stroke-width: 1.5; stroke-linejoin: miter"/>
   </g>
   <g id="patch_8">
    <path d="M 467.792332 311.778125 
L 533.000483 311.778125 
L 533.000483 273.02872 
L 467.792332 273.02872 
z
" clip-path="url(#pd4ad7a0876)" style="fill: #fb923c; opacity: 0.85; stroke: #252728; stroke-width: 1.5; stroke-linejoin: miter"/>
   </g>
   <g id="patch_9">
    <path d="M 36.603438 311.778125 
L 36.603438 32.013125 
" style="fill: none"/>
   </g>
   <g id="patch_10">
    <path d="M 556.638438 311.778125 
L 556.638438 32.013125 
" style="fill: none"/>
   </g>
   <g id="patch_11">
    <path d="M 36.603438 311.778125 
L 556.638438 311.778125 
" style="fill: none"/>
   </g>
   <g id="patch_12">
    <path d="M 36.603438 32.013125 
L 556.638438 32.013125 
" style="fill: none"/>
   </g>
   <g id="text_16">
    <!-- 58.0M -->
    <g style="fill: #275258" transform="translate(79.61578 38.902409) scale(0.1 -0.1)">
     <defs>
      <path id="SourceSansPro-Bold-35" d="M 1581 -77 
C 2374 -77 3072 442 3072 1344 
C 3072 2208 2477 2605 1779 2605 
C 1613 2605 1478 2579 1325 2509 
L 1395 3270 
L 2886 3270 
L 2886 4064 
L 582 4064 
L 467 2010 
L 890 1741 
C 1133 1894 1254 1946 1491 1946 
C 1869 1946 2131 1728 2131 1318 
C 2131 902 1862 685 1446 685 
C 1101 685 813 864 570 1088 
L 147 493 
C 467 173 915 -77 1581 -77 
z
" transform="scale(0.015625)"/>
      <path id="SourceSansPro-Bold-38" d="M 1683 -77 
C 2547 -77 3123 410 3123 1050 
C 3123 1587 2810 1901 2419 2112 
L 2419 2138 
C 2701 2323 2950 2637 2950 3027 
C 2950 3699 2458 4141 1715 4141 
C 960 4141 416 3712 416 3021 
C 416 2592 646 2298 960 2061 
L 960 2035 
C 576 1830 269 1530 269 1037 
C 269 378 870 -77 1683 -77 
z
M 1939 2368 
C 1523 2528 1242 2688 1242 3021 
C 1242 3334 1446 3488 1696 3488 
C 2003 3488 2189 3277 2189 2963 
C 2189 2752 2099 2554 1939 2368 
z
M 1702 576 
C 1363 576 1075 787 1075 1146 
C 1075 1395 1210 1626 1389 1792 
C 1901 1574 2246 1440 2246 1082 
C 2246 742 2016 576 1702 576 
z
" transform="scale(0.015625)"/>
      <path id="SourceSansPro-Bold-2e" d="M 960 -77 
C 1286 -77 1530 179 1530 512 
C 1530 851 1286 1107 960 1107 
C 634 1107 390 851 390 512 
C 390 179 634 -77 960 -77 
z
" transform="scale(0.015625)"/>
      <path id="SourceSansPro-Bold-30" d="M 1690 -77 
C 2560 -77 3142 666 3142 2048 
C 3142 3430 2560 4141 1690 4141 
C 819 4141 237 3430 237 2048 
C 237 666 819 -77 1690 -77 
z
M 1690 653 
C 1376 653 1126 941 1126 2048 
C 1126 3162 1376 3411 1690 3411 
C 2010 3411 2253 3162 2253 2048 
C 2253 941 2010 653 1690 653 
z
" transform="scale(0.015625)"/>
     </defs>
     <use xlink:href="#SourceSansPro-Bold-35"/>
     <use xlink:href="#SourceSansPro-Bold-38" transform="translate(52.799988 0)"/>
     <use xlink:href="#SourceSansPro-Bold-2e" transform="translate(105.599976 0)"/>
     <use xlink:href="#SourceSansPro-Bold-30" transform="translate(135.59996 0)"/>
     <use xlink:href="#SourceSansPro-Bold-4d" transform="translate(188.399948 0)"/>
    </g>
   </g>
   <g id="text_17">
    <!-- 35.5M -->
    <g style="fill: #275258" transform="translate(161.125968 142.481719) scale(0.1 -0.1)">
     <defs>
      <path id="SourceSansPro-Bold-33" d="M 1555 -77 
C 2374 -77 3066 352 3066 1107 
C 3066 1632 2726 1965 2259 2099 
L 2259 2125 
C 2694 2310 2938 2605 2938 3027 
C 2938 3738 2374 4141 1536 4141 
C 1037 4141 627 3942 256 3622 
L 730 3046 
C 986 3270 1203 3405 1491 3405 
C 1811 3405 1990 3238 1990 2957 
C 1990 2630 1760 2413 1030 2413 
L 1030 1747 
C 1914 1747 2125 1523 2125 1165 
C 2125 858 1862 685 1466 685 
C 1120 685 819 858 576 1094 
L 141 499 
C 435 154 896 -77 1555 -77 
z
" transform="scale(0.015625)"/>
     </defs>
     <use xlink:href="#SourceSansPro-Bold-33"/>
     <use xlink:href="#SourceSansPro-Bold-35" transform="translate(52.799988 0)"/>
     <use xlink:href="#SourceSansPro-Bold-2e" transform="translate(105.599976 0)"/>
     <use xlink:href="#SourceSansPro-Bold-35" transform="translate(135.59996 0)"/>
     <use xlink:href="#SourceSansPro-Bold-4d" transform="translate(188.399948 0)"/>
    </g>
   </g>
   <g id="text_18">
    <!-- 12.6M -->
    <g style="fill: #275258" transform="translate(242.636156 247.4771) scale(0.1 -0.1)">
     <defs>
      <path id="SourceSansPro-Bold-31" d="M 448 0 
L 3034 0 
L 3034 762 
L 2272 762 
L 2272 4064 
L 1581 4064 
C 1293 3891 1011 3776 570 3693 
L 570 3110 
L 1331 3110 
L 1331 762 
L 448 762 
L 448 0 
z
" transform="scale(0.015625)"/>
      <path id="SourceSansPro-Bold-32" d="M 237 0 
L 3098 0 
L 3098 794 
L 2278 794 
C 2086 794 1805 768 1600 742 
C 2259 1434 2899 2163 2899 2848 
C 2899 3629 2355 4141 1555 4141 
C 973 4141 595 3923 192 3494 
L 704 2989 
C 909 3206 1133 3405 1427 3405 
C 1779 3405 2003 3187 2003 2790 
C 2003 2214 1274 1517 237 538 
L 237 0 
z
" transform="scale(0.015625)"/>
      <path id="SourceSansPro-Bold-36" d="M 1798 -77 
C 2534 -77 3149 442 3149 1286 
C 3149 2144 2637 2541 1939 2541 
C 1690 2541 1338 2381 1126 2112 
C 1158 3059 1517 3379 1965 3379 
C 2202 3379 2458 3245 2598 3091 
L 3091 3654 
C 2835 3917 2445 4141 1907 4141 
C 1050 4141 262 3456 262 1939 
C 262 512 1011 -77 1798 -77 
z
M 1779 627 
C 1498 627 1229 832 1146 1472 
C 1312 1760 1549 1875 1760 1875 
C 2067 1875 2291 1715 2291 1286 
C 2291 826 2061 627 1779 627 
z
" transform="scale(0.015625)"/>
     </defs>
     <use xlink:href="#SourceSansPro-Bold-31"/>
     <use xlink:href="#SourceSansPro-Bold-32" transform="translate(52.799988 0)"/>
     <use xlink:href="#SourceSansPro-Bold-2e" transform="translate(105.599976 0)"/>
     <use xlink:href="#SourceSansPro-Bold-36" transform="translate(135.59996 0)"/>
     <use xlink:href="#SourceSansPro-Bold-4d" transform="translate(188.399948 0)"/>
    </g>
   </g>
   <g id="text_19">
    <!-- 6.0M -->
    <g style="fill: #275258" transform="translate(326.786188 277.878337) scale(0.1 -0.1)">
     <use xlink:href="#SourceSansPro-Bold-36"/>
     <use xlink:href="#SourceSansPro-Bold-2e" transform="translate(52.799988 0)"/>
     <use xlink:href="#SourceSansPro-Bold-30" transform="translate(82.799973 0)"/>
     <use xlink:href="#SourceSansPro-Bold-4d" transform="translate(135.59996 0)"/>
    </g>
   </g>
   <g id="text_20">
    <!-- 3.4M -->
    <g style="fill: #275258" transform="translate(408.296376 289.554951) scale(0.1 -0.1)">
     <defs>
      <path id="SourceSansPro-Bold-34" d="M 1882 0 
L 2758 0 
L 2758 973 
L 3226 973 
L 3226 1690 
L 2758 1690 
L 2758 4064 
L 1606 4064 
L 122 1619 
L 122 973 
L 1882 973 
L 1882 0 
z
M 1024 1690 
L 1562 2573 
C 1677 2803 1792 3034 1894 3258 
L 1920 3258 
C 1907 3002 1882 2611 1882 2349 
L 1882 1690 
L 1024 1690 
z
" transform="scale(0.015625)"/>
     </defs>
     <use xlink:href="#SourceSansPro-Bold-33"/>
     <use xlink:href="#SourceSansPro-Bold-2e" transform="translate(52.799988 0)"/>
     <use xlink:href="#SourceSansPro-Bold-34" transform="translate(82.799973 0)"/>
     <use xlink:href="#SourceSansPro-Bold-4d" transform="translate(135.59996 0)"/>
    </g>
   </g>
   <g id="text_21">
    <!-- 8.4M -->
    <g style="fill: #275258" transform="translate(489.806564 266.595861) scale(0.1 -0.1)">
     <use xlink:href="#SourceSansPro-Bold-38"/>
     <use xlink:href="#SourceSansPro-Bold-2e" transform="translate(52.799988 0)"/>
     <use xlink:href="#SourceSansPro-Bold-34" transform="translate(82.799973 0)"/>
     <use xlink:href="#SourceSansPro-Bold-4d" transform="translate(135.59996 0)"/>
    </g>
   </g>
   <g id="text_22">
    <!-- Households by Energy Burden Level -->
    <g style="fill: #275258" transform="translate(186.249531 17.013125) scale(0.14 -0.14)">
     <defs>
      <path id="SourceSansPro-Bold-4c" d="M 493 0 
L 3085 0 
L 3085 794 
L 1434 794 
L 1434 4173 
L 493 4173 
L 493 0 
z
" transform="scale(0.015625)"/>
      <path id="SourceSansPro-Bold-76" d="M 1146 0 
L 2234 0 
L 3270 3174 
L 2368 3174 
L 1952 1677 
C 1869 1363 1786 1030 1709 698 
L 1683 698 
C 1600 1030 1517 1363 1434 1677 
L 1024 3174 
L 77 3174 
L 1146 0 
z
" transform="scale(0.015625)"/>
     </defs>
     <use xlink:href="#SourceSansPro-Bold-48"/>
     <use xlink:href="#SourceSansPro-Bold-6f" transform="translate(67.399994 0)"/>
     <use xlink:href="#SourceSansPro-Bold-75" transform="translate(122.899979 0)"/>
     <use xlink:href="#SourceSansPro-Bold-73" transform="translate(179.699966 0)"/>
     <use xlink:href="#SourceSansPro-Bold-65" transform="translate(223.999954 0)"/>
     <use xlink:href="#SourceSansPro-Bold-68" transform="translate(275.799942 0)"/>
     <use xlink:href="#SourceSansPro-Bold-6f" transform="translate(332.899933 0)"/>
     <use xlink:href="#SourceSansPro-Bold-6c" transform="translate(388.399918 0)"/>
     <use xlink:href="#SourceSansPro-Bold-64" transform="translate(416.999908 0)"/>
     <use xlink:href="#SourceSansPro-Bold-73" transform="translate(474.299896 0)"/>
     <use xlink:href="#SourceSansPro-Bold-20" transform="translate(518.599884 0)"/>
     <use xlink:href="#SourceSansPro-Bold-62" transform="translate(538.599869 0)"/>
     <use xlink:href="#SourceSansPro-Bold-79" transform="translate(595.899857 0)"/>
     <use xlink:href="#SourceSansPro-Bold-20" transform="translate(647.999847 0)"/>
     <use xlink:href="#SourceSansPro-Bold-45" transform="translate(667.999832 0)"/>
     <use xlink:href="#SourceSansPro-Bold-6e" transform="translate(722.79982 0)"/>
     <use xlink:href="#SourceSansPro-Bold-65" transform="translate(779.999817 0)"/>
     <use xlink:href="#SourceSansPro-Bold-72" transform="translate(831.799805 0)"/>
     <use xlink:href="#SourceSansPro-Bold-67" transform="translate(871.599792 0)"/>
     <use xlink:href="#SourceSansPro-Bold-79" transform="translate(924.999786 0)"/>
     <use xlink:href="#SourceSansPro-Bold-20" transform="translate(977.099777 0)"/>
     <use xlink:href="#SourceSansPro-Bold-42" transform="translate(997.099762 0)"/>
     <use xlink:href="#SourceSansPro-Bold-75" transform="translate(1057.599747 0)"/>
     <use xlink:href="#SourceSansPro-Bold-72" transform="translate(1114.399734 0)"/>
     <use xlink:href="#SourceSansPro-Bold-64" transform="translate(1154.199722 0)"/>
     <use xlink:href="#SourceSansPro-Bold-65" transform="translate(1211.49971 0)"/>
     <use xlink:href="#SourceSansPro-Bold-6e" transform="translate(1263.299698 0)"/>
     <use xlink:href="#SourceSansPro-Bold-20" transform="translate(1320.499695 0)"/>
     <use xlink:href="#SourceSansPro-Bold-4c" transform="translate(1340.49968 0)"/>
     <use xlink:href="#SourceSansPro-Bold-65" transform="translate(1392.299667 0)"/>
     <use xlink:href="#SourceSansPro-Bold-76" transform="translate(1444.099655 0)"/>
     <use xlink:href="#SourceSansPro-Bold-65" transform="translate(1496.399643 0)"/>
     <use xlink:href="#SourceSansPro-Bold-6c" transform="translate(1548.199631 0)"/>
    </g>
   </g>
   <g id="legend_1">
    <g id="patch_13">
     <path d="M 442.014375 70.231312 
L 550.938437 70.231312 
Q 553.138437 70.231312 553.138437 68.031312 
L 553.138437 41.713125 
Q 553.138437 39.513125 550.938437 39.513125 
L 442.014375 39.513125 
Q 439.814375 39.513125 439.814375 41.713125 
L 439.814375 68.031312 
Q 439.814375 70.231312 442.014375 70.231312 
z
" style="fill: #464649; opacity: 0.5; stroke: #464649; stroke-linejoin: miter"/>
    </g>
    <g id="patch_14">
     <path d="M 440.014375 68.231312 
L 548.938437 68.231312 
Q 551.138437 68.231312 551.138437 66.031312 
L 551.138437 39.713125 
Q 551.138437 37.513125 548.938437 37.513125 
L 440.014375 37.513125 
Q 437.814375 37.513125 437.814375 39.713125 
L 437.814375 66.031312 
Q 437.814375 68.231312 440.014375 68.231312 
z
" style="fill: #eaeaf2; stroke: #cccccc; stroke-linejoin: miter"/>
    </g>
    <g id="line2d_28">
     <path d="M 442.214375 52.938391 
L 453.214375 52.938391 
L 464.214375 52.938391 
" style="fill: none; stroke-dasharray: 9.25,4; stroke-dashoffset: 0; stroke: #ff0000; stroke-opacity: 0.8; stroke-width: 2.5"/>
    </g>
    <g id="text_23">
     <!-- 6% Affordability -->
     <g style="fill: #262626" transform="translate(473.014375 49.877812) scale(0.11 -0.11)">
      <defs>
       <path id="SourceSansPro-Regular-20" transform="scale(0.015625)"/>
       <path id="SourceSansPro-Regular-41" d="M 1299 2349 
C 1453 2816 1587 3277 1715 3763 
L 1741 3763 
C 1875 3277 2010 2816 2163 2349 
L 2362 1709 
L 1101 1709 
L 1299 2349 
z
M 19 0 
L 563 0 
L 966 1280 
L 2496 1280 
L 2893 0 
L 3462 0 
L 2042 4198 
L 1440 4198 
L 19 0 
z
" transform="scale(0.015625)"/>
       <path id="SourceSansPro-Regular-66" d="M 614 0 
L 1139 0 
L 1139 2682 
L 1798 2682 
L 1798 3110 
L 1139 3110 
L 1139 3603 
C 1139 4000 1280 4205 1574 4205 
C 1690 4205 1811 4179 1926 4128 
L 2042 4531 
C 1901 4589 1715 4634 1523 4634 
C 902 4634 614 4237 614 3603 
L 614 3110 
L 192 3078 
L 192 2682 
L 614 2682 
L 614 0 
z
" transform="scale(0.015625)"/>
       <path id="SourceSansPro-Regular-6f" d="M 1734 -77 
C 2496 -77 3174 518 3174 1549 
C 3174 2592 2496 3187 1734 3187 
C 973 3187 294 2592 294 1549 
C 294 518 973 -77 1734 -77 
z
M 1734 358 
C 1203 358 838 838 838 1549 
C 838 2266 1203 2752 1734 2752 
C 2272 2752 2630 2266 2630 1549 
C 2630 838 2272 358 1734 358 
z
" transform="scale(0.015625)"/>
       <path id="SourceSansPro-Regular-72" d="M 525 0 
L 1050 0 
L 1050 1997 
C 1261 2522 1574 2714 1837 2714 
C 1965 2714 2035 2694 2138 2662 
L 2240 3123 
C 2138 3168 2042 3187 1907 3187 
C 1555 3187 1235 2938 1024 2547 
L 1005 2547 
L 960 3110 
L 525 3110 
L 525 0 
z
" transform="scale(0.015625)"/>
       <path id="SourceSansPro-Regular-64" d="M 1587 -77 
C 1952 -77 2285 128 2528 365 
L 2547 365 
L 2592 0 
L 3027 0 
L 3027 4557 
L 2496 4557 
L 2496 3360 
L 2522 2829 
C 2246 3053 2010 3187 1651 3187 
C 941 3187 301 2560 301 1549 
C 301 512 806 -77 1587 -77 
z
M 1702 365 
C 1158 365 845 813 845 1555 
C 845 2266 1242 2746 1741 2746 
C 1997 2746 2234 2656 2496 2419 
L 2496 794 
C 2240 506 1990 365 1702 365 
z
" transform="scale(0.015625)"/>
       <path id="SourceSansPro-Regular-61" d="M 1242 -77 
C 1632 -77 1978 128 2272 371 
L 2291 371 
L 2336 0 
L 2771 0 
L 2771 1907 
C 2771 2682 2451 3187 1690 3187 
C 1190 3187 755 2970 467 2784 
L 672 2419 
C 915 2586 1242 2752 1600 2752 
C 2112 2752 2240 2368 2240 1971 
C 915 1824 333 1485 333 806 
C 333 250 723 -77 1242 -77 
z
M 1395 346 
C 1088 346 845 493 845 845 
C 845 1242 1203 1498 2240 1626 
L 2240 762 
C 1939 493 1696 346 1395 346 
z
" transform="scale(0.015625)"/>
       <path id="SourceSansPro-Regular-62" d="M 1901 -77 
C 2611 -77 3245 544 3245 1606 
C 3245 2566 2816 3187 2010 3187 
C 1664 3187 1318 3002 1037 2752 
L 1050 3315 
L 1050 4557 
L 525 4557 
L 525 0 
L 947 0 
L 992 320 
L 1011 320 
C 1286 70 1613 -77 1901 -77 
z
M 1811 365 
C 1606 365 1325 454 1050 691 
L 1050 2323 
C 1344 2598 1619 2746 1882 2746 
C 2470 2746 2701 2285 2701 1600 
C 2701 832 2323 365 1811 365 
z
" transform="scale(0.015625)"/>
       <path id="SourceSansPro-Regular-69" d="M 525 0 
L 1050 0 
L 1050 3110 
L 525 3110 
L 525 0 
z
M 794 3750 
C 998 3750 1158 3891 1158 4090 
C 1158 4294 998 4429 794 4429 
C 589 4429 429 4294 429 4090 
C 429 3891 589 3750 794 3750 
z
" transform="scale(0.015625)"/>
       <path id="SourceSansPro-Regular-6c" d="M 1082 -77 
C 1222 -77 1312 -58 1382 -26 
L 1312 371 
C 1254 358 1229 358 1197 358 
C 1120 358 1050 422 1050 589 
L 1050 4557 
L 525 4557 
L 525 627 
C 525 173 685 -77 1082 -77 
z
" transform="scale(0.015625)"/>
       <path id="SourceSansPro-Regular-74" d="M 1504 -77 
C 1696 -77 1907 -19 2080 38 
L 1978 435 
C 1875 397 1734 352 1626 352 
C 1267 352 1146 570 1146 954 
L 1146 2682 
L 1984 2682 
L 1984 3110 
L 1146 3110 
L 1146 3981 
L 704 3981 
L 640 3110 
L 154 3078 
L 154 2682 
L 614 2682 
L 614 960 
C 614 346 838 -77 1504 -77 
z
" transform="scale(0.015625)"/>
       <path id="SourceSansPro-Regular-79" d="M 576 -1338 
C 1203 -1338 1523 -870 1741 -256 
L 2912 3110 
L 2400 3110 
L 1843 1389 
C 1760 1114 1670 794 1581 512 
L 1555 512 
C 1459 800 1350 1120 1254 1389 
L 621 3110 
L 77 3110 
L 1325 -6 
L 1254 -237 
C 1126 -621 902 -902 550 -902 
C 474 -902 378 -877 314 -858 
L 211 -1274 
C 314 -1312 435 -1338 576 -1338 
z
" transform="scale(0.015625)"/>
      </defs>
      <use xlink:href="#SourceSansPro-Regular-36"/>
      <use xlink:href="#SourceSansPro-Regular-25" transform="translate(49.699997 0)"/>
      <use xlink:href="#SourceSansPro-Regular-20" transform="translate(132.099991 0)"/>
      <use xlink:href="#SourceSansPro-Regular-41" transform="translate(152.099976 0)"/>
      <use xlink:href="#SourceSansPro-Regular-66" transform="translate(206.499969 0)"/>
      <use xlink:href="#SourceSansPro-Regular-66" transform="translate(235.699966 0)"/>
      <use xlink:href="#SourceSansPro-Regular-6f" transform="translate(264.899963 0)"/>
      <use xlink:href="#SourceSansPro-Regular-72" transform="translate(319.09996 0)"/>
      <use xlink:href="#SourceSansPro-Regular-64" transform="translate(353.799957 0)"/>
      <use xlink:href="#SourceSansPro-Regular-61" transform="translate(409.299942 0)"/>
      <use xlink:href="#SourceSansPro-Regular-62" transform="translate(459.699936 0)"/>
      <use xlink:href="#SourceSansPro-Regular-69" transform="translate(514.999924 0)"/>
      <use xlink:href="#SourceSansPro-Regular-6c" transform="translate(539.599915 0)"/>
      <use xlink:href="#SourceSansPro-Regular-69" transform="translate(565.099899 0)"/>
      <use xlink:href="#SourceSansPro-Regular-74" transform="translate(589.69989 0)"/>
      <use xlink:href="#SourceSansPro-Regular-79" transform="translate(623.499878 0)"/>
     </g>
     <!-- Threshold -->
     <g style="fill: #262626" transform="translate(473.014375 61.576312) scale(0.11 -0.11)">
      <defs>
       <path id="SourceSansPro-Regular-54" d="M 1446 0 
L 1984 0 
L 1984 3750 
L 3251 3750 
L 3251 4198 
L 179 4198 
L 179 3750 
L 1446 3750 
L 1446 0 
z
" transform="scale(0.015625)"/>
       <path id="SourceSansPro-Regular-68" d="M 525 0 
L 1050 0 
L 1050 2253 
C 1363 2566 1581 2733 1901 2733 
C 2310 2733 2490 2483 2490 1901 
L 2490 0 
L 3014 0 
L 3014 1971 
C 3014 2765 2720 3187 2067 3187 
C 1638 3187 1325 2957 1030 2675 
L 1050 3315 
L 1050 4557 
L 525 4557 
L 525 0 
z
" transform="scale(0.015625)"/>
       <path id="SourceSansPro-Regular-65" d="M 1786 -77 
C 2208 -77 2541 70 2810 243 
L 2624 589 
C 2394 442 2144 346 1850 346 
C 1254 346 851 768 813 1427 
L 2912 1427 
C 2925 1504 2931 1619 2931 1728 
C 2931 2618 2483 3187 1690 3187 
C 979 3187 294 2566 294 1549 
C 294 531 954 -77 1786 -77 
z
M 806 1805 
C 870 2419 1267 2771 1702 2771 
C 2189 2771 2470 2432 2470 1805 
L 806 1805 
z
" transform="scale(0.015625)"/>
       <path id="SourceSansPro-Regular-73" d="M 1338 -77 
C 2074 -77 2477 346 2477 851 
C 2477 1440 1978 1626 1530 1792 
C 1178 1926 838 2035 838 2330 
C 838 2566 1018 2778 1408 2778 
C 1683 2778 1907 2662 2118 2502 
L 2368 2835 
C 2131 3027 1792 3187 1402 3187 
C 730 3187 333 2803 333 2304 
C 333 1779 819 1568 1261 1408 
C 1600 1280 1971 1139 1971 819 
C 1971 550 1766 333 1357 333 
C 986 333 710 486 442 704 
L 179 352 
C 474 109 896 -77 1338 -77 
z
" transform="scale(0.015625)"/>
      </defs>
      <use xlink:href="#SourceSansPro-Regular-54"/>
      <use xlink:href="#SourceSansPro-Regular-68" transform="translate(53.599991 0)"/>
      <use xlink:href="#SourceSansPro-Regular-72" transform="translate(107.999985 0)"/>
      <use xlink:href="#SourceSansPro-Regular-65" transform="translate(142.699982 0)"/>
      <use xlink:href="#SourceSansPro-Regular-73" transform="translate(192.299973 0)"/>
      <use xlink:href="#SourceSansPro-Regular-68" transform="translate(234.199966 0)"/>
      <use xlink:href="#SourceSansPro-Regular-6f" transform="translate(288.59996 0)"/>
      <use xlink:href="#SourceSansPro-Regular-6c" transform="translate(342.799957 0)"/>
      <use xlink:href="#SourceSansPro-Regular-64" transform="translate(368.299942 0)"/>
     </g>
    </g>
   </g>
  </g>
 </g>
 <defs>
  <clipPath id="pd4ad7a0876">
   <rect x="36.603438" y="32.013125" width="520.035" height="279.765"/>
  </clipPath>
 </defs>
</svg>
