<?xml version="1.0" encoding="utf-8" standalone="no"?>
<!DOCTYPE svg PUBLIC "-//W3C//DTD SVG 1.1//EN"
  "http://www.w3.org/Graphics/SVG/1.1/DTD/svg11.dtd">
<svg xmlns:xlink="http://www.w3.org/1999/xlink" width="421.623684pt" height="387.431407pt" viewBox="0 0 421.623684 387.431407" xmlns="http://www.w3.org/2000/svg" version="1.1">
 <metadata>
  <rdf:RDF xmlns:dc="http://purl.org/dc/elements/1.1/" xmlns:cc="http://creativecommons.org/ns#" xmlns:rdf="http://www.w3.org/1999/02/22-rdf-syntax-ns#">
   <cc:Work>
    <dc:type rdf:resource="http://purl.org/dc/dcmitype/StillImage"/>
    <dc:date>2025-10-09T10:30:26.942392</dc:date>
    <dc:format>image/svg+xml</dc:format>
    <dc:creator>
     <cc:Agent>
      <dc:title>Matplotlib v3.10.7, https://matplotlib.org/</dc:title>
     </cc:Agent>
    </dc:creator>
   </cc:Work>
  </rdf:RDF>
 </metadata>
 <defs>
  <style type="text/css">*{stroke-linejoin: round; stroke-linecap: butt}</style>
 </defs>
 <g id="figure_1">
  <g id="patch_1">
   <path d="M 0 387.431407 
L 421.623684 387.431407 
L 421.623684 -0 
L 0 -0 
L 0 387.431407 
z
" style="fill: none"/>
  </g>
  <g id="axes_1">
   <g id="matplotlib.axis_1"/>
   <g id="matplotlib.axis_2"/>
   <g id="patch_2">
    <path d="M 215.68447 62.291188 
C 207.171012 62.291188 198.676497 63.094156 190.313836 64.689418 
C 181.951174 66.284681 173.757582 68.66514 165.841969 71.799152 
L 215.68447 197.68695 
z
" style="fill: #fb923c"/>
   </g>
   <g id="patch_3">
    <path d="M 162.253546 82.216472 
C 130.24478 94.889641 104.244319 119.305693 89.586304 150.455546 
C 74.928289 181.605395 72.688707 217.202496 83.32702 249.943858 
L 212.096046 208.104269 
z
" style="fill: #3a6b72"/>
   </g>
   <g id="patch_4">
    <path d="M 89.452508 252.826292 
C 97.167966 276.57202 111.303377 297.727172 130.288989 313.942424 
C 149.274601 330.157676 172.380623 340.8097 197.040964 344.715515 
C 221.701308 348.621338 246.968088 345.630806 270.035268 336.076066 
C 293.102448 326.521325 313.083327 310.769667 327.759 290.570343 
C 342.434672 270.371019 351.240957 246.50055 353.199913 221.609779 
C 355.158869 196.719008 350.195162 171.764746 338.86005 149.518327 
C 327.524939 127.271912 310.254103 108.588433 288.965607 95.542832 
C 267.677111 82.49723 243.18929 75.590941 218.221552 75.590941 
L 218.221534 210.986704 
z
" style="fill: #e8f0f1"/>
   </g>
   <g id="patch_5">
    <path d="M 218.221534 305.763738 
C 243.356697 305.763738 267.465773 295.777431 285.239017 278.004187 
C 303.012261 260.230943 312.998568 236.121867 312.998568 210.986704 
C 312.998568 185.85154 303.012261 161.742464 285.239017 143.96922 
C 267.465773 126.195976 243.356697 116.20967 218.221534 116.20967 
C 193.08637 116.20967 168.977295 126.195976 151.20405 143.96922 
C 133.430806 161.742464 123.4445 185.85154 123.4445 210.986704 
C 123.4445 236.121867 133.430806 260.230943 151.20405 278.004187 
C 168.977295 295.777431 193.08637 305.763738 218.221534 305.763738 
z
" clip-path="url(#pcfe529d1b9)" style="fill: #ffffff"/>
   </g>
   <g id="text_1">
    <!-- Energy -->
    <g style="fill: #262626" transform="translate(153.776458 48.298322) scale(0.11 -0.11)">
     <defs>
      <path id="SourceSansPro-Bold-45" d="M 493 0 
L 3168 0 
L 3168 794 
L 1434 794 
L 1434 1754 
L 2854 1754 
L 2854 2541 
L 1434 2541 
L 1434 3379 
L 3104 3379 
L 3104 4173 
L 493 4173 
L 493 0 
z
" transform="scale(0.015625)"/>
      <path id="SourceSansPro-Bold-6e" d="M 416 0 
L 1357 0 
L 1357 2144 
C 1562 2342 1709 2451 1946 2451 
C 2214 2451 2336 2310 2336 1850 
L 2336 0 
L 3277 0 
L 3277 1971 
C 3277 2765 2982 3251 2291 3251 
C 1862 3251 1542 3027 1274 2771 
L 1248 2771 
L 1184 3174 
L 416 3174 
L 416 0 
z
" transform="scale(0.015625)"/>
      <path id="SourceSansPro-Bold-65" d="M 1837 -77 
C 2214 -77 2637 58 2963 282 
L 2650 851 
C 2419 710 2202 640 1965 640 
C 1542 640 1222 851 1139 1312 
L 3040 1312 
C 3059 1389 3078 1562 3078 1728 
C 3078 2592 2630 3251 1728 3251 
C 966 3251 230 2618 230 1587 
C 230 538 928 -77 1837 -77 
z
M 1133 1933 
C 1197 2336 1453 2534 1747 2534 
C 2125 2534 2278 2285 2278 1933 
L 1133 1933 
z
" transform="scale(0.015625)"/>
      <path id="SourceSansPro-Bold-72" d="M 416 0 
L 1357 0 
L 1357 1843 
C 1523 2272 1818 2426 2054 2426 
C 2189 2426 2285 2406 2400 2374 
L 2554 3187 
C 2464 3226 2355 3251 2176 3251 
C 1850 3251 1504 3046 1274 2618 
L 1248 2618 
L 1184 3174 
L 416 3174 
L 416 0 
z
" transform="scale(0.015625)"/>
      <path id="SourceSansPro-Bold-67" d="M 1549 -1350 
C 2637 -1350 3322 -870 3322 -211 
C 3322 358 2893 595 2112 595 
L 1600 595 
C 1248 595 1120 672 1120 832 
C 1120 941 1152 998 1235 1069 
C 1376 1024 1504 1005 1619 1005 
C 2317 1005 2867 1344 2867 2074 
C 2867 2240 2822 2394 2765 2490 
L 3270 2490 
L 3270 3174 
L 2112 3174 
C 1971 3226 1798 3251 1619 3251 
C 934 3251 307 2867 307 2106 
C 307 1734 512 1434 736 1280 
L 736 1254 
C 531 1114 378 890 378 659 
C 378 397 506 230 672 122 
L 672 96 
C 378 -70 218 -282 218 -544 
C 218 -1107 806 -1350 1549 -1350 
z
M 1619 1574 
C 1370 1574 1184 1754 1184 2106 
C 1184 2445 1370 2618 1619 2618 
C 1869 2618 2054 2438 2054 2106 
C 2054 1754 1869 1574 1619 1574 
z
M 1696 -762 
C 1274 -762 992 -634 992 -397 
C 992 -282 1050 -186 1165 -83 
C 1267 -109 1395 -122 1613 -122 
L 1939 -122 
C 2253 -122 2426 -173 2426 -371 
C 2426 -589 2118 -762 1696 -762 
z
" transform="scale(0.015625)"/>
      <path id="SourceSansPro-Bold-79" d="M 768 -1242 
C 1517 -1242 1856 -832 2157 -32 
L 3258 3174 
L 2355 3174 
L 1971 1811 
C 1894 1510 1824 1210 1754 909 
L 1728 909 
C 1645 1222 1568 1523 1478 1811 
L 1024 3174 
L 77 3174 
L 1299 83 
L 1254 -83 
C 1171 -333 1011 -499 698 -499 
C 627 -499 544 -474 486 -461 
L 320 -1178 
C 448 -1216 576 -1242 768 -1242 
z
" transform="scale(0.015625)"/>
     </defs>
     <use xlink:href="#SourceSansPro-Bold-45"/>
     <use xlink:href="#SourceSansPro-Bold-6e" transform="translate(54.799988 0)"/>
     <use xlink:href="#SourceSansPro-Bold-65" transform="translate(111.999985 0)"/>
     <use xlink:href="#SourceSansPro-Bold-72" transform="translate(163.799973 0)"/>
     <use xlink:href="#SourceSansPro-Bold-67" transform="translate(203.59996 0)"/>
     <use xlink:href="#SourceSansPro-Bold-79" transform="translate(256.999954 0)"/>
    </g>
    <!-- 6% -->
    <g style="fill: #262626" transform="translate(172.54177 59.871009) scale(0.11 -0.11)">
     <defs>
      <path id="SourceSansPro-Bold-36" d="M 1798 -77 
C 2534 -77 3149 442 3149 1286 
C 3149 2144 2637 2541 1939 2541 
C 1690 2541 1338 2381 1126 2112 
C 1158 3059 1517 3379 1965 3379 
C 2202 3379 2458 3245 2598 3091 
L 3091 3654 
C 2835 3917 2445 4141 1907 4141 
C 1050 4141 262 3456 262 1939 
C 262 512 1011 -77 1798 -77 
z
M 1779 627 
C 1498 627 1229 832 1146 1472 
C 1312 1760 1549 1875 1760 1875 
C 2067 1875 2291 1715 2291 1286 
C 2291 826 2061 627 1779 627 
z
" transform="scale(0.015625)"/>
      <path id="SourceSansPro-Bold-25" d="M 1203 1600 
C 1805 1600 2246 2093 2246 2931 
C 2246 3763 1805 4250 1203 4250 
C 602 4250 166 3763 166 2931 
C 166 2093 602 1600 1203 1600 
z
M 1203 2125 
C 992 2125 819 2336 819 2931 
C 819 3526 992 3725 1203 3725 
C 1414 3725 1587 3526 1587 2931 
C 1587 2336 1414 2125 1203 2125 
z
M 1344 -77 
L 1888 -77 
L 4141 4250 
L 3597 4250 
L 1344 -77 
z
M 4282 -77 
C 4883 -77 5325 416 5325 1254 
C 5325 2086 4883 2573 4282 2573 
C 3680 2573 3245 2086 3245 1254 
C 3245 416 3680 -77 4282 -77 
z
M 4282 448 
C 4070 448 3898 659 3898 1254 
C 3898 1850 4070 2048 4282 2048 
C 4493 2048 4666 1850 4666 1254 
C 4666 659 4493 448 4282 448 
z
" transform="scale(0.015625)"/>
     </defs>
     <use xlink:href="#SourceSansPro-Bold-36"/>
     <use xlink:href="#SourceSansPro-Bold-25" transform="translate(52.799988 0)"/>
    </g>
   </g>
   <g id="text_2">
    <!-- 6% -->
    <g style="fill: #262626" transform="translate(186.501929 87.481861) scale(0.11 -0.11)">
     <use xlink:href="#SourceSansPro-Bold-36"/>
     <use xlink:href="#SourceSansPro-Bold-25" transform="translate(52.799988 0)"/>
    </g>
   </g>
   <g id="text_3">
    <!-- Other Housing -->
    <g style="fill: #262626" transform="translate(7.2 141.86319) scale(0.11 -0.11)">
     <defs>
      <path id="SourceSansPro-Bold-4f" d="M 2189 -77 
C 3315 -77 4083 742 4083 2106 
C 4083 3462 3315 4250 2189 4250 
C 1062 4250 294 3469 294 2106 
C 294 742 1062 -77 2189 -77 
z
M 2189 736 
C 1619 736 1261 1267 1261 2106 
C 1261 2938 1619 3437 2189 3437 
C 2758 3437 3117 2938 3117 2106 
C 3117 1267 2758 736 2189 736 
z
" transform="scale(0.015625)"/>
      <path id="SourceSansPro-Bold-74" d="M 1638 -77 
C 1946 -77 2176 -13 2342 38 
L 2195 723 
C 2112 691 1997 659 1894 659 
C 1645 659 1485 806 1485 1165 
L 1485 2438 
L 2246 2438 
L 2246 3174 
L 1485 3174 
L 1485 4019 
L 704 4019 
L 595 3174 
L 109 3136 
L 109 2438 
L 544 2438 
L 544 1152 
C 544 416 851 -77 1638 -77 
z
" transform="scale(0.015625)"/>
      <path id="SourceSansPro-Bold-68" d="M 416 0 
L 1357 0 
L 1357 2144 
C 1562 2342 1709 2451 1946 2451 
C 2214 2451 2336 2310 2336 1850 
L 2336 0 
L 3277 0 
L 3277 1971 
C 3277 2765 2982 3251 2291 3251 
C 1862 3251 1549 3027 1312 2816 
L 1357 3386 
L 1357 4486 
L 416 4486 
L 416 0 
z
" transform="scale(0.015625)"/>
      <path id="SourceSansPro-Bold-20" transform="scale(0.015625)"/>
      <path id="SourceSansPro-Bold-48" d="M 493 0 
L 1434 0 
L 1434 1741 
L 2874 1741 
L 2874 0 
L 3821 0 
L 3821 4173 
L 2874 4173 
L 2874 2566 
L 1434 2566 
L 1434 4173 
L 493 4173 
L 493 0 
z
" transform="scale(0.015625)"/>
      <path id="SourceSansPro-Bold-6f" d="M 1779 -77 
C 2579 -77 3322 531 3322 1587 
C 3322 2643 2579 3251 1779 3251 
C 973 3251 230 2643 230 1587 
C 230 531 973 -77 1779 -77 
z
M 1779 685 
C 1389 685 1197 1037 1197 1587 
C 1197 2138 1389 2490 1779 2490 
C 2163 2490 2362 2138 2362 1587 
C 2362 1037 2163 685 1779 685 
z
" transform="scale(0.015625)"/>
      <path id="SourceSansPro-Bold-75" d="M 1370 -77 
C 1805 -77 2099 122 2368 442 
L 2387 442 
L 2458 0 
L 3226 0 
L 3226 3174 
L 2285 3174 
L 2285 1075 
C 2099 826 1958 723 1722 723 
C 1446 723 1325 870 1325 1325 
L 1325 3174 
L 384 3174 
L 384 1203 
C 384 410 678 -77 1370 -77 
z
" transform="scale(0.015625)"/>
      <path id="SourceSansPro-Bold-73" d="M 1350 -77 
C 2202 -77 2656 371 2656 947 
C 2656 1530 2202 1754 1798 1901 
C 1472 2022 1178 2099 1178 2304 
C 1178 2464 1293 2554 1536 2554 
C 1760 2554 1978 2451 2208 2285 
L 2630 2848 
C 2355 3053 1997 3251 1510 3251 
C 774 3251 294 2848 294 2259 
C 294 1734 749 1472 1133 1325 
C 1459 1197 1779 1101 1779 890 
C 1779 723 1658 621 1376 621 
C 1107 621 845 736 557 954 
L 134 365 
C 454 102 934 -77 1350 -77 
z
" transform="scale(0.015625)"/>
      <path id="SourceSansPro-Bold-69" d="M 416 0 
L 1357 0 
L 1357 3174 
L 416 3174 
L 416 0 
z
M 883 3642 
C 1203 3642 1427 3846 1427 4134 
C 1427 4422 1203 4621 883 4621 
C 570 4621 339 4422 339 4134 
C 339 3846 570 3642 883 3642 
z
" transform="scale(0.015625)"/>
     </defs>
     <use xlink:href="#SourceSansPro-Bold-4f"/>
     <use xlink:href="#SourceSansPro-Bold-74" transform="translate(68.399994 0)"/>
     <use xlink:href="#SourceSansPro-Bold-68" transform="translate(106.699982 0)"/>
     <use xlink:href="#SourceSansPro-Bold-65" transform="translate(163.799973 0)"/>
     <use xlink:href="#SourceSansPro-Bold-72" transform="translate(215.59996 0)"/>
     <use xlink:href="#SourceSansPro-Bold-20" transform="translate(255.399948 0)"/>
     <use xlink:href="#SourceSansPro-Bold-48" transform="translate(275.399933 0)"/>
     <use xlink:href="#SourceSansPro-Bold-6f" transform="translate(342.799927 0)"/>
     <use xlink:href="#SourceSansPro-Bold-75" transform="translate(398.299911 0)"/>
     <use xlink:href="#SourceSansPro-Bold-73" transform="translate(455.099899 0)"/>
     <use xlink:href="#SourceSansPro-Bold-69" transform="translate(499.399887 0)"/>
     <use xlink:href="#SourceSansPro-Bold-6e" transform="translate(526.999878 0)"/>
     <use xlink:href="#SourceSansPro-Bold-67" transform="translate(584.199875 0)"/>
    </g>
    <!-- 24% -->
    <g style="fill: #262626" transform="translate(56.292656 153.435877) scale(0.11 -0.11)">
     <defs>
      <path id="SourceSansPro-Bold-32" d="M 237 0 
L 3098 0 
L 3098 794 
L 2278 794 
C 2086 794 1805 768 1600 742 
C 2259 1434 2899 2163 2899 2848 
C 2899 3629 2355 4141 1555 4141 
C 973 4141 595 3923 192 3494 
L 704 2989 
C 909 3206 1133 3405 1427 3405 
C 1779 3405 2003 3187 2003 2790 
C 2003 2214 1274 1517 237 538 
L 237 0 
z
" transform="scale(0.015625)"/>
      <path id="SourceSansPro-Bold-34" d="M 1882 0 
L 2758 0 
L 2758 973 
L 3226 973 
L 3226 1690 
L 2758 1690 
L 2758 4064 
L 1606 4064 
L 122 1619 
L 122 973 
L 1882 973 
L 1882 0 
z
M 1024 1690 
L 1562 2573 
C 1677 2803 1792 3034 1894 3258 
L 1920 3258 
C 1907 3002 1882 2611 1882 2349 
L 1882 1690 
L 1024 1690 
z
" transform="scale(0.015625)"/>
     </defs>
     <use xlink:href="#SourceSansPro-Bold-32"/>
     <use xlink:href="#SourceSansPro-Bold-34" transform="translate(52.799988 0)"/>
     <use xlink:href="#SourceSansPro-Bold-25" transform="translate(105.599976 0)"/>
    </g>
   </g>
   <g id="text_4">
    <!-- 24% -->
    <g style="fill: #262626" transform="translate(97.441424 161.945691) scale(0.11 -0.11)">
     <use xlink:href="#SourceSansPro-Bold-32"/>
     <use xlink:href="#SourceSansPro-Bold-34" transform="translate(52.799988 0)"/>
     <use xlink:href="#SourceSansPro-Bold-25" transform="translate(105.599976 0)"/>
    </g>
   </g>
   <g id="text_5">
    <!-- Other Expenses -->
    <g style="fill: #262626" transform="translate(338.712747 295.73299) scale(0.11 -0.11)">
     <defs>
      <path id="SourceSansPro-Bold-78" d="M 90 0 
L 1062 0 
L 1312 525 
C 1389 710 1478 896 1555 1075 
L 1581 1075 
C 1683 896 1779 704 1882 525 
L 2189 0 
L 3200 0 
L 2221 1542 
L 3142 3174 
L 2170 3174 
L 1952 2662 
C 1882 2483 1798 2298 1734 2118 
L 1709 2118 
C 1619 2298 1523 2483 1440 2662 
L 1158 3174 
L 147 3174 
L 1062 1651 
L 90 0 
z
" transform="scale(0.015625)"/>
      <path id="SourceSansPro-Bold-70" d="M 416 -1178 
L 1357 -1178 
L 1357 -250 
L 1325 256 
C 1549 45 1805 -77 2080 -77 
C 2765 -77 3418 550 3418 1638 
C 3418 2618 2944 3251 2176 3251 
C 1843 3251 1523 3085 1274 2861 
L 1248 2861 
L 1184 3174 
L 416 3174 
L 416 -1178 
z
M 1862 691 
C 1702 691 1523 742 1357 896 
L 1357 2195 
C 1542 2394 1709 2483 1901 2483 
C 2278 2483 2451 2195 2451 1626 
C 2451 973 2189 691 1862 691 
z
" transform="scale(0.015625)"/>
     </defs>
     <use xlink:href="#SourceSansPro-Bold-4f"/>
     <use xlink:href="#SourceSansPro-Bold-74" transform="translate(68.399994 0)"/>
     <use xlink:href="#SourceSansPro-Bold-68" transform="translate(106.699982 0)"/>
     <use xlink:href="#SourceSansPro-Bold-65" transform="translate(163.799973 0)"/>
     <use xlink:href="#SourceSansPro-Bold-72" transform="translate(215.59996 0)"/>
     <use xlink:href="#SourceSansPro-Bold-20" transform="translate(255.399948 0)"/>
     <use xlink:href="#SourceSansPro-Bold-45" transform="translate(275.399933 0)"/>
     <use xlink:href="#SourceSansPro-Bold-78" transform="translate(330.199921 0)"/>
     <use xlink:href="#SourceSansPro-Bold-70" transform="translate(381.599915 0)"/>
     <use xlink:href="#SourceSansPro-Bold-65" transform="translate(438.899902 0)"/>
     <use xlink:href="#SourceSansPro-Bold-6e" transform="translate(490.69989 0)"/>
     <use xlink:href="#SourceSansPro-Bold-73" transform="translate(547.899887 0)"/>
     <use xlink:href="#SourceSansPro-Bold-65" transform="translate(592.199875 0)"/>
     <use xlink:href="#SourceSansPro-Bold-73" transform="translate(643.999863 0)"/>
    </g>
    <!-- 70% -->
    <g style="fill: #262626" transform="translate(338.712747 307.010053) scale(0.11 -0.11)">
     <defs>
      <path id="SourceSansPro-Bold-37" d="M 1018 0 
L 1965 0 
C 2035 1587 2170 2349 3110 3488 
L 3110 4064 
L 282 4064 
L 282 3270 
L 2106 3270 
C 1338 2208 1094 1350 1018 0 
z
" transform="scale(0.015625)"/>
      <path id="SourceSansPro-Bold-30" d="M 1690 -77 
C 2560 -77 3142 666 3142 2048 
C 3142 3430 2560 4141 1690 4141 
C 819 4141 237 3430 237 2048 
C 237 666 819 -77 1690 -77 
z
M 1690 653 
C 1376 653 1126 941 1126 2048 
C 1126 3162 1376 3411 1690 3411 
C 2010 3411 2253 3162 2253 2048 
C 2253 941 2010 653 1690 653 
z
" transform="scale(0.015625)"/>
     </defs>
     <use xlink:href="#SourceSansPro-Bold-37"/>
     <use xlink:href="#SourceSansPro-Bold-30" transform="translate(52.799988 0)"/>
     <use xlink:href="#SourceSansPro-Bold-25" transform="translate(105.599976 0)"/>
    </g>
   </g>
   <g id="text_6">
    <!-- 70% -->
    <g style="fill: #262626" transform="translate(300.807052 281.475611) scale(0.11 -0.11)">
     <use xlink:href="#SourceSansPro-Bold-37"/>
     <use xlink:href="#SourceSansPro-Bold-30" transform="translate(52.799988 0)"/>
     <use xlink:href="#SourceSansPro-Bold-25" transform="translate(105.599976 0)"/>
    </g>
   </g>
   <g id="text_7">
    <!-- Household Budget -->
    <g style="fill: #275258" transform="translate(161.355284 17.013125) scale(0.14 -0.14)">
     <defs>
      <path id="SourceSansPro-Bold-6c" d="M 1280 -77 
C 1491 -77 1651 -45 1754 0 
L 1638 698 
C 1587 685 1562 685 1523 685 
C 1446 685 1357 749 1357 947 
L 1357 4486 
L 416 4486 
L 416 986 
C 416 346 634 -77 1280 -77 
z
" transform="scale(0.015625)"/>
      <path id="SourceSansPro-Bold-64" d="M 1549 -77 
C 1856 -77 2170 90 2394 314 
L 2419 314 
L 2483 0 
L 3251 0 
L 3251 4486 
L 2310 4486 
L 2310 3405 
L 2349 2918 
C 2131 3123 1920 3251 1568 3251 
C 896 3251 250 2624 250 1587 
C 250 550 762 -77 1549 -77 
z
M 1792 691 
C 1427 691 1216 973 1216 1600 
C 1216 2202 1485 2483 1786 2483 
C 1958 2483 2144 2432 2310 2278 
L 2310 979 
C 2157 768 1997 691 1792 691 
z
" transform="scale(0.015625)"/>
      <path id="SourceSansPro-Bold-42" d="M 493 0 
L 2042 0 
C 2944 0 3661 378 3661 1229 
C 3661 1786 3334 2099 2912 2208 
L 2912 2234 
C 3251 2362 3456 2765 3456 3136 
C 3456 3936 2784 4173 1920 4173 
L 493 4173 
L 493 0 
z
M 1434 2502 
L 1434 3443 
L 1882 3443 
C 2323 3443 2534 3322 2534 2995 
C 2534 2694 2336 2502 1875 2502 
L 1434 2502 
z
M 1434 730 
L 1434 1805 
L 1965 1805 
C 2483 1805 2739 1658 2739 1293 
C 2739 909 2477 730 1965 730 
L 1434 730 
z
" transform="scale(0.015625)"/>
     </defs>
     <use xlink:href="#SourceSansPro-Bold-48"/>
     <use xlink:href="#SourceSansPro-Bold-6f" transform="translate(67.399994 0)"/>
     <use xlink:href="#SourceSansPro-Bold-75" transform="translate(122.899979 0)"/>
     <use xlink:href="#SourceSansPro-Bold-73" transform="translate(179.699966 0)"/>
     <use xlink:href="#SourceSansPro-Bold-65" transform="translate(223.999954 0)"/>
     <use xlink:href="#SourceSansPro-Bold-68" transform="translate(275.799942 0)"/>
     <use xlink:href="#SourceSansPro-Bold-6f" transform="translate(332.899933 0)"/>
     <use xlink:href="#SourceSansPro-Bold-6c" transform="translate(388.399918 0)"/>
     <use xlink:href="#SourceSansPro-Bold-64" transform="translate(416.999908 0)"/>
     <use xlink:href="#SourceSansPro-Bold-20" transform="translate(474.299896 0)"/>
     <use xlink:href="#SourceSansPro-Bold-42" transform="translate(494.299881 0)"/>
     <use xlink:href="#SourceSansPro-Bold-75" transform="translate(554.799866 0)"/>
     <use xlink:href="#SourceSansPro-Bold-64" transform="translate(611.599854 0)"/>
     <use xlink:href="#SourceSansPro-Bold-67" transform="translate(668.899841 0)"/>
     <use xlink:href="#SourceSansPro-Bold-65" transform="translate(722.299835 0)"/>
     <use xlink:href="#SourceSansPro-Bold-74" transform="translate(774.099823 0)"/>
    </g>
    <!-- Breakdown -->
    <g style="fill: #275258" transform="translate(182.718409 31.742) scale(0.14 -0.14)">
     <defs>
      <path id="SourceSansPro-Bold-61" d="M 1216 -77 
C 1574 -77 1869 90 2138 326 
L 2163 326 
L 2227 0 
L 2995 0 
L 2995 1818 
C 2995 2790 2547 3251 1734 3251 
C 1235 3251 781 3078 378 2835 
L 717 2214 
C 1024 2394 1286 2502 1555 2502 
C 1901 2502 2035 2323 2054 2042 
C 800 1914 269 1549 269 883 
C 269 346 634 -77 1216 -77 
z
M 1536 653 
C 1312 653 1171 749 1171 954 
C 1171 1197 1389 1389 2054 1478 
L 2054 922 
C 1888 755 1747 653 1536 653 
z
" transform="scale(0.015625)"/>
      <path id="SourceSansPro-Bold-6b" d="M 416 0 
L 1331 0 
L 1331 781 
L 1734 1235 
L 2451 0 
L 3469 0 
L 2272 1869 
L 3386 3174 
L 2362 3174 
L 1357 1914 
L 1331 1914 
L 1331 4486 
L 416 4486 
L 416 0 
z
" transform="scale(0.015625)"/>
      <path id="SourceSansPro-Bold-77" d="M 947 0 
L 2022 0 
L 2304 1267 
C 2362 1562 2406 1856 2464 2195 
L 2490 2195 
C 2547 1856 2598 1562 2662 1267 
L 2950 0 
L 4051 0 
L 4813 3174 
L 3942 3174 
L 3642 1702 
C 3584 1389 3552 1082 3494 762 
L 3469 762 
C 3405 1082 3347 1389 3270 1702 
L 2912 3174 
L 2099 3174 
L 1747 1702 
C 1670 1402 1619 1082 1562 762 
L 1536 762 
C 1485 1082 1446 1389 1395 1702 
L 1088 3174 
L 154 3174 
L 947 0 
z
" transform="scale(0.015625)"/>
     </defs>
     <use xlink:href="#SourceSansPro-Bold-42"/>
     <use xlink:href="#SourceSansPro-Bold-72" transform="translate(60.499985 0)"/>
     <use xlink:href="#SourceSansPro-Bold-65" transform="translate(100.299973 0)"/>
     <use xlink:href="#SourceSansPro-Bold-61" transform="translate(152.09996 0)"/>
     <use xlink:href="#SourceSansPro-Bold-6b" transform="translate(204.799957 0)"/>
     <use xlink:href="#SourceSansPro-Bold-64" transform="translate(259.599945 0)"/>
     <use xlink:href="#SourceSansPro-Bold-6f" transform="translate(316.899933 0)"/>
     <use xlink:href="#SourceSansPro-Bold-77" transform="translate(372.399918 0)"/>
     <use xlink:href="#SourceSansPro-Bold-6e" transform="translate(449.999908 0)"/>
    </g>
   </g>
  </g>
 </g>
 <defs>
  <clipPath id="pcfe529d1b9">
   <rect x="48.97683" y="41.742" width="338.489407" height="338.489407"/>
  </clipPath>
 </defs>
</svg>
