<?xml version="1.0" encoding="utf-8" standalone="no"?>
<!DOCTYPE svg PUBLIC "-//W3C//DTD SVG 1.1//EN"
  "http://www.w3.org/Graphics/SVG/1.1/DTD/svg11.dtd">
<svg xmlns:xlink="http://www.w3.org/1999/xlink" width="564.048437pt" height="348.212031pt" viewBox="0 0 564.048437 348.212031" xmlns="http://www.w3.org/2000/svg" version="1.1">
 <metadata>
  <rdf:RDF xmlns:dc="http://purl.org/dc/elements/1.1/" xmlns:cc="http://creativecommons.org/ns#" xmlns:rdf="http://www.w3.org/1999/02/22-rdf-syntax-ns#">
   <cc:Work>
    <dc:type rdf:resource="http://purl.org/dc/dcmitype/StillImage"/>
    <dc:date>2025-10-09T10:30:31.392649</dc:date>
    <dc:format>image/svg+xml</dc:format>
    <dc:creator>
     <cc:Agent>
      <dc:title>Matplotlib v3.10.7, https://matplotlib.org/</dc:title>
     </cc:Agent>
    </dc:creator>
   </cc:Work>
  </rdf:RDF>
 </metadata>
 <defs>
  <style type="text/css">*{stroke-linejoin: round; stroke-linecap: butt}</style>
 </defs>
 <g id="figure_1">
  <g id="patch_1">
   <path d="M 0 348.212031 
L 564.048437 348.212031 
L 564.048437 0 
L 0 0 
L 0 348.212031 
z
" style="fill: none"/>
  </g>
  <g id="axes_1">
   <g id="patch_2">
    <path d="M 36.903438 312.073437 
L 556.848437 312.073437 
L 556.848437 32.308437 
L 36.903438 32.308437 
L 36.903438 312.073437 
z
" style="fill: none"/>
   </g>
   <g id="line2d_1">
    <path d="M 215.379856 312.073437 
L 215.379856 32.308437 
" clip-path="url(#pc29780b613)" style="fill: none; stroke-dasharray: 9.25,4; stroke-dashoffset: 0; stroke: #ff0000; stroke-opacity: 0.8; stroke-width: 2.5"/>
   </g>
   <g id="matplotlib.axis_1">
    <g id="xtick_1">
     <g id="line2d_2">
      <path d="M 93.135734 312.073437 
L 93.135734 32.308437 
" clip-path="url(#pc29780b613)" style="fill: none; stroke: #ffffff; stroke-width: 0.8; stroke-linecap: round"/>
     </g>
     <g id="line2d_3"/>
     <g id="text_1">
      <!-- &lt;3% -->
      <g style="fill: #262626" transform="translate(83.136046 323.405781) scale(0.11 -0.11)">
       <defs>
        <path id="SourceSansPro-Regular-3c" d="M 2963 838 
L 2963 1293 
L 1613 1792 
L 755 2112 
L 755 2138 
L 1613 2458 
L 2963 2957 
L 2963 3411 
L 218 2336 
L 218 1914 
L 2963 838 
z
" transform="scale(0.015625)"/>
        <path id="SourceSansPro-Regular-33" d="M 1510 -77 
C 2259 -77 2854 365 2854 1088 
C 2854 1651 2464 2010 1971 2125 
L 1971 2150 
C 2413 2317 2714 2630 2714 3123 
C 2714 3782 2202 4160 1491 4160 
C 1011 4160 634 3942 320 3648 
L 602 3315 
C 845 3558 1133 3731 1472 3731 
C 1907 3731 2176 3482 2176 3085 
C 2176 2656 1888 2323 1018 2323 
L 1018 1920 
C 1990 1920 2323 1594 2323 1107 
C 2323 653 1971 358 1478 358 
C 998 358 678 589 435 845 
L 166 499 
C 442 198 858 -77 1510 -77 
z
" transform="scale(0.015625)"/>
        <path id="SourceSansPro-Regular-25" d="M 1178 1626 
C 1747 1626 2131 2106 2131 2957 
C 2131 3795 1747 4275 1178 4275 
C 602 4275 224 3795 224 2957 
C 224 2106 602 1626 1178 1626 
z
M 1178 1952 
C 845 1952 621 2291 621 2957 
C 621 3622 845 3949 1178 3949 
C 1504 3949 1728 3622 1728 2957 
C 1728 2291 1504 1952 1178 1952 
z
M 1299 -77 
L 1658 -77 
L 3974 4275 
L 3616 4275 
L 1299 -77 
z
M 4102 -77 
C 4672 -77 5056 403 5056 1254 
C 5056 2093 4672 2573 4102 2573 
C 3526 2573 3149 2093 3149 1254 
C 3149 403 3526 -77 4102 -77 
z
M 4102 250 
C 3770 250 3546 589 3546 1254 
C 3546 1920 3770 2246 4102 2246 
C 4429 2246 4653 1920 4653 1254 
C 4653 589 4429 250 4102 250 
z
" transform="scale(0.015625)"/>
       </defs>
       <use xlink:href="#SourceSansPro-Regular-3c"/>
       <use xlink:href="#SourceSansPro-Regular-33" transform="translate(49.699997 0)"/>
       <use xlink:href="#SourceSansPro-Regular-25" transform="translate(99.399994 0)"/>
      </g>
     </g>
    </g>
    <g id="xtick_2">
     <g id="line2d_4">
      <path d="M 174.631815 312.073437 
L 174.631815 32.308437 
" clip-path="url(#pc29780b613)" style="fill: none; stroke: #ffffff; stroke-width: 0.8; stroke-linecap: round"/>
     </g>
     <g id="line2d_5"/>
     <g id="text_2">
      <!-- 3-6% -->
      <g style="fill: #262626" transform="translate(162.921971 323.405781) scale(0.11 -0.11)">
       <defs>
        <path id="SourceSansPro-Regular-2d" d="M 262 1402 
L 1734 1402 
L 1734 1805 
L 262 1805 
L 262 1402 
z
" transform="scale(0.015625)"/>
        <path id="SourceSansPro-Regular-36" d="M 1715 -77 
C 2374 -77 2925 454 2925 1235 
C 2925 2074 2464 2496 1760 2496 
C 1427 2496 1062 2298 806 1984 
C 832 3277 1312 3718 1882 3718 
C 2138 3718 2387 3597 2554 3398 
L 2848 3725 
C 2618 3974 2304 4160 1862 4160 
C 1050 4160 307 3526 307 1888 
C 307 576 915 -77 1715 -77 
z
M 1715 339 
C 1197 339 883 768 819 1562 
C 1075 1939 1408 2099 1670 2099 
C 2176 2099 2426 1766 2426 1235 
C 2426 698 2118 339 1715 339 
z
" transform="scale(0.015625)"/>
       </defs>
       <use xlink:href="#SourceSansPro-Regular-33"/>
       <use xlink:href="#SourceSansPro-Regular-2d" transform="translate(49.699997 0)"/>
       <use xlink:href="#SourceSansPro-Regular-36" transform="translate(80.799988 0)"/>
       <use xlink:href="#SourceSansPro-Regular-25" transform="translate(130.499985 0)"/>
      </g>
     </g>
    </g>
    <g id="xtick_3">
     <g id="line2d_6">
      <path d="M 256.127897 312.073437 
L 256.127897 32.308437 
" clip-path="url(#pc29780b613)" style="fill: none; stroke: #ffffff; stroke-width: 0.8; stroke-linecap: round"/>
     </g>
     <g id="line2d_7"/>
     <g id="text_3">
      <!-- 6-9% -->
      <g style="fill: #262626" transform="translate(244.418053 323.405781) scale(0.11 -0.11)">
       <defs>
        <path id="SourceSansPro-Regular-39" d="M 1504 1984 
C 998 1984 749 2317 749 2848 
C 749 3386 1062 3744 1459 3744 
C 1978 3744 2291 3322 2362 2528 
C 2099 2144 1773 1984 1504 1984 
z
M 1312 -77 
C 2125 -77 2867 557 2867 2195 
C 2867 3507 2266 4160 1459 4160 
C 806 4160 256 3629 256 2848 
C 256 2010 710 1587 1414 1587 
C 1754 1587 2118 1786 2374 2112 
C 2355 806 1869 358 1293 358 
C 1037 358 787 486 621 685 
L 326 352 
C 550 109 877 -77 1312 -77 
z
" transform="scale(0.015625)"/>
       </defs>
       <use xlink:href="#SourceSansPro-Regular-36"/>
       <use xlink:href="#SourceSansPro-Regular-2d" transform="translate(49.699997 0)"/>
       <use xlink:href="#SourceSansPro-Regular-39" transform="translate(80.799988 0)"/>
       <use xlink:href="#SourceSansPro-Regular-25" transform="translate(130.499985 0)"/>
      </g>
     </g>
    </g>
    <g id="xtick_4">
     <g id="line2d_8">
      <path d="M 337.623978 312.073437 
L 337.623978 32.308437 
" clip-path="url(#pc29780b613)" style="fill: none; stroke: #ffffff; stroke-width: 0.8; stroke-linecap: round"/>
     </g>
     <g id="line2d_9"/>
     <g id="text_4">
      <!-- 9-12% -->
      <g style="fill: #262626" transform="translate(323.180463 323.405781) scale(0.11 -0.11)">
       <defs>
        <path id="SourceSansPro-Regular-31" d="M 506 0 
L 2810 0 
L 2810 435 
L 1965 435 
L 1965 4083 
L 1562 4083 
C 1338 3949 1069 3846 698 3782 
L 698 3443 
L 1440 3443 
L 1440 435 
L 506 435 
L 506 0 
z
" transform="scale(0.015625)"/>
        <path id="SourceSansPro-Regular-32" d="M 256 0 
L 2893 0 
L 2893 454 
L 1709 454 
C 1498 454 1248 435 1024 416 
C 1990 1427 2688 2189 2688 2957 
C 2688 3680 2221 4160 1466 4160 
C 934 4160 570 3910 230 3539 
L 531 3238 
C 768 3514 1062 3731 1402 3731 
C 1920 3731 2176 3398 2176 2931 
C 2176 2272 1485 1536 256 314 
L 256 0 
z
" transform="scale(0.015625)"/>
       </defs>
       <use xlink:href="#SourceSansPro-Regular-39"/>
       <use xlink:href="#SourceSansPro-Regular-2d" transform="translate(49.699997 0)"/>
       <use xlink:href="#SourceSansPro-Regular-31" transform="translate(80.799988 0)"/>
       <use xlink:href="#SourceSansPro-Regular-32" transform="translate(130.499985 0)"/>
       <use xlink:href="#SourceSansPro-Regular-25" transform="translate(180.199982 0)"/>
      </g>
     </g>
    </g>
    <g id="xtick_5">
     <g id="line2d_10">
      <path d="M 419.12006 312.073437 
L 419.12006 32.308437 
" clip-path="url(#pc29780b613)" style="fill: none; stroke: #ffffff; stroke-width: 0.8; stroke-linecap: round"/>
     </g>
     <g id="line2d_11"/>
     <g id="text_5">
      <!-- 12-15% -->
      <g style="fill: #262626" transform="translate(401.942872 323.405781) scale(0.11 -0.11)">
       <defs>
        <path id="SourceSansPro-Regular-35" d="M 1498 -77 
C 2208 -77 2874 422 2874 1306 
C 2874 2189 2304 2586 1606 2586 
C 1357 2586 1171 2522 979 2419 
L 1088 3629 
L 2669 3629 
L 2669 4083 
L 627 4083 
L 493 2118 
L 774 1939 
C 1018 2099 1190 2189 1472 2189 
C 1997 2189 2342 1856 2342 1293 
C 2342 723 1946 358 1446 358 
C 966 358 659 582 416 826 
L 160 480 
C 442 198 845 -77 1498 -77 
z
" transform="scale(0.015625)"/>
       </defs>
       <use xlink:href="#SourceSansPro-Regular-31"/>
       <use xlink:href="#SourceSansPro-Regular-32" transform="translate(49.699997 0)"/>
       <use xlink:href="#SourceSansPro-Regular-2d" transform="translate(99.399994 0)"/>
       <use xlink:href="#SourceSansPro-Regular-31" transform="translate(130.499985 0)"/>
       <use xlink:href="#SourceSansPro-Regular-35" transform="translate(180.199982 0)"/>
       <use xlink:href="#SourceSansPro-Regular-25" transform="translate(229.899979 0)"/>
      </g>
     </g>
    </g>
    <g id="xtick_6">
     <g id="line2d_12">
      <path d="M 500.616141 312.073437 
L 500.616141 32.308437 
" clip-path="url(#pc29780b613)" style="fill: none; stroke: #ffffff; stroke-width: 0.8; stroke-linecap: round"/>
     </g>
     <g id="line2d_13"/>
     <g id="text_6">
      <!-- 15+% -->
      <g style="fill: #262626" transform="translate(487.882782 323.405781) scale(0.11 -0.11)">
       <defs>
        <path id="SourceSansPro-Regular-2b" d="M 1382 666 
L 1798 666 
L 1798 1914 
L 2963 1914 
L 2963 2310 
L 1798 2310 
L 1798 3558 
L 1382 3558 
L 1382 2310 
L 218 2310 
L 218 1914 
L 1382 1914 
L 1382 666 
z
" transform="scale(0.015625)"/>
       </defs>
       <use xlink:href="#SourceSansPro-Regular-31"/>
       <use xlink:href="#SourceSansPro-Regular-35" transform="translate(49.699997 0)"/>
       <use xlink:href="#SourceSansPro-Regular-2b" transform="translate(99.399994 0)"/>
       <use xlink:href="#SourceSansPro-Regular-25" transform="translate(149.099991 0)"/>
      </g>
     </g>
    </g>
    <g id="text_7">
     <!-- Energy Cost Burden (% of Income) -->
     <g style="fill: #275258" transform="translate(206.8825 338.480781) scale(0.12 -0.12)">
      <defs>
       <path id="SourceSansPro-Bold-45" d="M 493 0 
L 3168 0 
L 3168 794 
L 1434 794 
L 1434 1754 
L 2854 1754 
L 2854 2541 
L 1434 2541 
L 1434 3379 
L 3104 3379 
L 3104 4173 
L 493 4173 
L 493 0 
z
" transform="scale(0.015625)"/>
       <path id="SourceSansPro-Bold-6e" d="M 416 0 
L 1357 0 
L 1357 2144 
C 1562 2342 1709 2451 1946 2451 
C 2214 2451 2336 2310 2336 1850 
L 2336 0 
L 3277 0 
L 3277 1971 
C 3277 2765 2982 3251 2291 3251 
C 1862 3251 1542 3027 1274 2771 
L 1248 2771 
L 1184 3174 
L 416 3174 
L 416 0 
z
" transform="scale(0.015625)"/>
       <path id="SourceSansPro-Bold-65" d="M 1837 -77 
C 2214 -77 2637 58 2963 282 
L 2650 851 
C 2419 710 2202 640 1965 640 
C 1542 640 1222 851 1139 1312 
L 3040 1312 
C 3059 1389 3078 1562 3078 1728 
C 3078 2592 2630 3251 1728 3251 
C 966 3251 230 2618 230 1587 
C 230 538 928 -77 1837 -77 
z
M 1133 1933 
C 1197 2336 1453 2534 1747 2534 
C 2125 2534 2278 2285 2278 1933 
L 1133 1933 
z
" transform="scale(0.015625)"/>
       <path id="SourceSansPro-Bold-72" d="M 416 0 
L 1357 0 
L 1357 1843 
C 1523 2272 1818 2426 2054 2426 
C 2189 2426 2285 2406 2400 2374 
L 2554 3187 
C 2464 3226 2355 3251 2176 3251 
C 1850 3251 1504 3046 1274 2618 
L 1248 2618 
L 1184 3174 
L 416 3174 
L 416 0 
z
" transform="scale(0.015625)"/>
       <path id="SourceSansPro-Bold-67" d="M 1549 -1350 
C 2637 -1350 3322 -870 3322 -211 
C 3322 358 2893 595 2112 595 
L 1600 595 
C 1248 595 1120 672 1120 832 
C 1120 941 1152 998 1235 1069 
C 1376 1024 1504 1005 1619 1005 
C 2317 1005 2867 1344 2867 2074 
C 2867 2240 2822 2394 2765 2490 
L 3270 2490 
L 3270 3174 
L 2112 3174 
C 1971 3226 1798 3251 1619 3251 
C 934 3251 307 2867 307 2106 
C 307 1734 512 1434 736 1280 
L 736 1254 
C 531 1114 378 890 378 659 
C 378 397 506 230 672 122 
L 672 96 
C 378 -70 218 -282 218 -544 
C 218 -1107 806 -1350 1549 -1350 
z
M 1619 1574 
C 1370 1574 1184 1754 1184 2106 
C 1184 2445 1370 2618 1619 2618 
C 1869 2618 2054 2438 2054 2106 
C 2054 1754 1869 1574 1619 1574 
z
M 1696 -762 
C 1274 -762 992 -634 992 -397 
C 992 -282 1050 -186 1165 -83 
C 1267 -109 1395 -122 1613 -122 
L 1939 -122 
C 2253 -122 2426 -173 2426 -371 
C 2426 -589 2118 -762 1696 -762 
z
" transform="scale(0.015625)"/>
       <path id="SourceSansPro-Bold-79" d="M 768 -1242 
C 1517 -1242 1856 -832 2157 -32 
L 3258 3174 
L 2355 3174 
L 1971 1811 
C 1894 1510 1824 1210 1754 909 
L 1728 909 
C 1645 1222 1568 1523 1478 1811 
L 1024 3174 
L 77 3174 
L 1299 83 
L 1254 -83 
C 1171 -333 1011 -499 698 -499 
C 627 -499 544 -474 486 -461 
L 320 -1178 
C 448 -1216 576 -1242 768 -1242 
z
" transform="scale(0.015625)"/>
       <path id="SourceSansPro-Bold-20" transform="scale(0.015625)"/>
       <path id="SourceSansPro-Bold-43" d="M 2234 -77 
C 2778 -77 3238 134 3584 538 
L 3085 1126 
C 2880 909 2611 736 2272 736 
C 1658 736 1261 1235 1261 2093 
C 1261 2931 1715 3437 2285 3437 
C 2586 3437 2810 3296 3021 3104 
L 3520 3706 
C 3238 3994 2803 4250 2266 4250 
C 1210 4250 294 3443 294 2061 
C 294 659 1178 -77 2234 -77 
z
" transform="scale(0.015625)"/>
       <path id="SourceSansPro-Bold-6f" d="M 1779 -77 
C 2579 -77 3322 531 3322 1587 
C 3322 2643 2579 3251 1779 3251 
C 973 3251 230 2643 230 1587 
C 230 531 973 -77 1779 -77 
z
M 1779 685 
C 1389 685 1197 1037 1197 1587 
C 1197 2138 1389 2490 1779 2490 
C 2163 2490 2362 2138 2362 1587 
C 2362 1037 2163 685 1779 685 
z
" transform="scale(0.015625)"/>
       <path id="SourceSansPro-Bold-73" d="M 1350 -77 
C 2202 -77 2656 371 2656 947 
C 2656 1530 2202 1754 1798 1901 
C 1472 2022 1178 2099 1178 2304 
C 1178 2464 1293 2554 1536 2554 
C 1760 2554 1978 2451 2208 2285 
L 2630 2848 
C 2355 3053 1997 3251 1510 3251 
C 774 3251 294 2848 294 2259 
C 294 1734 749 1472 1133 1325 
C 1459 1197 1779 1101 1779 890 
C 1779 723 1658 621 1376 621 
C 1107 621 845 736 557 954 
L 134 365 
C 454 102 934 -77 1350 -77 
z
" transform="scale(0.015625)"/>
       <path id="SourceSansPro-Bold-74" d="M 1638 -77 
C 1946 -77 2176 -13 2342 38 
L 2195 723 
C 2112 691 1997 659 1894 659 
C 1645 659 1485 806 1485 1165 
L 1485 2438 
L 2246 2438 
L 2246 3174 
L 1485 3174 
L 1485 4019 
L 704 4019 
L 595 3174 
L 109 3136 
L 109 2438 
L 544 2438 
L 544 1152 
C 544 416 851 -77 1638 -77 
z
" transform="scale(0.015625)"/>
       <path id="SourceSansPro-Bold-42" d="M 493 0 
L 2042 0 
C 2944 0 3661 378 3661 1229 
C 3661 1786 3334 2099 2912 2208 
L 2912 2234 
C 3251 2362 3456 2765 3456 3136 
C 3456 3936 2784 4173 1920 4173 
L 493 4173 
L 493 0 
z
M 1434 2502 
L 1434 3443 
L 1882 3443 
C 2323 3443 2534 3322 2534 2995 
C 2534 2694 2336 2502 1875 2502 
L 1434 2502 
z
M 1434 730 
L 1434 1805 
L 1965 1805 
C 2483 1805 2739 1658 2739 1293 
C 2739 909 2477 730 1965 730 
L 1434 730 
z
" transform="scale(0.015625)"/>
       <path id="SourceSansPro-Bold-75" d="M 1370 -77 
C 1805 -77 2099 122 2368 442 
L 2387 442 
L 2458 0 
L 3226 0 
L 3226 3174 
L 2285 3174 
L 2285 1075 
C 2099 826 1958 723 1722 723 
C 1446 723 1325 870 1325 1325 
L 1325 3174 
L 384 3174 
L 384 1203 
C 384 410 678 -77 1370 -77 
z
" transform="scale(0.015625)"/>
       <path id="SourceSansPro-Bold-64" d="M 1549 -77 
C 1856 -77 2170 90 2394 314 
L 2419 314 
L 2483 0 
L 3251 0 
L 3251 4486 
L 2310 4486 
L 2310 3405 
L 2349 2918 
C 2131 3123 1920 3251 1568 3251 
C 896 3251 250 2624 250 1587 
C 250 550 762 -77 1549 -77 
z
M 1792 691 
C 1427 691 1216 973 1216 1600 
C 1216 2202 1485 2483 1786 2483 
C 1958 2483 2144 2432 2310 2278 
L 2310 979 
C 2157 768 1997 691 1792 691 
z
" transform="scale(0.015625)"/>
       <path id="SourceSansPro-Bold-28" d="M 1306 -1146 
L 1894 -902 
C 1427 -70 1222 870 1222 1779 
C 1222 2688 1427 3629 1894 4461 
L 1306 4704 
C 768 3827 461 2906 461 1779 
C 461 653 768 -269 1306 -1146 
z
" transform="scale(0.015625)"/>
       <path id="SourceSansPro-Bold-25" d="M 1203 1600 
C 1805 1600 2246 2093 2246 2931 
C 2246 3763 1805 4250 1203 4250 
C 602 4250 166 3763 166 2931 
C 166 2093 602 1600 1203 1600 
z
M 1203 2125 
C 992 2125 819 2336 819 2931 
C 819 3526 992 3725 1203 3725 
C 1414 3725 1587 3526 1587 2931 
C 1587 2336 1414 2125 1203 2125 
z
M 1344 -77 
L 1888 -77 
L 4141 4250 
L 3597 4250 
L 1344 -77 
z
M 4282 -77 
C 4883 -77 5325 416 5325 1254 
C 5325 2086 4883 2573 4282 2573 
C 3680 2573 3245 2086 3245 1254 
C 3245 416 3680 -77 4282 -77 
z
M 4282 448 
C 4070 448 3898 659 3898 1254 
C 3898 1850 4070 2048 4282 2048 
C 4493 2048 4666 1850 4666 1254 
C 4666 659 4493 448 4282 448 
z
" transform="scale(0.015625)"/>
       <path id="SourceSansPro-Bold-66" d="M 576 0 
L 1517 0 
L 1517 2438 
L 2086 2438 
L 2086 3174 
L 1517 3174 
L 1517 3366 
C 1517 3693 1651 3821 1882 3821 
C 1984 3821 2099 3795 2208 3757 
L 2381 4448 
C 2240 4499 2010 4563 1747 4563 
C 890 4563 576 4013 576 3341 
L 576 3168 
L 154 3136 
L 154 2438 
L 576 2438 
L 576 0 
z
" transform="scale(0.015625)"/>
       <path id="SourceSansPro-Bold-49" d="M 493 0 
L 1434 0 
L 1434 4173 
L 493 4173 
L 493 0 
z
" transform="scale(0.015625)"/>
       <path id="SourceSansPro-Bold-63" d="M 1798 -77 
C 2144 -77 2534 26 2848 301 
L 2477 915 
C 2310 787 2112 685 1907 685 
C 1498 685 1197 1037 1197 1587 
C 1197 2138 1485 2490 1939 2490 
C 2086 2490 2214 2432 2368 2304 
L 2810 2912 
C 2573 3110 2272 3251 1882 3251 
C 1005 3251 230 2643 230 1587 
C 230 531 915 -77 1798 -77 
z
" transform="scale(0.015625)"/>
       <path id="SourceSansPro-Bold-6d" d="M 416 0 
L 1357 0 
L 1357 2144 
C 1555 2349 1741 2451 1894 2451 
C 2163 2451 2285 2310 2285 1850 
L 2285 0 
L 3226 0 
L 3226 2144 
C 3430 2349 3610 2451 3770 2451 
C 4038 2451 4160 2310 4160 1850 
L 4160 0 
L 5101 0 
L 5101 1971 
C 5101 2765 4794 3251 4109 3251 
C 3686 3251 3392 3008 3110 2720 
C 2950 3059 2682 3251 2234 3251 
C 1818 3251 1536 3027 1274 2765 
L 1248 2765 
L 1184 3174 
L 416 3174 
L 416 0 
z
" transform="scale(0.015625)"/>
       <path id="SourceSansPro-Bold-29" d="M 896 -1146 
C 1434 -269 1741 653 1741 1779 
C 1741 2906 1434 3827 896 4704 
L 307 4461 
C 781 3629 986 2688 986 1779 
C 986 870 781 -70 307 -902 
L 896 -1146 
z
" transform="scale(0.015625)"/>
      </defs>
      <use xlink:href="#SourceSansPro-Bold-45"/>
      <use xlink:href="#SourceSansPro-Bold-6e" transform="translate(54.799988 0)"/>
      <use xlink:href="#SourceSansPro-Bold-65" transform="translate(111.999985 0)"/>
      <use xlink:href="#SourceSansPro-Bold-72" transform="translate(163.799973 0)"/>
      <use xlink:href="#SourceSansPro-Bold-67" transform="translate(203.59996 0)"/>
      <use xlink:href="#SourceSansPro-Bold-79" transform="translate(256.999954 0)"/>
      <use xlink:href="#SourceSansPro-Bold-20" transform="translate(309.099945 0)"/>
      <use xlink:href="#SourceSansPro-Bold-43" transform="translate(329.09993 0)"/>
      <use xlink:href="#SourceSansPro-Bold-6f" transform="translate(387.299927 0)"/>
      <use xlink:href="#SourceSansPro-Bold-73" transform="translate(442.799911 0)"/>
      <use xlink:href="#SourceSansPro-Bold-74" transform="translate(487.099899 0)"/>
      <use xlink:href="#SourceSansPro-Bold-20" transform="translate(525.399887 0)"/>
      <use xlink:href="#SourceSansPro-Bold-42" transform="translate(545.399872 0)"/>
      <use xlink:href="#SourceSansPro-Bold-75" transform="translate(605.899857 0)"/>
      <use xlink:href="#SourceSansPro-Bold-72" transform="translate(662.699844 0)"/>
      <use xlink:href="#SourceSansPro-Bold-64" transform="translate(702.499832 0)"/>
      <use xlink:href="#SourceSansPro-Bold-65" transform="translate(759.79982 0)"/>
      <use xlink:href="#SourceSansPro-Bold-6e" transform="translate(811.599808 0)"/>
      <use xlink:href="#SourceSansPro-Bold-20" transform="translate(868.799805 0)"/>
      <use xlink:href="#SourceSansPro-Bold-28" transform="translate(888.799789 0)"/>
      <use xlink:href="#SourceSansPro-Bold-25" transform="translate(923.199783 0)"/>
      <use xlink:href="#SourceSansPro-Bold-20" transform="translate(1008.899765 0)"/>
      <use xlink:href="#SourceSansPro-Bold-6f" transform="translate(1028.89975 0)"/>
      <use xlink:href="#SourceSansPro-Bold-66" transform="translate(1084.399734 0)"/>
      <use xlink:href="#SourceSansPro-Bold-20" transform="translate(1118.499725 0)"/>
      <use xlink:href="#SourceSansPro-Bold-49" transform="translate(1138.49971 0)"/>
      <use xlink:href="#SourceSansPro-Bold-6e" transform="translate(1168.599701 0)"/>
      <use xlink:href="#SourceSansPro-Bold-63" transform="translate(1225.799698 0)"/>
      <use xlink:href="#SourceSansPro-Bold-6f" transform="translate(1272.499695 0)"/>
      <use xlink:href="#SourceSansPro-Bold-6d" transform="translate(1327.99968 0)"/>
      <use xlink:href="#SourceSansPro-Bold-65" transform="translate(1413.699661 0)"/>
      <use xlink:href="#SourceSansPro-Bold-29" transform="translate(1465.499649 0)"/>
     </g>
    </g>
   </g>
   <g id="matplotlib.axis_2">
    <g id="ytick_1">
     <g id="line2d_14">
      <path d="M 36.903438 312.073437 
L 556.848437 312.073437 
" clip-path="url(#pc29780b613)" style="fill: none; stroke: #ffffff; stroke-opacity: 0.3; stroke-width: 0.8; stroke-linecap: round"/>
     </g>
     <g id="line2d_15"/>
     <g id="text_8">
      <!-- 0 -->
      <g style="fill: #262626" transform="translate(27.936094 315.989609) scale(0.11 -0.11)">
       <defs>
        <path id="SourceSansPro-Regular-30" d="M 1594 -77 
C 2406 -77 2899 685 2899 2054 
C 2899 3424 2406 4160 1594 4160 
C 774 4160 282 3424 282 2054 
C 282 685 774 -77 1594 -77 
z
M 1594 346 
C 1114 346 794 858 794 2054 
C 794 3251 1114 3738 1594 3738 
C 2067 3738 2387 3251 2387 2054 
C 2387 858 2067 346 1594 346 
z
" transform="scale(0.015625)"/>
       </defs>
       <use xlink:href="#SourceSansPro-Regular-30"/>
      </g>
     </g>
    </g>
    <g id="ytick_2">
     <g id="line2d_16">
      <path d="M 36.903438 275.029327 
L 556.848437 275.029327 
" clip-path="url(#pc29780b613)" style="fill: none; stroke: #ffffff; stroke-opacity: 0.3; stroke-width: 0.8; stroke-linecap: round"/>
     </g>
     <g id="line2d_17"/>
     <g id="text_9">
      <!-- 2 -->
      <g style="fill: #262626" transform="translate(27.936094 278.945499) scale(0.11 -0.11)">
       <use xlink:href="#SourceSansPro-Regular-32"/>
      </g>
     </g>
    </g>
    <g id="ytick_3">
     <g id="line2d_18">
      <path d="M 36.903438 237.985217 
L 556.848437 237.985217 
" clip-path="url(#pc29780b613)" style="fill: none; stroke: #ffffff; stroke-opacity: 0.3; stroke-width: 0.8; stroke-linecap: round"/>
     </g>
     <g id="line2d_19"/>
     <g id="text_10">
      <!-- 4 -->
      <g style="fill: #262626" transform="translate(27.936094 241.901389) scale(0.11 -0.11)">
       <defs>
        <path id="SourceSansPro-Regular-34" d="M 1946 0 
L 2445 0 
L 2445 1126 
L 3002 1126 
L 3002 1549 
L 2445 1549 
L 2445 4083 
L 1856 4083 
L 109 1472 
L 109 1126 
L 1946 1126 
L 1946 0 
z
M 666 1549 
L 1619 2944 
C 1734 3142 1850 3322 1952 3520 
L 1978 3520 
C 1965 3302 1946 2950 1946 2733 
L 1946 1549 
L 666 1549 
z
" transform="scale(0.015625)"/>
       </defs>
       <use xlink:href="#SourceSansPro-Regular-34"/>
      </g>
     </g>
    </g>
    <g id="ytick_4">
     <g id="line2d_20">
      <path d="M 36.903438 200.941107 
L 556.848437 200.941107 
" clip-path="url(#pc29780b613)" style="fill: none; stroke: #ffffff; stroke-opacity: 0.3; stroke-width: 0.8; stroke-linecap: round"/>
     </g>
     <g id="line2d_21"/>
     <g id="text_11">
      <!-- 6 -->
      <g style="fill: #262626" transform="translate(27.936094 204.857279) scale(0.11 -0.11)">
       <use xlink:href="#SourceSansPro-Regular-36"/>
      </g>
     </g>
    </g>
    <g id="ytick_5">
     <g id="line2d_22">
      <path d="M 36.903438 163.896997 
L 556.848437 163.896997 
" clip-path="url(#pc29780b613)" style="fill: none; stroke: #ffffff; stroke-opacity: 0.3; stroke-width: 0.8; stroke-linecap: round"/>
     </g>
     <g id="line2d_23"/>
     <g id="text_12">
      <!-- 8 -->
      <g style="fill: #262626" transform="translate(27.936094 167.813169) scale(0.11 -0.11)">
       <defs>
        <path id="SourceSansPro-Regular-38" d="M 1600 -77 
C 2394 -77 2918 403 2918 1011 
C 2918 1562 2573 1850 2208 2061 
L 2208 2086 
C 2458 2278 2771 2643 2771 3072 
C 2771 3706 2330 4160 1619 4160 
C 960 4160 461 3738 461 3110 
C 461 2682 730 2381 1030 2170 
L 1030 2144 
C 646 1939 262 1574 262 1043 
C 262 397 832 -77 1600 -77 
z
M 1888 2227 
C 1395 2419 947 2624 947 3110 
C 947 3507 1229 3770 1606 3770 
C 2054 3770 2317 3450 2317 3046 
C 2317 2746 2163 2470 1888 2227 
z
M 1613 314 
C 1114 314 736 640 736 1094 
C 736 1466 979 1766 1306 1984 
C 1894 1747 2413 1555 2413 1030 
C 2413 608 2086 314 1613 314 
z
" transform="scale(0.015625)"/>
       </defs>
       <use xlink:href="#SourceSansPro-Regular-38"/>
      </g>
     </g>
    </g>
    <g id="ytick_6">
     <g id="line2d_24">
      <path d="M 36.903438 126.852887 
L 556.848437 126.852887 
" clip-path="url(#pc29780b613)" style="fill: none; stroke: #ffffff; stroke-opacity: 0.3; stroke-width: 0.8; stroke-linecap: round"/>
     </g>
     <g id="line2d_25"/>
     <g id="text_13">
      <!-- 10 -->
      <g style="fill: #262626" transform="translate(22.46875 130.769059) scale(0.11 -0.11)">
       <use xlink:href="#SourceSansPro-Regular-31"/>
       <use xlink:href="#SourceSansPro-Regular-30" transform="translate(49.699997 0)"/>
      </g>
     </g>
    </g>
    <g id="ytick_7">
     <g id="line2d_26">
      <path d="M 36.903438 89.808777 
L 556.848437 89.808777 
" clip-path="url(#pc29780b613)" style="fill: none; stroke: #ffffff; stroke-opacity: 0.3; stroke-width: 0.8; stroke-linecap: round"/>
     </g>
     <g id="line2d_27"/>
     <g id="text_14">
      <!-- 12 -->
      <g style="fill: #262626" transform="translate(22.46875 93.724949) scale(0.11 -0.11)">
       <use xlink:href="#SourceSansPro-Regular-31"/>
       <use xlink:href="#SourceSansPro-Regular-32" transform="translate(49.699997 0)"/>
      </g>
     </g>
    </g>
    <g id="ytick_8">
     <g id="line2d_28">
      <path d="M 36.903438 52.764667 
L 556.848437 52.764667 
" clip-path="url(#pc29780b613)" style="fill: none; stroke: #ffffff; stroke-opacity: 0.3; stroke-width: 0.8; stroke-linecap: round"/>
     </g>
     <g id="line2d_29"/>
     <g id="text_15">
      <!-- 14 -->
      <g style="fill: #262626" transform="translate(22.46875 56.680839) scale(0.11 -0.11)">
       <use xlink:href="#SourceSansPro-Regular-31"/>
       <use xlink:href="#SourceSansPro-Regular-34" transform="translate(49.699997 0)"/>
      </g>
     </g>
    </g>
    <g id="text_16">
     <!-- Total Affordability Gap (Billions $) -->
     <g style="fill: #275258" transform="translate(16.14 262.084062) rotate(-90) scale(0.12 -0.12)">
      <defs>
       <path id="SourceSansPro-Bold-54" d="M 1306 0 
L 2253 0 
L 2253 3379 
L 3398 3379 
L 3398 4173 
L 160 4173 
L 160 3379 
L 1306 3379 
L 1306 0 
z
" transform="scale(0.015625)"/>
       <path id="SourceSansPro-Bold-61" d="M 1216 -77 
C 1574 -77 1869 90 2138 326 
L 2163 326 
L 2227 0 
L 2995 0 
L 2995 1818 
C 2995 2790 2547 3251 1734 3251 
C 1235 3251 781 3078 378 2835 
L 717 2214 
C 1024 2394 1286 2502 1555 2502 
C 1901 2502 2035 2323 2054 2042 
C 800 1914 269 1549 269 883 
C 269 346 634 -77 1216 -77 
z
M 1536 653 
C 1312 653 1171 749 1171 954 
C 1171 1197 1389 1389 2054 1478 
L 2054 922 
C 1888 755 1747 653 1536 653 
z
" transform="scale(0.015625)"/>
       <path id="SourceSansPro-Bold-6c" d="M 1280 -77 
C 1491 -77 1651 -45 1754 0 
L 1638 698 
C 1587 685 1562 685 1523 685 
C 1446 685 1357 749 1357 947 
L 1357 4486 
L 416 4486 
L 416 986 
C 416 346 634 -77 1280 -77 
z
" transform="scale(0.015625)"/>
       <path id="SourceSansPro-Bold-41" d="M 1472 2112 
C 1587 2528 1696 3014 1798 3456 
L 1824 3456 
C 1933 3021 2048 2528 2163 2112 
L 2259 1728 
L 1370 1728 
L 1472 2112 
z
M -38 0 
L 922 0 
L 1178 992 
L 2451 992 
L 2707 0 
L 3706 0 
L 2400 4173 
L 1267 4173 
L -38 0 
z
" transform="scale(0.015625)"/>
       <path id="SourceSansPro-Bold-62" d="M 2080 -77 
C 2765 -77 3418 550 3418 1645 
C 3418 2618 2938 3251 2170 3251 
C 1875 3251 1574 3117 1331 2899 
L 1357 3386 
L 1357 4486 
L 416 4486 
L 416 0 
L 1152 0 
L 1229 339 
L 1254 339 
C 1504 64 1798 -77 2080 -77 
z
M 1862 691 
C 1702 691 1523 742 1357 896 
L 1357 2195 
C 1536 2394 1709 2483 1901 2483 
C 2278 2483 2451 2195 2451 1626 
C 2451 973 2189 691 1862 691 
z
" transform="scale(0.015625)"/>
       <path id="SourceSansPro-Bold-69" d="M 416 0 
L 1357 0 
L 1357 3174 
L 416 3174 
L 416 0 
z
M 883 3642 
C 1203 3642 1427 3846 1427 4134 
C 1427 4422 1203 4621 883 4621 
C 570 4621 339 4422 339 4134 
C 339 3846 570 3642 883 3642 
z
" transform="scale(0.015625)"/>
       <path id="SourceSansPro-Bold-47" d="M 2336 -77 
C 2918 -77 3424 147 3712 429 
L 3712 2349 
L 2189 2349 
L 2189 1581 
L 2880 1581 
L 2880 864 
C 2778 781 2605 736 2432 736 
C 1651 736 1261 1235 1261 2093 
C 1261 2931 1715 3437 2362 3437 
C 2720 3437 2938 3290 3149 3104 
L 3642 3706 
C 3366 3987 2931 4250 2330 4250 
C 1216 4250 294 3443 294 2061 
C 294 659 1190 -77 2336 -77 
z
" transform="scale(0.015625)"/>
       <path id="SourceSansPro-Bold-70" d="M 416 -1178 
L 1357 -1178 
L 1357 -250 
L 1325 256 
C 1549 45 1805 -77 2080 -77 
C 2765 -77 3418 550 3418 1638 
C 3418 2618 2944 3251 2176 3251 
C 1843 3251 1523 3085 1274 2861 
L 1248 2861 
L 1184 3174 
L 416 3174 
L 416 -1178 
z
M 1862 691 
C 1702 691 1523 742 1357 896 
L 1357 2195 
C 1542 2394 1709 2483 1901 2483 
C 2278 2483 2451 2195 2451 1626 
C 2451 973 2189 691 1862 691 
z
" transform="scale(0.015625)"/>
       <path id="SourceSansPro-Bold-24" d="M 1376 -704 
L 1997 -704 
L 1997 -38 
C 2656 102 2995 576 2995 1190 
C 2995 2413 1306 2362 1306 2970 
C 1306 3258 1472 3379 1779 3379 
C 2048 3379 2246 3270 2477 3059 
L 2950 3597 
C 2701 3859 2406 4064 1997 4122 
L 1997 4768 
L 1376 4768 
L 1376 4109 
C 774 3987 403 3552 403 2925 
C 403 1773 2093 1786 2093 1126 
C 2093 832 1933 685 1574 685 
C 1267 685 986 813 659 1056 
L 250 422 
C 550 147 998 -19 1376 -64 
L 1376 -704 
z
" transform="scale(0.015625)"/>
      </defs>
      <use xlink:href="#SourceSansPro-Bold-54"/>
      <use xlink:href="#SourceSansPro-Bold-6f" transform="translate(55.599991 0)"/>
      <use xlink:href="#SourceSansPro-Bold-74" transform="translate(111.099976 0)"/>
      <use xlink:href="#SourceSansPro-Bold-61" transform="translate(149.399963 0)"/>
      <use xlink:href="#SourceSansPro-Bold-6c" transform="translate(202.09996 0)"/>
      <use xlink:href="#SourceSansPro-Bold-20" transform="translate(230.699951 0)"/>
      <use xlink:href="#SourceSansPro-Bold-41" transform="translate(250.699936 0)"/>
      <use xlink:href="#SourceSansPro-Bold-66" transform="translate(307.999924 0)"/>
      <use xlink:href="#SourceSansPro-Bold-66" transform="translate(342.099915 0)"/>
      <use xlink:href="#SourceSansPro-Bold-6f" transform="translate(376.199905 0)"/>
      <use xlink:href="#SourceSansPro-Bold-72" transform="translate(431.69989 0)"/>
      <use xlink:href="#SourceSansPro-Bold-64" transform="translate(471.499878 0)"/>
      <use xlink:href="#SourceSansPro-Bold-61" transform="translate(528.799866 0)"/>
      <use xlink:href="#SourceSansPro-Bold-62" transform="translate(581.499863 0)"/>
      <use xlink:href="#SourceSansPro-Bold-69" transform="translate(638.79985 0)"/>
      <use xlink:href="#SourceSansPro-Bold-6c" transform="translate(666.399841 0)"/>
      <use xlink:href="#SourceSansPro-Bold-69" transform="translate(694.999832 0)"/>
      <use xlink:href="#SourceSansPro-Bold-74" transform="translate(722.599823 0)"/>
      <use xlink:href="#SourceSansPro-Bold-79" transform="translate(760.899811 0)"/>
      <use xlink:href="#SourceSansPro-Bold-20" transform="translate(812.999802 0)"/>
      <use xlink:href="#SourceSansPro-Bold-47" transform="translate(832.999786 0)"/>
      <use xlink:href="#SourceSansPro-Bold-61" transform="translate(896.799774 0)"/>
      <use xlink:href="#SourceSansPro-Bold-70" transform="translate(949.499771 0)"/>
      <use xlink:href="#SourceSansPro-Bold-20" transform="translate(1006.799759 0)"/>
      <use xlink:href="#SourceSansPro-Bold-28" transform="translate(1026.799744 0)"/>
      <use xlink:href="#SourceSansPro-Bold-42" transform="translate(1061.199738 0)"/>
      <use xlink:href="#SourceSansPro-Bold-69" transform="translate(1121.699722 0)"/>
      <use xlink:href="#SourceSansPro-Bold-6c" transform="translate(1149.299713 0)"/>
      <use xlink:href="#SourceSansPro-Bold-6c" transform="translate(1177.899704 0)"/>
      <use xlink:href="#SourceSansPro-Bold-69" transform="translate(1206.499695 0)"/>
      <use xlink:href="#SourceSansPro-Bold-6f" transform="translate(1234.099686 0)"/>
      <use xlink:href="#SourceSansPro-Bold-6e" transform="translate(1289.59967 0)"/>
      <use xlink:href="#SourceSansPro-Bold-73" transform="translate(1346.799667 0)"/>
      <use xlink:href="#SourceSansPro-Bold-20" transform="translate(1391.099655 0)"/>
      <use xlink:href="#SourceSansPro-Bold-24" transform="translate(1411.09964 0)"/>
      <use xlink:href="#SourceSansPro-Bold-29" transform="translate(1463.899628 0)"/>
     </g>
    </g>
   </g>
   <g id="patch_3">
    <path d="M 60.537301 312.073437 
L 125.734166 312.073437 
L 125.734166 312.073437 
L 60.537301 312.073437 
z
" clip-path="url(#pc29780b613)" style="fill: #6b7280; opacity: 0.85; stroke: #252728; stroke-width: 1.5; stroke-linejoin: miter"/>
   </g>
   <g id="patch_4">
    <path d="M 142.033383 312.073437 
L 207.230248 312.073437 
L 207.230248 312.072859 
L 142.033383 312.072859 
z
" clip-path="url(#pc29780b613)" style="fill: #6b7280; opacity: 0.85; stroke: #252728; stroke-width: 1.5; stroke-linejoin: miter"/>
   </g>
   <g id="patch_5">
    <path d="M 223.529464 312.073437 
L 288.726329 312.073437 
L 288.726329 219.273972 
L 223.529464 219.273972 
z
" clip-path="url(#pc29780b613)" style="fill: #fb923c; opacity: 0.85; stroke: #252728; stroke-width: 1.5; stroke-linejoin: miter"/>
   </g>
   <g id="patch_6">
    <path d="M 305.025546 312.073437 
L 370.222411 312.073437 
L 370.222411 203.951107 
L 305.025546 203.951107 
z
" clip-path="url(#pc29780b613)" style="fill: #fb923c; opacity: 0.85; stroke: #252728; stroke-width: 1.5; stroke-linejoin: miter"/>
   </g>
   <g id="patch_7">
    <path d="M 386.521627 312.073437 
L 451.718492 312.073437 
L 451.718492 232.75766 
L 386.521627 232.75766 
z
" clip-path="url(#pc29780b613)" style="fill: #fb923c; opacity: 0.85; stroke: #252728; stroke-width: 1.5; stroke-linejoin: miter"/>
   </g>
   <g id="patch_8">
    <path d="M 468.017709 312.073437 
L 533.214574 312.073437 
L 533.214574 45.63058 
L 468.017709 45.63058 
z
" clip-path="url(#pc29780b613)" style="fill: #fb923c; opacity: 0.85; stroke: #252728; stroke-width: 1.5; stroke-linejoin: miter"/>
   </g>
   <g id="patch_9">
    <path d="M 36.903438 312.073437 
L 36.903438 32.308437 
" style="fill: none"/>
   </g>
   <g id="patch_10">
    <path d="M 556.848437 312.073437 
L 556.848437 32.308437 
" style="fill: none"/>
   </g>
   <g id="patch_11">
    <path d="M 36.903438 312.073437 
L 556.848437 312.073437 
" style="fill: none"/>
   </g>
   <g id="patch_12">
    <path d="M 36.903438 32.308437 
L 556.848437 32.308437 
" style="fill: none"/>
   </g>
   <g id="text_17">
    <!-- $5.0B -->
    <g style="fill: #275258" transform="translate(243.683365 208.172319) scale(0.1 -0.1)">
     <defs>
      <path id="SourceSansPro-Bold-35" d="M 1581 -77 
C 2374 -77 3072 442 3072 1344 
C 3072 2208 2477 2605 1779 2605 
C 1613 2605 1478 2579 1325 2509 
L 1395 3270 
L 2886 3270 
L 2886 4064 
L 582 4064 
L 467 2010 
L 890 1741 
C 1133 1894 1254 1946 1491 1946 
C 1869 1946 2131 1728 2131 1318 
C 2131 902 1862 685 1446 685 
C 1101 685 813 864 570 1088 
L 147 493 
C 467 173 915 -77 1581 -77 
z
" transform="scale(0.015625)"/>
      <path id="SourceSansPro-Bold-2e" d="M 960 -77 
C 1286 -77 1530 179 1530 512 
C 1530 851 1286 1107 960 1107 
C 634 1107 390 851 390 512 
C 390 179 634 -77 960 -77 
z
" transform="scale(0.015625)"/>
      <path id="SourceSansPro-Bold-30" d="M 1690 -77 
C 2560 -77 3142 666 3142 2048 
C 3142 3430 2560 4141 1690 4141 
C 819 4141 237 3430 237 2048 
C 237 666 819 -77 1690 -77 
z
M 1690 653 
C 1376 653 1126 941 1126 2048 
C 1126 3162 1376 3411 1690 3411 
C 2010 3411 2253 3162 2253 2048 
C 2253 941 2010 653 1690 653 
z
" transform="scale(0.015625)"/>
     </defs>
     <use xlink:href="#SourceSansPro-Bold-24"/>
     <use xlink:href="#SourceSansPro-Bold-35" transform="translate(52.799988 0)"/>
     <use xlink:href="#SourceSansPro-Bold-2e" transform="translate(105.599976 0)"/>
     <use xlink:href="#SourceSansPro-Bold-30" transform="translate(135.59996 0)"/>
     <use xlink:href="#SourceSansPro-Bold-42" transform="translate(188.399948 0)"/>
    </g>
   </g>
   <g id="text_18">
    <!-- $5.8B -->
    <g style="fill: #275258" transform="translate(325.179447 192.849455) scale(0.1 -0.1)">
     <defs>
      <path id="SourceSansPro-Bold-38" d="M 1683 -77 
C 2547 -77 3123 410 3123 1050 
C 3123 1587 2810 1901 2419 2112 
L 2419 2138 
C 2701 2323 2950 2637 2950 3027 
C 2950 3699 2458 4141 1715 4141 
C 960 4141 416 3712 416 3021 
C 416 2592 646 2298 960 2061 
L 960 2035 
C 576 1830 269 1530 269 1037 
C 269 378 870 -77 1683 -77 
z
M 1939 2368 
C 1523 2528 1242 2688 1242 3021 
C 1242 3334 1446 3488 1696 3488 
C 2003 3488 2189 3277 2189 2963 
C 2189 2752 2099 2554 1939 2368 
z
M 1702 576 
C 1363 576 1075 787 1075 1146 
C 1075 1395 1210 1626 1389 1792 
C 1901 1574 2246 1440 2246 1082 
C 2246 742 2016 576 1702 576 
z
" transform="scale(0.015625)"/>
     </defs>
     <use xlink:href="#SourceSansPro-Bold-24"/>
     <use xlink:href="#SourceSansPro-Bold-35" transform="translate(52.799988 0)"/>
     <use xlink:href="#SourceSansPro-Bold-2e" transform="translate(105.599976 0)"/>
     <use xlink:href="#SourceSansPro-Bold-38" transform="translate(135.59996 0)"/>
     <use xlink:href="#SourceSansPro-Bold-42" transform="translate(188.399948 0)"/>
    </g>
   </g>
   <g id="text_19">
    <!-- $4.3B -->
    <g style="fill: #275258" transform="translate(406.675529 221.656008) scale(0.1 -0.1)">
     <defs>
      <path id="SourceSansPro-Bold-34" d="M 1882 0 
L 2758 0 
L 2758 973 
L 3226 973 
L 3226 1690 
L 2758 1690 
L 2758 4064 
L 1606 4064 
L 122 1619 
L 122 973 
L 1882 973 
L 1882 0 
z
M 1024 1690 
L 1562 2573 
C 1677 2803 1792 3034 1894 3258 
L 1920 3258 
C 1907 3002 1882 2611 1882 2349 
L 1882 1690 
L 1024 1690 
z
" transform="scale(0.015625)"/>
      <path id="SourceSansPro-Bold-33" d="M 1555 -77 
C 2374 -77 3066 352 3066 1107 
C 3066 1632 2726 1965 2259 2099 
L 2259 2125 
C 2694 2310 2938 2605 2938 3027 
C 2938 3738 2374 4141 1536 4141 
C 1037 4141 627 3942 256 3622 
L 730 3046 
C 986 3270 1203 3405 1491 3405 
C 1811 3405 1990 3238 1990 2957 
C 1990 2630 1760 2413 1030 2413 
L 1030 1747 
C 1914 1747 2125 1523 2125 1165 
C 2125 858 1862 685 1466 685 
C 1120 685 819 858 576 1094 
L 141 499 
C 435 154 896 -77 1555 -77 
z
" transform="scale(0.015625)"/>
     </defs>
     <use xlink:href="#SourceSansPro-Bold-24"/>
     <use xlink:href="#SourceSansPro-Bold-34" transform="translate(52.799988 0)"/>
     <use xlink:href="#SourceSansPro-Bold-2e" transform="translate(105.599976 0)"/>
     <use xlink:href="#SourceSansPro-Bold-33" transform="translate(135.59996 0)"/>
     <use xlink:href="#SourceSansPro-Bold-42" transform="translate(188.399948 0)"/>
    </g>
   </g>
   <g id="text_20">
    <!-- $14.4B -->
    <g style="fill: #275258" transform="translate(485.531766 34.528928) scale(0.1 -0.1)">
     <defs>
      <path id="SourceSansPro-Bold-31" d="M 448 0 
L 3034 0 
L 3034 762 
L 2272 762 
L 2272 4064 
L 1581 4064 
C 1293 3891 1011 3776 570 3693 
L 570 3110 
L 1331 3110 
L 1331 762 
L 448 762 
L 448 0 
z
" transform="scale(0.015625)"/>
     </defs>
     <use xlink:href="#SourceSansPro-Bold-24"/>
     <use xlink:href="#SourceSansPro-Bold-31" transform="translate(52.799988 0)"/>
     <use xlink:href="#SourceSansPro-Bold-34" transform="translate(105.599976 0)"/>
     <use xlink:href="#SourceSansPro-Bold-2e" transform="translate(158.399963 0)"/>
     <use xlink:href="#SourceSansPro-Bold-34" transform="translate(188.399948 0)"/>
     <use xlink:href="#SourceSansPro-Bold-42" transform="translate(241.199936 0)"/>
    </g>
   </g>
   <g id="text_21">
    <!-- Energy Affordability Gap by Burden Level -->
    <g style="fill: #275258" transform="translate(169.881719 17.308437) scale(0.14 -0.14)">
     <defs>
      <path id="SourceSansPro-Bold-4c" d="M 493 0 
L 3085 0 
L 3085 794 
L 1434 794 
L 1434 4173 
L 493 4173 
L 493 0 
z
" transform="scale(0.015625)"/>
      <path id="SourceSansPro-Bold-76" d="M 1146 0 
L 2234 0 
L 3270 3174 
L 2368 3174 
L 1952 1677 
C 1869 1363 1786 1030 1709 698 
L 1683 698 
C 1600 1030 1517 1363 1434 1677 
L 1024 3174 
L 77 3174 
L 1146 0 
z
" transform="scale(0.015625)"/>
     </defs>
     <use xlink:href="#SourceSansPro-Bold-45"/>
     <use xlink:href="#SourceSansPro-Bold-6e" transform="translate(54.799988 0)"/>
     <use xlink:href="#SourceSansPro-Bold-65" transform="translate(111.999985 0)"/>
     <use xlink:href="#SourceSansPro-Bold-72" transform="translate(163.799973 0)"/>
     <use xlink:href="#SourceSansPro-Bold-67" transform="translate(203.59996 0)"/>
     <use xlink:href="#SourceSansPro-Bold-79" transform="translate(256.999954 0)"/>
     <use xlink:href="#SourceSansPro-Bold-20" transform="translate(309.099945 0)"/>
     <use xlink:href="#SourceSansPro-Bold-41" transform="translate(329.09993 0)"/>
     <use xlink:href="#SourceSansPro-Bold-66" transform="translate(386.399918 0)"/>
     <use xlink:href="#SourceSansPro-Bold-66" transform="translate(420.499908 0)"/>
     <use xlink:href="#SourceSansPro-Bold-6f" transform="translate(454.599899 0)"/>
     <use xlink:href="#SourceSansPro-Bold-72" transform="translate(510.099884 0)"/>
     <use xlink:href="#SourceSansPro-Bold-64" transform="translate(549.899872 0)"/>
     <use xlink:href="#SourceSansPro-Bold-61" transform="translate(607.19986 0)"/>
     <use xlink:href="#SourceSansPro-Bold-62" transform="translate(659.899857 0)"/>
     <use xlink:href="#SourceSansPro-Bold-69" transform="translate(717.199844 0)"/>
     <use xlink:href="#SourceSansPro-Bold-6c" transform="translate(744.799835 0)"/>
     <use xlink:href="#SourceSansPro-Bold-69" transform="translate(773.399826 0)"/>
     <use xlink:href="#SourceSansPro-Bold-74" transform="translate(800.999817 0)"/>
     <use xlink:href="#SourceSansPro-Bold-79" transform="translate(839.299805 0)"/>
     <use xlink:href="#SourceSansPro-Bold-20" transform="translate(891.399796 0)"/>
     <use xlink:href="#SourceSansPro-Bold-47" transform="translate(911.39978 0)"/>
     <use xlink:href="#SourceSansPro-Bold-61" transform="translate(975.199768 0)"/>
     <use xlink:href="#SourceSansPro-Bold-70" transform="translate(1027.899765 0)"/>
     <use xlink:href="#SourceSansPro-Bold-20" transform="translate(1085.199753 0)"/>
     <use xlink:href="#SourceSansPro-Bold-62" transform="translate(1105.199738 0)"/>
     <use xlink:href="#SourceSansPro-Bold-79" transform="translate(1162.499725 0)"/>
     <use xlink:href="#SourceSansPro-Bold-20" transform="translate(1214.599716 0)"/>
     <use xlink:href="#SourceSansPro-Bold-42" transform="translate(1234.599701 0)"/>
     <use xlink:href="#SourceSansPro-Bold-75" transform="translate(1295.099686 0)"/>
     <use xlink:href="#SourceSansPro-Bold-72" transform="translate(1351.899673 0)"/>
     <use xlink:href="#SourceSansPro-Bold-64" transform="translate(1391.699661 0)"/>
     <use xlink:href="#SourceSansPro-Bold-65" transform="translate(1448.999649 0)"/>
     <use xlink:href="#SourceSansPro-Bold-6e" transform="translate(1500.799637 0)"/>
     <use xlink:href="#SourceSansPro-Bold-20" transform="translate(1557.999634 0)"/>
     <use xlink:href="#SourceSansPro-Bold-4c" transform="translate(1577.999619 0)"/>
     <use xlink:href="#SourceSansPro-Bold-65" transform="translate(1629.799606 0)"/>
     <use xlink:href="#SourceSansPro-Bold-76" transform="translate(1681.599594 0)"/>
     <use xlink:href="#SourceSansPro-Bold-65" transform="translate(1733.899582 0)"/>
     <use xlink:href="#SourceSansPro-Bold-6c" transform="translate(1785.69957 0)"/>
    </g>
   </g>
   <g id="legend_1">
    <g id="patch_13">
     <path d="M 46.603438 58.695781 
L 145.154844 58.695781 
Q 147.354844 58.695781 147.354844 56.495781 
L 147.354844 42.008438 
Q 147.354844 39.808438 145.154844 39.808438 
L 46.603438 39.808438 
Q 44.403438 39.808438 44.403438 42.008438 
L 44.403438 56.495781 
Q 44.403438 58.695781 46.603438 58.695781 
z
" style="fill: #464649; opacity: 0.5; stroke: #464649; stroke-linejoin: miter"/>
    </g>
    <g id="patch_14">
     <path d="M 44.603438 56.695781 
L 143.154844 56.695781 
Q 145.354844 56.695781 145.354844 54.495781 
L 145.354844 40.008438 
Q 145.354844 37.808438 143.154844 37.808438 
L 44.603438 37.808438 
Q 42.403438 37.808438 42.403438 40.008438 
L 42.403438 54.495781 
Q 42.403438 56.695781 44.603438 56.695781 
z
" style="fill: #eaeaf2; stroke: #cccccc; stroke-linejoin: miter"/>
    </g>
    <g id="line2d_30">
     <path d="M 46.803438 46.190781 
L 57.803438 46.190781 
L 68.803438 46.190781 
" style="fill: none; stroke-dasharray: 9.25,4; stroke-dashoffset: 0; stroke: #ff0000; stroke-opacity: 0.8; stroke-width: 2.5"/>
    </g>
    <g id="text_22">
     <!-- 6% Threshold -->
     <g style="fill: #262626" transform="translate(77.603438 50.040781) scale(0.11 -0.11)">
      <defs>
       <path id="SourceSansPro-Regular-20" transform="scale(0.015625)"/>
       <path id="SourceSansPro-Regular-54" d="M 1446 0 
L 1984 0 
L 1984 3750 
L 3251 3750 
L 3251 4198 
L 179 4198 
L 179 3750 
L 1446 3750 
L 1446 0 
z
" transform="scale(0.015625)"/>
       <path id="SourceSansPro-Regular-68" d="M 525 0 
L 1050 0 
L 1050 2253 
C 1363 2566 1581 2733 1901 2733 
C 2310 2733 2490 2483 2490 1901 
L 2490 0 
L 3014 0 
L 3014 1971 
C 3014 2765 2720 3187 2067 3187 
C 1638 3187 1325 2957 1030 2675 
L 1050 3315 
L 1050 4557 
L 525 4557 
L 525 0 
z
" transform="scale(0.015625)"/>
       <path id="SourceSansPro-Regular-72" d="M 525 0 
L 1050 0 
L 1050 1997 
C 1261 2522 1574 2714 1837 2714 
C 1965 2714 2035 2694 2138 2662 
L 2240 3123 
C 2138 3168 2042 3187 1907 3187 
C 1555 3187 1235 2938 1024 2547 
L 1005 2547 
L 960 3110 
L 525 3110 
L 525 0 
z
" transform="scale(0.015625)"/>
       <path id="SourceSansPro-Regular-65" d="M 1786 -77 
C 2208 -77 2541 70 2810 243 
L 2624 589 
C 2394 442 2144 346 1850 346 
C 1254 346 851 768 813 1427 
L 2912 1427 
C 2925 1504 2931 1619 2931 1728 
C 2931 2618 2483 3187 1690 3187 
C 979 3187 294 2566 294 1549 
C 294 531 954 -77 1786 -77 
z
M 806 1805 
C 870 2419 1267 2771 1702 2771 
C 2189 2771 2470 2432 2470 1805 
L 806 1805 
z
" transform="scale(0.015625)"/>
       <path id="SourceSansPro-Regular-73" d="M 1338 -77 
C 2074 -77 2477 346 2477 851 
C 2477 1440 1978 1626 1530 1792 
C 1178 1926 838 2035 838 2330 
C 838 2566 1018 2778 1408 2778 
C 1683 2778 1907 2662 2118 2502 
L 2368 2835 
C 2131 3027 1792 3187 1402 3187 
C 730 3187 333 2803 333 2304 
C 333 1779 819 1568 1261 1408 
C 1600 1280 1971 1139 1971 819 
C 1971 550 1766 333 1357 333 
C 986 333 710 486 442 704 
L 179 352 
C 474 109 896 -77 1338 -77 
z
" transform="scale(0.015625)"/>
       <path id="SourceSansPro-Regular-6f" d="M 1734 -77 
C 2496 -77 3174 518 3174 1549 
C 3174 2592 2496 3187 1734 3187 
C 973 3187 294 2592 294 1549 
C 294 518 973 -77 1734 -77 
z
M 1734 358 
C 1203 358 838 838 838 1549 
C 838 2266 1203 2752 1734 2752 
C 2272 2752 2630 2266 2630 1549 
C 2630 838 2272 358 1734 358 
z
" transform="scale(0.015625)"/>
       <path id="SourceSansPro-Regular-6c" d="M 1082 -77 
C 1222 -77 1312 -58 1382 -26 
L 1312 371 
C 1254 358 1229 358 1197 358 
C 1120 358 1050 422 1050 589 
L 1050 4557 
L 525 4557 
L 525 627 
C 525 173 685 -77 1082 -77 
z
" transform="scale(0.015625)"/>
       <path id="SourceSansPro-Regular-64" d="M 1587 -77 
C 1952 -77 2285 128 2528 365 
L 2547 365 
L 2592 0 
L 3027 0 
L 3027 4557 
L 2496 4557 
L 2496 3360 
L 2522 2829 
C 2246 3053 2010 3187 1651 3187 
C 941 3187 301 2560 301 1549 
C 301 512 806 -77 1587 -77 
z
M 1702 365 
C 1158 365 845 813 845 1555 
C 845 2266 1242 2746 1741 2746 
C 1997 2746 2234 2656 2496 2419 
L 2496 794 
C 2240 506 1990 365 1702 365 
z
" transform="scale(0.015625)"/>
      </defs>
      <use xlink:href="#SourceSansPro-Regular-36"/>
      <use xlink:href="#SourceSansPro-Regular-25" transform="translate(49.699997 0)"/>
      <use xlink:href="#SourceSansPro-Regular-20" transform="translate(132.099991 0)"/>
      <use xlink:href="#SourceSansPro-Regular-54" transform="translate(152.099976 0)"/>
      <use xlink:href="#SourceSansPro-Regular-68" transform="translate(205.699966 0)"/>
      <use xlink:href="#SourceSansPro-Regular-72" transform="translate(260.09996 0)"/>
      <use xlink:href="#SourceSansPro-Regular-65" transform="translate(294.799957 0)"/>
      <use xlink:href="#SourceSansPro-Regular-73" transform="translate(344.399948 0)"/>
      <use xlink:href="#SourceSansPro-Regular-68" transform="translate(386.299942 0)"/>
      <use xlink:href="#SourceSansPro-Regular-6f" transform="translate(440.699936 0)"/>
      <use xlink:href="#SourceSansPro-Regular-6c" transform="translate(494.899933 0)"/>
      <use xlink:href="#SourceSansPro-Regular-64" transform="translate(520.399918 0)"/>
     </g>
    </g>
   </g>
  </g>
 </g>
 <defs>
  <clipPath id="pc29780b613">
   <rect x="36.903438" y="32.308437" width="519.945" height="279.765"/>
  </clipPath>
 </defs>
</svg>
