<?xml version="1.0" encoding="utf-8" standalone="no"?>
<!DOCTYPE svg PUBLIC "-//W3C//DTD SVG 1.1//EN"
  "http://www.w3.org/Graphics/SVG/1.1/DTD/svg11.dtd">
<svg xmlns:xlink="http://www.w3.org/1999/xlink" width="564.48pt" height="420.136875pt" viewBox="0 0 564.48 420.136875" xmlns="http://www.w3.org/2000/svg" version="1.1">
 <metadata>
  <rdf:RDF xmlns:dc="http://purl.org/dc/elements/1.1/" xmlns:cc="http://creativecommons.org/ns#" xmlns:rdf="http://www.w3.org/1999/02/22-rdf-syntax-ns#">
   <cc:Work>
    <dc:type rdf:resource="http://purl.org/dc/dcmitype/StillImage"/>
    <dc:date>2025-10-08T12:44:11.556782</dc:date>
    <dc:format>image/svg+xml</dc:format>
    <dc:creator>
     <cc:Agent>
      <dc:title>Matplotlib v3.9.2, https://matplotlib.org/</dc:title>
     </cc:Agent>
    </dc:creator>
   </cc:Work>
  </rdf:RDF>
 </metadata>
 <defs>
  <style type="text/css">*{stroke-linejoin: round; stroke-linecap: butt}</style>
 </defs>
 <g id="figure_1">
  <g id="patch_1">
   <path d="M 0 420.136875 
L 564.48 420.136875 
L 564.48 0 
L 0 0 
L 0 420.136875 
z
" style="fill: none"/>
  </g>
  <g id="axes_1">
   <g id="text_1">
    <g id="patch_2">
     <path d="M 200.96875 300.186875 
L 363.51125 300.186875 
Q 379.51125 300.186875 379.51125 284.186875 
L 379.51125 168.726875 
Q 379.51125 152.726875 363.51125 152.726875 
L 200.96875 152.726875 
Q 184.96875 152.726875 184.96875 168.726875 
L 184.96875 284.186875 
Q 184.96875 300.186875 200.96875 300.186875 
z
" style="fill: #e8f0f1; stroke: #275258; stroke-width: 2; stroke-linejoin: miter"/>
    </g>
    <!-- PLACEHOLDER: -->
    <g style="fill: #275258" transform="translate(227.92875 179.781875) scale(0.16 -0.16)">
     <defs>
      <path id="SourceSansPro-Bold-50" d="M 493 0 
L 1434 0 
L 1434 1414 
L 1952 1414 
C 2835 1414 3584 1850 3584 2829 
C 3584 3840 2842 4173 1926 4173 
L 493 4173 
L 493 0 
z
M 1434 2163 
L 1434 3424 
L 1869 3424 
C 2381 3424 2662 3264 2662 2829 
C 2662 2394 2413 2163 1894 2163 
L 1434 2163 
z
" transform="scale(0.015625)"/>
      <path id="SourceSansPro-Bold-4c" d="M 493 0 
L 3085 0 
L 3085 794 
L 1434 794 
L 1434 4173 
L 493 4173 
L 493 0 
z
" transform="scale(0.015625)"/>
      <path id="SourceSansPro-Bold-41" d="M 1472 2112 
C 1587 2528 1696 3014 1798 3456 
L 1824 3456 
C 1933 3021 2048 2528 2163 2112 
L 2259 1728 
L 1370 1728 
L 1472 2112 
z
M -38 0 
L 922 0 
L 1178 992 
L 2451 992 
L 2707 0 
L 3706 0 
L 2400 4173 
L 1267 4173 
L -38 0 
z
" transform="scale(0.015625)"/>
      <path id="SourceSansPro-Bold-43" d="M 2234 -77 
C 2778 -77 3238 134 3584 538 
L 3085 1126 
C 2880 909 2611 736 2272 736 
C 1658 736 1261 1235 1261 2093 
C 1261 2931 1715 3437 2285 3437 
C 2586 3437 2810 3296 3021 3104 
L 3520 3706 
C 3238 3994 2803 4250 2266 4250 
C 1210 4250 294 3443 294 2061 
C 294 659 1178 -77 2234 -77 
z
" transform="scale(0.015625)"/>
      <path id="SourceSansPro-Bold-45" d="M 493 0 
L 3168 0 
L 3168 794 
L 1434 794 
L 1434 1754 
L 2854 1754 
L 2854 2541 
L 1434 2541 
L 1434 3379 
L 3104 3379 
L 3104 4173 
L 493 4173 
L 493 0 
z
" transform="scale(0.015625)"/>
      <path id="SourceSansPro-Bold-48" d="M 493 0 
L 1434 0 
L 1434 1741 
L 2874 1741 
L 2874 0 
L 3821 0 
L 3821 4173 
L 2874 4173 
L 2874 2566 
L 1434 2566 
L 1434 4173 
L 493 4173 
L 493 0 
z
" transform="scale(0.015625)"/>
      <path id="SourceSansPro-Bold-4f" d="M 2189 -77 
C 3315 -77 4083 742 4083 2106 
C 4083 3462 3315 4250 2189 4250 
C 1062 4250 294 3469 294 2106 
C 294 742 1062 -77 2189 -77 
z
M 2189 736 
C 1619 736 1261 1267 1261 2106 
C 1261 2938 1619 3437 2189 3437 
C 2758 3437 3117 2938 3117 2106 
C 3117 1267 2758 736 2189 736 
z
" transform="scale(0.015625)"/>
      <path id="SourceSansPro-Bold-44" d="M 493 0 
L 1722 0 
C 2944 0 3763 672 3763 2106 
C 3763 3539 2944 4173 1670 4173 
L 493 4173 
L 493 0 
z
M 1434 762 
L 1434 3411 
L 1613 3411 
C 2323 3411 2797 3104 2797 2106 
C 2797 1107 2323 762 1613 762 
L 1434 762 
z
" transform="scale(0.015625)"/>
      <path id="SourceSansPro-Bold-52" d="M 493 0 
L 1434 0 
L 1434 1504 
L 1952 1504 
L 2752 0 
L 3808 0 
L 2861 1670 
C 3309 1869 3603 2259 3603 2874 
C 3603 3866 2880 4173 1997 4173 
L 493 4173 
L 493 0 
z
M 1434 2253 
L 1434 3424 
L 1920 3424 
C 2413 3424 2682 3283 2682 2874 
C 2682 2464 2413 2253 1920 2253 
L 1434 2253 
z
" transform="scale(0.015625)"/>
      <path id="SourceSansPro-Bold-3a" d="M 960 1997 
C 1286 1997 1530 2253 1530 2586 
C 1530 2925 1286 3181 960 3181 
C 634 3181 390 2925 390 2586 
C 390 2253 634 1997 960 1997 
z
M 960 -77 
C 1286 -77 1530 179 1530 512 
C 1530 851 1286 1107 960 1107 
C 634 1107 390 851 390 512 
C 390 179 634 -77 960 -77 
z
" transform="scale(0.015625)"/>
     </defs>
     <use xlink:href="#SourceSansPro-Bold-50"/>
     <use xlink:href="#SourceSansPro-Bold-4c" x="59.599991"/>
     <use xlink:href="#SourceSansPro-Bold-41" x="111.399979"/>
     <use xlink:href="#SourceSansPro-Bold-43" x="168.699966"/>
     <use xlink:href="#SourceSansPro-Bold-45" x="226.899963"/>
     <use xlink:href="#SourceSansPro-Bold-48" x="281.699951"/>
     <use xlink:href="#SourceSansPro-Bold-4f" x="349.099945"/>
     <use xlink:href="#SourceSansPro-Bold-4c" x="417.499939"/>
     <use xlink:href="#SourceSansPro-Bold-44" x="469.299927"/>
     <use xlink:href="#SourceSansPro-Bold-45" x="532.799911"/>
     <use xlink:href="#SourceSansPro-Bold-52" x="587.599899"/>
     <use xlink:href="#SourceSansPro-Bold-3a" x="648.899887"/>
    </g>
    <!-- End Use Diagram -->
    <g style="fill: #275258" transform="translate(222.45625 196.589875) scale(0.16 -0.16)">
     <defs>
      <path id="SourceSansPro-Bold-6e" d="M 416 0 
L 1357 0 
L 1357 2144 
C 1562 2342 1709 2451 1946 2451 
C 2214 2451 2336 2310 2336 1850 
L 2336 0 
L 3277 0 
L 3277 1971 
C 3277 2765 2982 3251 2291 3251 
C 1862 3251 1542 3027 1274 2771 
L 1248 2771 
L 1184 3174 
L 416 3174 
L 416 0 
z
" transform="scale(0.015625)"/>
      <path id="SourceSansPro-Bold-64" d="M 1549 -77 
C 1856 -77 2170 90 2394 314 
L 2419 314 
L 2483 0 
L 3251 0 
L 3251 4486 
L 2310 4486 
L 2310 3405 
L 2349 2918 
C 2131 3123 1920 3251 1568 3251 
C 896 3251 250 2624 250 1587 
C 250 550 762 -77 1549 -77 
z
M 1792 691 
C 1427 691 1216 973 1216 1600 
C 1216 2202 1485 2483 1786 2483 
C 1958 2483 2144 2432 2310 2278 
L 2310 979 
C 2157 768 1997 691 1792 691 
z
" transform="scale(0.015625)"/>
      <path id="SourceSansPro-Bold-20" transform="scale(0.015625)"/>
      <path id="SourceSansPro-Bold-55" d="M 2138 -77 
C 3213 -77 3782 531 3782 1933 
L 3782 4173 
L 2874 4173 
L 2874 1837 
C 2874 1018 2605 736 2138 736 
C 1670 736 1414 1018 1414 1837 
L 1414 4173 
L 467 4173 
L 467 1933 
C 467 531 1056 -77 2138 -77 
z
" transform="scale(0.015625)"/>
      <path id="SourceSansPro-Bold-73" d="M 1350 -77 
C 2202 -77 2656 371 2656 947 
C 2656 1530 2202 1754 1798 1901 
C 1472 2022 1178 2099 1178 2304 
C 1178 2464 1293 2554 1536 2554 
C 1760 2554 1978 2451 2208 2285 
L 2630 2848 
C 2355 3053 1997 3251 1510 3251 
C 774 3251 294 2848 294 2259 
C 294 1734 749 1472 1133 1325 
C 1459 1197 1779 1101 1779 890 
C 1779 723 1658 621 1376 621 
C 1107 621 845 736 557 954 
L 134 365 
C 454 102 934 -77 1350 -77 
z
" transform="scale(0.015625)"/>
      <path id="SourceSansPro-Bold-65" d="M 1837 -77 
C 2214 -77 2637 58 2963 282 
L 2650 851 
C 2419 710 2202 640 1965 640 
C 1542 640 1222 851 1139 1312 
L 3040 1312 
C 3059 1389 3078 1562 3078 1728 
C 3078 2592 2630 3251 1728 3251 
C 966 3251 230 2618 230 1587 
C 230 538 928 -77 1837 -77 
z
M 1133 1933 
C 1197 2336 1453 2534 1747 2534 
C 2125 2534 2278 2285 2278 1933 
L 1133 1933 
z
" transform="scale(0.015625)"/>
      <path id="SourceSansPro-Bold-69" d="M 416 0 
L 1357 0 
L 1357 3174 
L 416 3174 
L 416 0 
z
M 883 3642 
C 1203 3642 1427 3846 1427 4134 
C 1427 4422 1203 4621 883 4621 
C 570 4621 339 4422 339 4134 
C 339 3846 570 3642 883 3642 
z
" transform="scale(0.015625)"/>
      <path id="SourceSansPro-Bold-61" d="M 1216 -77 
C 1574 -77 1869 90 2138 326 
L 2163 326 
L 2227 0 
L 2995 0 
L 2995 1818 
C 2995 2790 2547 3251 1734 3251 
C 1235 3251 781 3078 378 2835 
L 717 2214 
C 1024 2394 1286 2502 1555 2502 
C 1901 2502 2035 2323 2054 2042 
C 800 1914 269 1549 269 883 
C 269 346 634 -77 1216 -77 
z
M 1536 653 
C 1312 653 1171 749 1171 954 
C 1171 1197 1389 1389 2054 1478 
L 2054 922 
C 1888 755 1747 653 1536 653 
z
" transform="scale(0.015625)"/>
      <path id="SourceSansPro-Bold-67" d="M 1549 -1350 
C 2637 -1350 3322 -870 3322 -211 
C 3322 358 2893 595 2112 595 
L 1600 595 
C 1248 595 1120 672 1120 832 
C 1120 941 1152 998 1235 1069 
C 1376 1024 1504 1005 1619 1005 
C 2317 1005 2867 1344 2867 2074 
C 2867 2240 2822 2394 2765 2490 
L 3270 2490 
L 3270 3174 
L 2112 3174 
C 1971 3226 1798 3251 1619 3251 
C 934 3251 307 2867 307 2106 
C 307 1734 512 1434 736 1280 
L 736 1254 
C 531 1114 378 890 378 659 
C 378 397 506 230 672 122 
L 672 96 
C 378 -70 218 -282 218 -544 
C 218 -1107 806 -1350 1549 -1350 
z
M 1619 1574 
C 1370 1574 1184 1754 1184 2106 
C 1184 2445 1370 2618 1619 2618 
C 1869 2618 2054 2438 2054 2106 
C 2054 1754 1869 1574 1619 1574 
z
M 1696 -762 
C 1274 -762 992 -634 992 -397 
C 992 -282 1050 -186 1165 -83 
C 1267 -109 1395 -122 1613 -122 
L 1939 -122 
C 2253 -122 2426 -173 2426 -371 
C 2426 -589 2118 -762 1696 -762 
z
" transform="scale(0.015625)"/>
      <path id="SourceSansPro-Bold-72" d="M 416 0 
L 1357 0 
L 1357 1843 
C 1523 2272 1818 2426 2054 2426 
C 2189 2426 2285 2406 2400 2374 
L 2554 3187 
C 2464 3226 2355 3251 2176 3251 
C 1850 3251 1504 3046 1274 2618 
L 1248 2618 
L 1184 3174 
L 416 3174 
L 416 0 
z
" transform="scale(0.015625)"/>
      <path id="SourceSansPro-Bold-6d" d="M 416 0 
L 1357 0 
L 1357 2144 
C 1555 2349 1741 2451 1894 2451 
C 2163 2451 2285 2310 2285 1850 
L 2285 0 
L 3226 0 
L 3226 2144 
C 3430 2349 3610 2451 3770 2451 
C 4038 2451 4160 2310 4160 1850 
L 4160 0 
L 5101 0 
L 5101 1971 
C 5101 2765 4794 3251 4109 3251 
C 3686 3251 3392 3008 3110 2720 
C 2950 3059 2682 3251 2234 3251 
C 1818 3251 1536 3027 1274 2765 
L 1248 2765 
L 1184 3174 
L 416 3174 
L 416 0 
z
" transform="scale(0.015625)"/>
     </defs>
     <use xlink:href="#SourceSansPro-Bold-45"/>
     <use xlink:href="#SourceSansPro-Bold-6e" x="54.799988"/>
     <use xlink:href="#SourceSansPro-Bold-64" x="111.999985"/>
     <use xlink:href="#SourceSansPro-Bold-20" x="169.299973"/>
     <use xlink:href="#SourceSansPro-Bold-55" x="189.299957"/>
     <use xlink:href="#SourceSansPro-Bold-73" x="255.799942"/>
     <use xlink:href="#SourceSansPro-Bold-65" x="300.09993"/>
     <use xlink:href="#SourceSansPro-Bold-20" x="351.899918"/>
     <use xlink:href="#SourceSansPro-Bold-44" x="371.899902"/>
     <use xlink:href="#SourceSansPro-Bold-69" x="435.399887"/>
     <use xlink:href="#SourceSansPro-Bold-61" x="462.999878"/>
     <use xlink:href="#SourceSansPro-Bold-67" x="515.699875"/>
     <use xlink:href="#SourceSansPro-Bold-72" x="569.099869"/>
     <use xlink:href="#SourceSansPro-Bold-61" x="608.899857"/>
     <use xlink:href="#SourceSansPro-Bold-6d" x="661.599854"/>
    </g>
    <!-- from Canva -->
    <g style="fill: #275258" transform="translate(241.58375 213.422875) scale(0.16 -0.16)">
     <defs>
      <path id="SourceSansPro-Bold-66" d="M 576 0 
L 1517 0 
L 1517 2438 
L 2086 2438 
L 2086 3174 
L 1517 3174 
L 1517 3366 
C 1517 3693 1651 3821 1882 3821 
C 1984 3821 2099 3795 2208 3757 
L 2381 4448 
C 2240 4499 2010 4563 1747 4563 
C 890 4563 576 4013 576 3341 
L 576 3168 
L 154 3136 
L 154 2438 
L 576 2438 
L 576 0 
z
" transform="scale(0.015625)"/>
      <path id="SourceSansPro-Bold-6f" d="M 1779 -77 
C 2579 -77 3322 531 3322 1587 
C 3322 2643 2579 3251 1779 3251 
C 973 3251 230 2643 230 1587 
C 230 531 973 -77 1779 -77 
z
M 1779 685 
C 1389 685 1197 1037 1197 1587 
C 1197 2138 1389 2490 1779 2490 
C 2163 2490 2362 2138 2362 1587 
C 2362 1037 2163 685 1779 685 
z
" transform="scale(0.015625)"/>
      <path id="SourceSansPro-Bold-76" d="M 1146 0 
L 2234 0 
L 3270 3174 
L 2368 3174 
L 1952 1677 
C 1869 1363 1786 1030 1709 698 
L 1683 698 
C 1600 1030 1517 1363 1434 1677 
L 1024 3174 
L 77 3174 
L 1146 0 
z
" transform="scale(0.015625)"/>
     </defs>
     <use xlink:href="#SourceSansPro-Bold-66"/>
     <use xlink:href="#SourceSansPro-Bold-72" x="34.099991"/>
     <use xlink:href="#SourceSansPro-Bold-6f" x="73.899979"/>
     <use xlink:href="#SourceSansPro-Bold-6d" x="129.399963"/>
     <use xlink:href="#SourceSansPro-Bold-20" x="215.099945"/>
     <use xlink:href="#SourceSansPro-Bold-43" x="235.09993"/>
     <use xlink:href="#SourceSansPro-Bold-61" x="293.299927"/>
     <use xlink:href="#SourceSansPro-Bold-6e" x="345.999924"/>
     <use xlink:href="#SourceSansPro-Bold-76" x="403.199921"/>
     <use xlink:href="#SourceSansPro-Bold-61" x="455.499908"/>
    </g>
    <!--  -->
    <g style="fill: #275258" transform="translate(282.24 229.825875) scale(0.16 -0.16)"/>
    <!-- (House illustration -->
    <g style="fill: #275258" transform="translate(216.2025 246.786875) scale(0.16 -0.16)">
     <defs>
      <path id="SourceSansPro-Bold-28" d="M 1306 -1146 
L 1894 -902 
C 1427 -70 1222 870 1222 1779 
C 1222 2688 1427 3629 1894 4461 
L 1306 4704 
C 768 3827 461 2906 461 1779 
C 461 653 768 -269 1306 -1146 
z
" transform="scale(0.015625)"/>
      <path id="SourceSansPro-Bold-75" d="M 1370 -77 
C 1805 -77 2099 122 2368 442 
L 2387 442 
L 2458 0 
L 3226 0 
L 3226 3174 
L 2285 3174 
L 2285 1075 
C 2099 826 1958 723 1722 723 
C 1446 723 1325 870 1325 1325 
L 1325 3174 
L 384 3174 
L 384 1203 
C 384 410 678 -77 1370 -77 
z
" transform="scale(0.015625)"/>
      <path id="SourceSansPro-Bold-6c" d="M 1280 -77 
C 1491 -77 1651 -45 1754 0 
L 1638 698 
C 1587 685 1562 685 1523 685 
C 1446 685 1357 749 1357 947 
L 1357 4486 
L 416 4486 
L 416 986 
C 416 346 634 -77 1280 -77 
z
" transform="scale(0.015625)"/>
      <path id="SourceSansPro-Bold-74" d="M 1638 -77 
C 1946 -77 2176 -13 2342 38 
L 2195 723 
C 2112 691 1997 659 1894 659 
C 1645 659 1485 806 1485 1165 
L 1485 2438 
L 2246 2438 
L 2246 3174 
L 1485 3174 
L 1485 4019 
L 704 4019 
L 595 3174 
L 109 3136 
L 109 2438 
L 544 2438 
L 544 1152 
C 544 416 851 -77 1638 -77 
z
" transform="scale(0.015625)"/>
     </defs>
     <use xlink:href="#SourceSansPro-Bold-28"/>
     <use xlink:href="#SourceSansPro-Bold-48" x="34.399994"/>
     <use xlink:href="#SourceSansPro-Bold-6f" x="101.799988"/>
     <use xlink:href="#SourceSansPro-Bold-75" x="157.299973"/>
     <use xlink:href="#SourceSansPro-Bold-73" x="214.09996"/>
     <use xlink:href="#SourceSansPro-Bold-65" x="258.399948"/>
     <use xlink:href="#SourceSansPro-Bold-20" x="310.199936"/>
     <use xlink:href="#SourceSansPro-Bold-69" x="330.199921"/>
     <use xlink:href="#SourceSansPro-Bold-6c" x="357.799911"/>
     <use xlink:href="#SourceSansPro-Bold-6c" x="386.399902"/>
     <use xlink:href="#SourceSansPro-Bold-75" x="414.999893"/>
     <use xlink:href="#SourceSansPro-Bold-73" x="471.799881"/>
     <use xlink:href="#SourceSansPro-Bold-74" x="516.099869"/>
     <use xlink:href="#SourceSansPro-Bold-72" x="554.399857"/>
     <use xlink:href="#SourceSansPro-Bold-61" x="594.199844"/>
     <use xlink:href="#SourceSansPro-Bold-74" x="646.899841"/>
     <use xlink:href="#SourceSansPro-Bold-69" x="685.199829"/>
     <use xlink:href="#SourceSansPro-Bold-6f" x="712.79982"/>
     <use xlink:href="#SourceSansPro-Bold-6e" x="768.299805"/>
    </g>
    <!-- showing water heater, -->
    <g style="fill: #275258" transform="translate(202.69125 263.594875) scale(0.16 -0.16)">
     <defs>
      <path id="SourceSansPro-Bold-68" d="M 416 0 
L 1357 0 
L 1357 2144 
C 1562 2342 1709 2451 1946 2451 
C 2214 2451 2336 2310 2336 1850 
L 2336 0 
L 3277 0 
L 3277 1971 
C 3277 2765 2982 3251 2291 3251 
C 1862 3251 1549 3027 1312 2816 
L 1357 3386 
L 1357 4486 
L 416 4486 
L 416 0 
z
" transform="scale(0.015625)"/>
      <path id="SourceSansPro-Bold-77" d="M 947 0 
L 2022 0 
L 2304 1267 
C 2362 1562 2406 1856 2464 2195 
L 2490 2195 
C 2547 1856 2598 1562 2662 1267 
L 2950 0 
L 4051 0 
L 4813 3174 
L 3942 3174 
L 3642 1702 
C 3584 1389 3552 1082 3494 762 
L 3469 762 
C 3405 1082 3347 1389 3270 1702 
L 2912 3174 
L 2099 3174 
L 1747 1702 
C 1670 1402 1619 1082 1562 762 
L 1536 762 
C 1485 1082 1446 1389 1395 1702 
L 1088 3174 
L 154 3174 
L 947 0 
z
" transform="scale(0.015625)"/>
      <path id="SourceSansPro-Bold-2c" d="M 486 -1242 
C 1235 -1018 1638 -486 1638 218 
C 1638 774 1408 1107 986 1107 
C 659 1107 397 896 397 570 
C 397 230 666 38 966 38 
C 986 38 998 38 1018 38 
C 1024 -282 768 -576 294 -742 
L 486 -1242 
z
" transform="scale(0.015625)"/>
     </defs>
     <use xlink:href="#SourceSansPro-Bold-73"/>
     <use xlink:href="#SourceSansPro-Bold-68" x="44.299988"/>
     <use xlink:href="#SourceSansPro-Bold-6f" x="101.399979"/>
     <use xlink:href="#SourceSansPro-Bold-77" x="156.899963"/>
     <use xlink:href="#SourceSansPro-Bold-69" x="234.499954"/>
     <use xlink:href="#SourceSansPro-Bold-6e" x="262.099945"/>
     <use xlink:href="#SourceSansPro-Bold-67" x="319.299942"/>
     <use xlink:href="#SourceSansPro-Bold-20" x="372.699936"/>
     <use xlink:href="#SourceSansPro-Bold-77" x="392.699921"/>
     <use xlink:href="#SourceSansPro-Bold-61" x="470.299911"/>
     <use xlink:href="#SourceSansPro-Bold-74" x="522.999908"/>
     <use xlink:href="#SourceSansPro-Bold-65" x="561.299896"/>
     <use xlink:href="#SourceSansPro-Bold-72" x="613.099884"/>
     <use xlink:href="#SourceSansPro-Bold-20" x="652.899872"/>
     <use xlink:href="#SourceSansPro-Bold-68" x="672.899857"/>
     <use xlink:href="#SourceSansPro-Bold-65" x="729.999847"/>
     <use xlink:href="#SourceSansPro-Bold-61" x="781.799835"/>
     <use xlink:href="#SourceSansPro-Bold-74" x="834.499832"/>
     <use xlink:href="#SourceSansPro-Bold-65" x="872.79982"/>
     <use xlink:href="#SourceSansPro-Bold-72" x="924.599808"/>
     <use xlink:href="#SourceSansPro-Bold-2c" x="964.399796"/>
    </g>
    <!-- HVAC, appliances, etc.) -->
    <g style="fill: #275258" transform="translate(200.96875 281.081875) scale(0.16 -0.16)">
     <defs>
      <path id="SourceSansPro-Bold-56" d="M 1216 0 
L 2349 0 
L 3603 4173 
L 2643 4173 
L 2150 2227 
C 2029 1773 1939 1350 1818 890 
L 1792 890 
C 1664 1350 1581 1773 1453 2227 
L 954 4173 
L -45 4173 
L 1216 0 
z
" transform="scale(0.015625)"/>
      <path id="SourceSansPro-Bold-70" d="M 416 -1178 
L 1357 -1178 
L 1357 -250 
L 1325 256 
C 1549 45 1805 -77 2080 -77 
C 2765 -77 3418 550 3418 1638 
C 3418 2618 2944 3251 2176 3251 
C 1843 3251 1523 3085 1274 2861 
L 1248 2861 
L 1184 3174 
L 416 3174 
L 416 -1178 
z
M 1862 691 
C 1702 691 1523 742 1357 896 
L 1357 2195 
C 1542 2394 1709 2483 1901 2483 
C 2278 2483 2451 2195 2451 1626 
C 2451 973 2189 691 1862 691 
z
" transform="scale(0.015625)"/>
      <path id="SourceSansPro-Bold-63" d="M 1798 -77 
C 2144 -77 2534 26 2848 301 
L 2477 915 
C 2310 787 2112 685 1907 685 
C 1498 685 1197 1037 1197 1587 
C 1197 2138 1485 2490 1939 2490 
C 2086 2490 2214 2432 2368 2304 
L 2810 2912 
C 2573 3110 2272 3251 1882 3251 
C 1005 3251 230 2643 230 1587 
C 230 531 915 -77 1798 -77 
z
" transform="scale(0.015625)"/>
      <path id="SourceSansPro-Bold-2e" d="M 960 -77 
C 1286 -77 1530 179 1530 512 
C 1530 851 1286 1107 960 1107 
C 634 1107 390 851 390 512 
C 390 179 634 -77 960 -77 
z
" transform="scale(0.015625)"/>
      <path id="SourceSansPro-Bold-29" d="M 896 -1146 
C 1434 -269 1741 653 1741 1779 
C 1741 2906 1434 3827 896 4704 
L 307 4461 
C 781 3629 986 2688 986 1779 
C 986 870 781 -70 307 -902 
L 896 -1146 
z
" transform="scale(0.015625)"/>
     </defs>
     <use xlink:href="#SourceSansPro-Bold-48"/>
     <use xlink:href="#SourceSansPro-Bold-56" x="67.399994"/>
     <use xlink:href="#SourceSansPro-Bold-41" x="122.999985"/>
     <use xlink:href="#SourceSansPro-Bold-43" x="180.299973"/>
     <use xlink:href="#SourceSansPro-Bold-2c" x="238.499969"/>
     <use xlink:href="#SourceSansPro-Bold-20" x="268.499954"/>
     <use xlink:href="#SourceSansPro-Bold-61" x="288.499939"/>
     <use xlink:href="#SourceSansPro-Bold-70" x="341.199936"/>
     <use xlink:href="#SourceSansPro-Bold-70" x="398.499924"/>
     <use xlink:href="#SourceSansPro-Bold-6c" x="455.799911"/>
     <use xlink:href="#SourceSansPro-Bold-69" x="484.399902"/>
     <use xlink:href="#SourceSansPro-Bold-61" x="511.999893"/>
     <use xlink:href="#SourceSansPro-Bold-6e" x="564.69989"/>
     <use xlink:href="#SourceSansPro-Bold-63" x="621.899887"/>
     <use xlink:href="#SourceSansPro-Bold-65" x="668.599884"/>
     <use xlink:href="#SourceSansPro-Bold-73" x="720.399872"/>
     <use xlink:href="#SourceSansPro-Bold-2c" x="764.69986"/>
     <use xlink:href="#SourceSansPro-Bold-20" x="794.699844"/>
     <use xlink:href="#SourceSansPro-Bold-65" x="814.699829"/>
     <use xlink:href="#SourceSansPro-Bold-74" x="866.499817"/>
     <use xlink:href="#SourceSansPro-Bold-63" x="904.799805"/>
     <use xlink:href="#SourceSansPro-Bold-2e" x="951.499802"/>
     <use xlink:href="#SourceSansPro-Bold-29" x="981.499786"/>
    </g>
   </g>
   <g id="text_2">
    <!-- Residential End Uses -->
    <g style="fill: #275258" transform="translate(199.920937 19.816875) scale(0.18 -0.18)">
     <use xlink:href="#SourceSansPro-Bold-52"/>
     <use xlink:href="#SourceSansPro-Bold-65" x="61.299988"/>
     <use xlink:href="#SourceSansPro-Bold-73" x="113.099976"/>
     <use xlink:href="#SourceSansPro-Bold-69" x="157.399963"/>
     <use xlink:href="#SourceSansPro-Bold-64" x="184.999954"/>
     <use xlink:href="#SourceSansPro-Bold-65" x="242.299942"/>
     <use xlink:href="#SourceSansPro-Bold-6e" x="294.09993"/>
     <use xlink:href="#SourceSansPro-Bold-74" x="351.299927"/>
     <use xlink:href="#SourceSansPro-Bold-69" x="389.599915"/>
     <use xlink:href="#SourceSansPro-Bold-61" x="417.199905"/>
     <use xlink:href="#SourceSansPro-Bold-6c" x="469.899902"/>
     <use xlink:href="#SourceSansPro-Bold-20" x="498.499893"/>
     <use xlink:href="#SourceSansPro-Bold-45" x="518.499878"/>
     <use xlink:href="#SourceSansPro-Bold-6e" x="573.299866"/>
     <use xlink:href="#SourceSansPro-Bold-64" x="630.499863"/>
     <use xlink:href="#SourceSansPro-Bold-20" x="687.79985"/>
     <use xlink:href="#SourceSansPro-Bold-55" x="707.799835"/>
     <use xlink:href="#SourceSansPro-Bold-73" x="774.29982"/>
     <use xlink:href="#SourceSansPro-Bold-65" x="818.599808"/>
     <use xlink:href="#SourceSansPro-Bold-73" x="870.399796"/>
    </g>
   </g>
  </g>
 </g>
</svg>
