<?xml version="1.0" encoding="utf-8" standalone="no"?>
<!DOCTYPE svg PUBLIC "-//W3C//DTD SVG 1.1//EN"
  "http://www.w3.org/Graphics/SVG/1.1/DTD/svg11.dtd">
<svg xmlns:xlink="http://www.w3.org/1999/xlink" width="1140.48pt" height="419.499258pt" viewBox="0 0 1140.48 419.499258" xmlns="http://www.w3.org/2000/svg" version="1.1">
 <metadata>
  <rdf:RDF xmlns:dc="http://purl.org/dc/elements/1.1/" xmlns:cc="http://creativecommons.org/ns#" xmlns:rdf="http://www.w3.org/1999/02/22-rdf-syntax-ns#">
   <cc:Work>
    <dc:type rdf:resource="http://purl.org/dc/dcmitype/StillImage"/>
    <dc:date>2025-10-08T10:39:13.615597</dc:date>
    <dc:format>image/svg+xml</dc:format>
    <dc:creator>
     <cc:Agent>
      <dc:title>Matplotlib v3.7.2, https://matplotlib.org/</dc:title>
     </cc:Agent>
    </dc:creator>
   </cc:Work>
  </rdf:RDF>
 </metadata>
 <defs>
  <style type="text/css">*{stroke-linejoin: round; stroke-linecap: butt}</style>
 </defs>
 <g id="figure_1">
  <g id="patch_1">
   <path d="M 0 419.499258 
L 1140.48 419.499258 
L 1140.48 0 
L 0 0 
L 0 419.499258 
z
" style="fill: none"/>
  </g>
  <g id="axes_1">
   <g id="text_1">
    <g id="patch_2">
     <path d="M 194.883437 258.487088 
L 357.425937 258.487088 
Q 373.425937 258.487088 373.425937 242.487088 
L 373.425937 127.027088 
Q 373.425937 111.027088 357.425937 111.027088 
L 194.883437 111.027088 
Q 178.883437 111.027088 178.883437 127.027088 
L 178.883437 242.487088 
Q 178.883437 258.487088 194.883437 258.487088 
z
" style="fill: #e8f0f1; stroke: #275258; stroke-width: 2; stroke-linejoin: miter"/>
    </g>
    <!-- PLACEHOLDER: -->
    <g style="fill: #275258" transform="translate(221.843437 138.082088) scale(0.16 -0.16)">
     <defs>
      <path id="SourceSansPro-Bold-50" d="M 493 0 
L 1434 0 
L 1434 1414 
L 1952 1414 
C 2835 1414 3584 1850 3584 2829 
C 3584 3840 2842 4173 1926 4173 
L 493 4173 
L 493 0 
z
M 1434 2163 
L 1434 3424 
L 1869 3424 
C 2381 3424 2662 3264 2662 2829 
C 2662 2394 2413 2163 1894 2163 
L 1434 2163 
z
" transform="scale(0.015625)"/>
      <path id="SourceSansPro-Bold-4c" d="M 493 0 
L 3085 0 
L 3085 794 
L 1434 794 
L 1434 4173 
L 493 4173 
L 493 0 
z
" transform="scale(0.015625)"/>
      <path id="SourceSansPro-Bold-41" d="M 1472 2112 
C 1587 2528 1696 3014 1798 3456 
L 1824 3456 
C 1933 3021 2048 2528 2163 2112 
L 2259 1728 
L 1370 1728 
L 1472 2112 
z
M -38 0 
L 922 0 
L 1178 992 
L 2451 992 
L 2707 0 
L 3706 0 
L 2400 4173 
L 1267 4173 
L -38 0 
z
" transform="scale(0.015625)"/>
      <path id="SourceSansPro-Bold-43" d="M 2234 -77 
C 2778 -77 3238 134 3584 538 
L 3085 1126 
C 2880 909 2611 736 2272 736 
C 1658 736 1261 1235 1261 2093 
C 1261 2931 1715 3437 2285 3437 
C 2586 3437 2810 3296 3021 3104 
L 3520 3706 
C 3238 3994 2803 4250 2266 4250 
C 1210 4250 294 3443 294 2061 
C 294 659 1178 -77 2234 -77 
z
" transform="scale(0.015625)"/>
      <path id="SourceSansPro-Bold-45" d="M 493 0 
L 3168 0 
L 3168 794 
L 1434 794 
L 1434 1754 
L 2854 1754 
L 2854 2541 
L 1434 2541 
L 1434 3379 
L 3104 3379 
L 3104 4173 
L 493 4173 
L 493 0 
z
" transform="scale(0.015625)"/>
      <path id="SourceSansPro-Bold-48" d="M 493 0 
L 1434 0 
L 1434 1741 
L 2874 1741 
L 2874 0 
L 3821 0 
L 3821 4173 
L 2874 4173 
L 2874 2566 
L 1434 2566 
L 1434 4173 
L 493 4173 
L 493 0 
z
" transform="scale(0.015625)"/>
      <path id="SourceSansPro-Bold-4f" d="M 2189 -77 
C 3315 -77 4083 742 4083 2106 
C 4083 3462 3315 4250 2189 4250 
C 1062 4250 294 3469 294 2106 
C 294 742 1062 -77 2189 -77 
z
M 2189 736 
C 1619 736 1261 1267 1261 2106 
C 1261 2938 1619 3437 2189 3437 
C 2758 3437 3117 2938 3117 2106 
C 3117 1267 2758 736 2189 736 
z
" transform="scale(0.015625)"/>
      <path id="SourceSansPro-Bold-44" d="M 493 0 
L 1722 0 
C 2944 0 3763 672 3763 2106 
C 3763 3539 2944 4173 1670 4173 
L 493 4173 
L 493 0 
z
M 1434 762 
L 1434 3411 
L 1613 3411 
C 2323 3411 2797 3104 2797 2106 
C 2797 1107 2323 762 1613 762 
L 1434 762 
z
" transform="scale(0.015625)"/>
      <path id="SourceSansPro-Bold-52" d="M 493 0 
L 1434 0 
L 1434 1504 
L 1952 1504 
L 2752 0 
L 3808 0 
L 2861 1670 
C 3309 1869 3603 2259 3603 2874 
C 3603 3866 2880 4173 1997 4173 
L 493 4173 
L 493 0 
z
M 1434 2253 
L 1434 3424 
L 1920 3424 
C 2413 3424 2682 3283 2682 2874 
C 2682 2464 2413 2253 1920 2253 
L 1434 2253 
z
" transform="scale(0.015625)"/>
      <path id="SourceSansPro-Bold-3a" d="M 960 1997 
C 1286 1997 1530 2253 1530 2586 
C 1530 2925 1286 3181 960 3181 
C 634 3181 390 2925 390 2586 
C 390 2253 634 1997 960 1997 
z
M 960 -77 
C 1286 -77 1530 179 1530 512 
C 1530 851 1286 1107 960 1107 
C 634 1107 390 851 390 512 
C 390 179 634 -77 960 -77 
z
" transform="scale(0.015625)"/>
     </defs>
     <use xlink:href="#SourceSansPro-Bold-50"/>
     <use xlink:href="#SourceSansPro-Bold-4c" x="59.599991"/>
     <use xlink:href="#SourceSansPro-Bold-41" x="111.399979"/>
     <use xlink:href="#SourceSansPro-Bold-43" x="168.699966"/>
     <use xlink:href="#SourceSansPro-Bold-45" x="226.899963"/>
     <use xlink:href="#SourceSansPro-Bold-48" x="281.699951"/>
     <use xlink:href="#SourceSansPro-Bold-4f" x="349.099945"/>
     <use xlink:href="#SourceSansPro-Bold-4c" x="417.499939"/>
     <use xlink:href="#SourceSansPro-Bold-44" x="469.299927"/>
     <use xlink:href="#SourceSansPro-Bold-45" x="532.799911"/>
     <use xlink:href="#SourceSansPro-Bold-52" x="587.599899"/>
     <use xlink:href="#SourceSansPro-Bold-3a" x="648.899887"/>
    </g>
    <!-- End Use Diagram -->
    <g style="fill: #275258" transform="translate(216.370937 154.890088) scale(0.16 -0.16)">
     <defs>
      <path id="SourceSansPro-Bold-6e" d="M 416 0 
L 1357 0 
L 1357 2144 
C 1562 2342 1709 2451 1946 2451 
C 2214 2451 2336 2310 2336 1850 
L 2336 0 
L 3277 0 
L 3277 1971 
C 3277 2765 2982 3251 2291 3251 
C 1862 3251 1542 3027 1274 2771 
L 1248 2771 
L 1184 3174 
L 416 3174 
L 416 0 
z
" transform="scale(0.015625)"/>
      <path id="SourceSansPro-Bold-64" d="M 1549 -77 
C 1856 -77 2170 90 2394 314 
L 2419 314 
L 2483 0 
L 3251 0 
L 3251 4486 
L 2310 4486 
L 2310 3405 
L 2349 2918 
C 2131 3123 1920 3251 1568 3251 
C 896 3251 250 2624 250 1587 
C 250 550 762 -77 1549 -77 
z
M 1792 691 
C 1427 691 1216 973 1216 1600 
C 1216 2202 1485 2483 1786 2483 
C 1958 2483 2144 2432 2310 2278 
L 2310 979 
C 2157 768 1997 691 1792 691 
z
" transform="scale(0.015625)"/>
      <path id="SourceSansPro-Bold-20" transform="scale(0.015625)"/>
      <path id="SourceSansPro-Bold-55" d="M 2138 -77 
C 3213 -77 3782 531 3782 1933 
L 3782 4173 
L 2874 4173 
L 2874 1837 
C 2874 1018 2605 736 2138 736 
C 1670 736 1414 1018 1414 1837 
L 1414 4173 
L 467 4173 
L 467 1933 
C 467 531 1056 -77 2138 -77 
z
" transform="scale(0.015625)"/>
      <path id="SourceSansPro-Bold-73" d="M 1350 -77 
C 2202 -77 2656 371 2656 947 
C 2656 1530 2202 1754 1798 1901 
C 1472 2022 1178 2099 1178 2304 
C 1178 2464 1293 2554 1536 2554 
C 1760 2554 1978 2451 2208 2285 
L 2630 2848 
C 2355 3053 1997 3251 1510 3251 
C 774 3251 294 2848 294 2259 
C 294 1734 749 1472 1133 1325 
C 1459 1197 1779 1101 1779 890 
C 1779 723 1658 621 1376 621 
C 1107 621 845 736 557 954 
L 134 365 
C 454 102 934 -77 1350 -77 
z
" transform="scale(0.015625)"/>
      <path id="SourceSansPro-Bold-65" d="M 1837 -77 
C 2214 -77 2637 58 2963 282 
L 2650 851 
C 2419 710 2202 640 1965 640 
C 1542 640 1222 851 1139 1312 
L 3040 1312 
C 3059 1389 3078 1562 3078 1728 
C 3078 2592 2630 3251 1728 3251 
C 966 3251 230 2618 230 1587 
C 230 538 928 -77 1837 -77 
z
M 1133 1933 
C 1197 2336 1453 2534 1747 2534 
C 2125 2534 2278 2285 2278 1933 
L 1133 1933 
z
" transform="scale(0.015625)"/>
      <path id="SourceSansPro-Bold-69" d="M 416 0 
L 1357 0 
L 1357 3174 
L 416 3174 
L 416 0 
z
M 883 3642 
C 1203 3642 1427 3846 1427 4134 
C 1427 4422 1203 4621 883 4621 
C 570 4621 339 4422 339 4134 
C 339 3846 570 3642 883 3642 
z
" transform="scale(0.015625)"/>
      <path id="SourceSansPro-Bold-61" d="M 1216 -77 
C 1574 -77 1869 90 2138 326 
L 2163 326 
L 2227 0 
L 2995 0 
L 2995 1818 
C 2995 2790 2547 3251 1734 3251 
C 1235 3251 781 3078 378 2835 
L 717 2214 
C 1024 2394 1286 2502 1555 2502 
C 1901 2502 2035 2323 2054 2042 
C 800 1914 269 1549 269 883 
C 269 346 634 -77 1216 -77 
z
M 1536 653 
C 1312 653 1171 749 1171 954 
C 1171 1197 1389 1389 2054 1478 
L 2054 922 
C 1888 755 1747 653 1536 653 
z
" transform="scale(0.015625)"/>
      <path id="SourceSansPro-Bold-67" d="M 1549 -1350 
C 2637 -1350 3322 -870 3322 -211 
C 3322 358 2893 595 2112 595 
L 1600 595 
C 1248 595 1120 672 1120 832 
C 1120 941 1152 998 1235 1069 
C 1376 1024 1504 1005 1619 1005 
C 2317 1005 2867 1344 2867 2074 
C 2867 2240 2822 2394 2765 2490 
L 3270 2490 
L 3270 3174 
L 2112 3174 
C 1971 3226 1798 3251 1619 3251 
C 934 3251 307 2867 307 2106 
C 307 1734 512 1434 736 1280 
L 736 1254 
C 531 1114 378 890 378 659 
C 378 397 506 230 672 122 
L 672 96 
C 378 -70 218 -282 218 -544 
C 218 -1107 806 -1350 1549 -1350 
z
M 1619 1574 
C 1370 1574 1184 1754 1184 2106 
C 1184 2445 1370 2618 1619 2618 
C 1869 2618 2054 2438 2054 2106 
C 2054 1754 1869 1574 1619 1574 
z
M 1696 -762 
C 1274 -762 992 -634 992 -397 
C 992 -282 1050 -186 1165 -83 
C 1267 -109 1395 -122 1613 -122 
L 1939 -122 
C 2253 -122 2426 -173 2426 -371 
C 2426 -589 2118 -762 1696 -762 
z
" transform="scale(0.015625)"/>
      <path id="SourceSansPro-Bold-72" d="M 416 0 
L 1357 0 
L 1357 1843 
C 1523 2272 1818 2426 2054 2426 
C 2189 2426 2285 2406 2400 2374 
L 2554 3187 
C 2464 3226 2355 3251 2176 3251 
C 1850 3251 1504 3046 1274 2618 
L 1248 2618 
L 1184 3174 
L 416 3174 
L 416 0 
z
" transform="scale(0.015625)"/>
      <path id="SourceSansPro-Bold-6d" d="M 416 0 
L 1357 0 
L 1357 2144 
C 1555 2349 1741 2451 1894 2451 
C 2163 2451 2285 2310 2285 1850 
L 2285 0 
L 3226 0 
L 3226 2144 
C 3430 2349 3610 2451 3770 2451 
C 4038 2451 4160 2310 4160 1850 
L 4160 0 
L 5101 0 
L 5101 1971 
C 5101 2765 4794 3251 4109 3251 
C 3686 3251 3392 3008 3110 2720 
C 2950 3059 2682 3251 2234 3251 
C 1818 3251 1536 3027 1274 2765 
L 1248 2765 
L 1184 3174 
L 416 3174 
L 416 0 
z
" transform="scale(0.015625)"/>
     </defs>
     <use xlink:href="#SourceSansPro-Bold-45"/>
     <use xlink:href="#SourceSansPro-Bold-6e" x="54.799988"/>
     <use xlink:href="#SourceSansPro-Bold-64" x="111.999985"/>
     <use xlink:href="#SourceSansPro-Bold-20" x="169.299973"/>
     <use xlink:href="#SourceSansPro-Bold-55" x="189.299957"/>
     <use xlink:href="#SourceSansPro-Bold-73" x="255.799942"/>
     <use xlink:href="#SourceSansPro-Bold-65" x="300.09993"/>
     <use xlink:href="#SourceSansPro-Bold-20" x="351.899918"/>
     <use xlink:href="#SourceSansPro-Bold-44" x="371.899902"/>
     <use xlink:href="#SourceSansPro-Bold-69" x="435.399887"/>
     <use xlink:href="#SourceSansPro-Bold-61" x="462.999878"/>
     <use xlink:href="#SourceSansPro-Bold-67" x="515.699875"/>
     <use xlink:href="#SourceSansPro-Bold-72" x="569.099869"/>
     <use xlink:href="#SourceSansPro-Bold-61" x="608.899857"/>
     <use xlink:href="#SourceSansPro-Bold-6d" x="661.599854"/>
    </g>
    <!-- from Canva -->
    <g style="fill: #275258" transform="translate(235.498437 171.723088) scale(0.16 -0.16)">
     <defs>
      <path id="SourceSansPro-Bold-66" d="M 576 0 
L 1517 0 
L 1517 2438 
L 2086 2438 
L 2086 3174 
L 1517 3174 
L 1517 3366 
C 1517 3693 1651 3821 1882 3821 
C 1984 3821 2099 3795 2208 3757 
L 2381 4448 
C 2240 4499 2010 4563 1747 4563 
C 890 4563 576 4013 576 3341 
L 576 3168 
L 154 3136 
L 154 2438 
L 576 2438 
L 576 0 
z
" transform="scale(0.015625)"/>
      <path id="SourceSansPro-Bold-6f" d="M 1779 -77 
C 2579 -77 3322 531 3322 1587 
C 3322 2643 2579 3251 1779 3251 
C 973 3251 230 2643 230 1587 
C 230 531 973 -77 1779 -77 
z
M 1779 685 
C 1389 685 1197 1037 1197 1587 
C 1197 2138 1389 2490 1779 2490 
C 2163 2490 2362 2138 2362 1587 
C 2362 1037 2163 685 1779 685 
z
" transform="scale(0.015625)"/>
      <path id="SourceSansPro-Bold-76" d="M 1146 0 
L 2234 0 
L 3270 3174 
L 2368 3174 
L 1952 1677 
C 1869 1363 1786 1030 1709 698 
L 1683 698 
C 1600 1030 1517 1363 1434 1677 
L 1024 3174 
L 77 3174 
L 1146 0 
z
" transform="scale(0.015625)"/>
     </defs>
     <use xlink:href="#SourceSansPro-Bold-66"/>
     <use xlink:href="#SourceSansPro-Bold-72" x="34.099991"/>
     <use xlink:href="#SourceSansPro-Bold-6f" x="73.899979"/>
     <use xlink:href="#SourceSansPro-Bold-6d" x="129.399963"/>
     <use xlink:href="#SourceSansPro-Bold-20" x="215.099945"/>
     <use xlink:href="#SourceSansPro-Bold-43" x="235.09993"/>
     <use xlink:href="#SourceSansPro-Bold-61" x="293.299927"/>
     <use xlink:href="#SourceSansPro-Bold-6e" x="345.999924"/>
     <use xlink:href="#SourceSansPro-Bold-76" x="403.199921"/>
     <use xlink:href="#SourceSansPro-Bold-61" x="455.499908"/>
    </g>
    <!--  -->
    <g style="fill: #275258" transform="translate(276.154687 188.126088) scale(0.16 -0.16)"/>
    <!-- (House illustration -->
    <g style="fill: #275258" transform="translate(210.117187 205.087088) scale(0.16 -0.16)">
     <defs>
      <path id="SourceSansPro-Bold-28" d="M 1306 -1146 
L 1894 -902 
C 1427 -70 1222 870 1222 1779 
C 1222 2688 1427 3629 1894 4461 
L 1306 4704 
C 768 3827 461 2906 461 1779 
C 461 653 768 -269 1306 -1146 
z
" transform="scale(0.015625)"/>
      <path id="SourceSansPro-Bold-75" d="M 1370 -77 
C 1805 -77 2099 122 2368 442 
L 2387 442 
L 2458 0 
L 3226 0 
L 3226 3174 
L 2285 3174 
L 2285 1075 
C 2099 826 1958 723 1722 723 
C 1446 723 1325 870 1325 1325 
L 1325 3174 
L 384 3174 
L 384 1203 
C 384 410 678 -77 1370 -77 
z
" transform="scale(0.015625)"/>
      <path id="SourceSansPro-Bold-6c" d="M 1280 -77 
C 1491 -77 1651 -45 1754 0 
L 1638 698 
C 1587 685 1562 685 1523 685 
C 1446 685 1357 749 1357 947 
L 1357 4486 
L 416 4486 
L 416 986 
C 416 346 634 -77 1280 -77 
z
" transform="scale(0.015625)"/>
      <path id="SourceSansPro-Bold-74" d="M 1638 -77 
C 1946 -77 2176 -13 2342 38 
L 2195 723 
C 2112 691 1997 659 1894 659 
C 1645 659 1485 806 1485 1165 
L 1485 2438 
L 2246 2438 
L 2246 3174 
L 1485 3174 
L 1485 4019 
L 704 4019 
L 595 3174 
L 109 3136 
L 109 2438 
L 544 2438 
L 544 1152 
C 544 416 851 -77 1638 -77 
z
" transform="scale(0.015625)"/>
     </defs>
     <use xlink:href="#SourceSansPro-Bold-28"/>
     <use xlink:href="#SourceSansPro-Bold-48" x="34.399994"/>
     <use xlink:href="#SourceSansPro-Bold-6f" x="101.799988"/>
     <use xlink:href="#SourceSansPro-Bold-75" x="157.299973"/>
     <use xlink:href="#SourceSansPro-Bold-73" x="214.09996"/>
     <use xlink:href="#SourceSansPro-Bold-65" x="258.399948"/>
     <use xlink:href="#SourceSansPro-Bold-20" x="310.199936"/>
     <use xlink:href="#SourceSansPro-Bold-69" x="330.199921"/>
     <use xlink:href="#SourceSansPro-Bold-6c" x="357.799911"/>
     <use xlink:href="#SourceSansPro-Bold-6c" x="386.399902"/>
     <use xlink:href="#SourceSansPro-Bold-75" x="414.999893"/>
     <use xlink:href="#SourceSansPro-Bold-73" x="471.799881"/>
     <use xlink:href="#SourceSansPro-Bold-74" x="516.099869"/>
     <use xlink:href="#SourceSansPro-Bold-72" x="554.399857"/>
     <use xlink:href="#SourceSansPro-Bold-61" x="594.199844"/>
     <use xlink:href="#SourceSansPro-Bold-74" x="646.899841"/>
     <use xlink:href="#SourceSansPro-Bold-69" x="685.199829"/>
     <use xlink:href="#SourceSansPro-Bold-6f" x="712.79982"/>
     <use xlink:href="#SourceSansPro-Bold-6e" x="768.299805"/>
    </g>
    <!-- showing water heater, -->
    <g style="fill: #275258" transform="translate(196.605937 221.895088) scale(0.16 -0.16)">
     <defs>
      <path id="SourceSansPro-Bold-68" d="M 416 0 
L 1357 0 
L 1357 2144 
C 1562 2342 1709 2451 1946 2451 
C 2214 2451 2336 2310 2336 1850 
L 2336 0 
L 3277 0 
L 3277 1971 
C 3277 2765 2982 3251 2291 3251 
C 1862 3251 1549 3027 1312 2816 
L 1357 3386 
L 1357 4486 
L 416 4486 
L 416 0 
z
" transform="scale(0.015625)"/>
      <path id="SourceSansPro-Bold-77" d="M 947 0 
L 2022 0 
L 2304 1267 
C 2362 1562 2406 1856 2464 2195 
L 2490 2195 
C 2547 1856 2598 1562 2662 1267 
L 2950 0 
L 4051 0 
L 4813 3174 
L 3942 3174 
L 3642 1702 
C 3584 1389 3552 1082 3494 762 
L 3469 762 
C 3405 1082 3347 1389 3270 1702 
L 2912 3174 
L 2099 3174 
L 1747 1702 
C 1670 1402 1619 1082 1562 762 
L 1536 762 
C 1485 1082 1446 1389 1395 1702 
L 1088 3174 
L 154 3174 
L 947 0 
z
" transform="scale(0.015625)"/>
      <path id="SourceSansPro-Bold-2c" d="M 486 -1242 
C 1235 -1018 1638 -486 1638 218 
C 1638 774 1408 1107 986 1107 
C 659 1107 397 896 397 570 
C 397 230 666 38 966 38 
C 986 38 998 38 1018 38 
C 1024 -282 768 -576 294 -742 
L 486 -1242 
z
" transform="scale(0.015625)"/>
     </defs>
     <use xlink:href="#SourceSansPro-Bold-73"/>
     <use xlink:href="#SourceSansPro-Bold-68" x="44.299988"/>
     <use xlink:href="#SourceSansPro-Bold-6f" x="101.399979"/>
     <use xlink:href="#SourceSansPro-Bold-77" x="156.899963"/>
     <use xlink:href="#SourceSansPro-Bold-69" x="234.499954"/>
     <use xlink:href="#SourceSansPro-Bold-6e" x="262.099945"/>
     <use xlink:href="#SourceSansPro-Bold-67" x="319.299942"/>
     <use xlink:href="#SourceSansPro-Bold-20" x="372.699936"/>
     <use xlink:href="#SourceSansPro-Bold-77" x="392.699921"/>
     <use xlink:href="#SourceSansPro-Bold-61" x="470.299911"/>
     <use xlink:href="#SourceSansPro-Bold-74" x="522.999908"/>
     <use xlink:href="#SourceSansPro-Bold-65" x="561.299896"/>
     <use xlink:href="#SourceSansPro-Bold-72" x="613.099884"/>
     <use xlink:href="#SourceSansPro-Bold-20" x="652.899872"/>
     <use xlink:href="#SourceSansPro-Bold-68" x="672.899857"/>
     <use xlink:href="#SourceSansPro-Bold-65" x="729.999847"/>
     <use xlink:href="#SourceSansPro-Bold-61" x="781.799835"/>
     <use xlink:href="#SourceSansPro-Bold-74" x="834.499832"/>
     <use xlink:href="#SourceSansPro-Bold-65" x="872.79982"/>
     <use xlink:href="#SourceSansPro-Bold-72" x="924.599808"/>
     <use xlink:href="#SourceSansPro-Bold-2c" x="964.399796"/>
    </g>
    <!-- HVAC, appliances, etc.) -->
    <g style="fill: #275258" transform="translate(194.883437 239.382088) scale(0.16 -0.16)">
     <defs>
      <path id="SourceSansPro-Bold-56" d="M 1216 0 
L 2349 0 
L 3603 4173 
L 2643 4173 
L 2150 2227 
C 2029 1773 1939 1350 1818 890 
L 1792 890 
C 1664 1350 1581 1773 1453 2227 
L 954 4173 
L -45 4173 
L 1216 0 
z
" transform="scale(0.015625)"/>
      <path id="SourceSansPro-Bold-70" d="M 416 -1178 
L 1357 -1178 
L 1357 -250 
L 1325 256 
C 1549 45 1805 -77 2080 -77 
C 2765 -77 3418 550 3418 1638 
C 3418 2618 2944 3251 2176 3251 
C 1843 3251 1523 3085 1274 2861 
L 1248 2861 
L 1184 3174 
L 416 3174 
L 416 -1178 
z
M 1862 691 
C 1702 691 1523 742 1357 896 
L 1357 2195 
C 1542 2394 1709 2483 1901 2483 
C 2278 2483 2451 2195 2451 1626 
C 2451 973 2189 691 1862 691 
z
" transform="scale(0.015625)"/>
      <path id="SourceSansPro-Bold-63" d="M 1798 -77 
C 2144 -77 2534 26 2848 301 
L 2477 915 
C 2310 787 2112 685 1907 685 
C 1498 685 1197 1037 1197 1587 
C 1197 2138 1485 2490 1939 2490 
C 2086 2490 2214 2432 2368 2304 
L 2810 2912 
C 2573 3110 2272 3251 1882 3251 
C 1005 3251 230 2643 230 1587 
C 230 531 915 -77 1798 -77 
z
" transform="scale(0.015625)"/>
      <path id="SourceSansPro-Bold-2e" d="M 960 -77 
C 1286 -77 1530 179 1530 512 
C 1530 851 1286 1107 960 1107 
C 634 1107 390 851 390 512 
C 390 179 634 -77 960 -77 
z
" transform="scale(0.015625)"/>
      <path id="SourceSansPro-Bold-29" d="M 896 -1146 
C 1434 -269 1741 653 1741 1779 
C 1741 2906 1434 3827 896 4704 
L 307 4461 
C 781 3629 986 2688 986 1779 
C 986 870 781 -70 307 -902 
L 896 -1146 
z
" transform="scale(0.015625)"/>
     </defs>
     <use xlink:href="#SourceSansPro-Bold-48"/>
     <use xlink:href="#SourceSansPro-Bold-56" x="67.399994"/>
     <use xlink:href="#SourceSansPro-Bold-41" x="122.999985"/>
     <use xlink:href="#SourceSansPro-Bold-43" x="180.299973"/>
     <use xlink:href="#SourceSansPro-Bold-2c" x="238.499969"/>
     <use xlink:href="#SourceSansPro-Bold-20" x="268.499954"/>
     <use xlink:href="#SourceSansPro-Bold-61" x="288.499939"/>
     <use xlink:href="#SourceSansPro-Bold-70" x="341.199936"/>
     <use xlink:href="#SourceSansPro-Bold-70" x="398.499924"/>
     <use xlink:href="#SourceSansPro-Bold-6c" x="455.799911"/>
     <use xlink:href="#SourceSansPro-Bold-69" x="484.399902"/>
     <use xlink:href="#SourceSansPro-Bold-61" x="511.999893"/>
     <use xlink:href="#SourceSansPro-Bold-6e" x="564.69989"/>
     <use xlink:href="#SourceSansPro-Bold-63" x="621.899887"/>
     <use xlink:href="#SourceSansPro-Bold-65" x="668.599884"/>
     <use xlink:href="#SourceSansPro-Bold-73" x="720.399872"/>
     <use xlink:href="#SourceSansPro-Bold-2c" x="764.69986"/>
     <use xlink:href="#SourceSansPro-Bold-20" x="794.699844"/>
     <use xlink:href="#SourceSansPro-Bold-65" x="814.699829"/>
     <use xlink:href="#SourceSansPro-Bold-74" x="866.499817"/>
     <use xlink:href="#SourceSansPro-Bold-63" x="904.799805"/>
     <use xlink:href="#SourceSansPro-Bold-2e" x="951.499802"/>
     <use xlink:href="#SourceSansPro-Bold-29" x="981.499786"/>
    </g>
   </g>
   <g id="text_2">
    <!-- Residential End Uses -->
    <g style="fill: #275258" transform="translate(193.835625 19.816875) scale(0.18 -0.18)">
     <use xlink:href="#SourceSansPro-Bold-52"/>
     <use xlink:href="#SourceSansPro-Bold-65" x="61.299988"/>
     <use xlink:href="#SourceSansPro-Bold-73" x="113.099976"/>
     <use xlink:href="#SourceSansPro-Bold-69" x="157.399963"/>
     <use xlink:href="#SourceSansPro-Bold-64" x="184.999954"/>
     <use xlink:href="#SourceSansPro-Bold-65" x="242.299942"/>
     <use xlink:href="#SourceSansPro-Bold-6e" x="294.09993"/>
     <use xlink:href="#SourceSansPro-Bold-74" x="351.299927"/>
     <use xlink:href="#SourceSansPro-Bold-69" x="389.599915"/>
     <use xlink:href="#SourceSansPro-Bold-61" x="417.199905"/>
     <use xlink:href="#SourceSansPro-Bold-6c" x="469.899902"/>
     <use xlink:href="#SourceSansPro-Bold-20" x="498.499893"/>
     <use xlink:href="#SourceSansPro-Bold-45" x="518.499878"/>
     <use xlink:href="#SourceSansPro-Bold-6e" x="573.299866"/>
     <use xlink:href="#SourceSansPro-Bold-64" x="630.499863"/>
     <use xlink:href="#SourceSansPro-Bold-20" x="687.79985"/>
     <use xlink:href="#SourceSansPro-Bold-55" x="707.799835"/>
     <use xlink:href="#SourceSansPro-Bold-73" x="774.29982"/>
     <use xlink:href="#SourceSansPro-Bold-65" x="818.599808"/>
     <use xlink:href="#SourceSansPro-Bold-73" x="870.399796"/>
    </g>
   </g>
  </g>
  <g id="axes_2">
   <g id="patch_3">
    <path d="M 595.370625 329.5373 
L 1133.28 329.5373 
L 1133.28 39.816875 
L 595.370625 39.816875 
L 595.370625 329.5373 
z
" style="fill: none"/>
   </g>
   <g id="matplotlib.axis_1">
    <g id="xtick_1">
     <g id="line2d_1">
      <path d="M 651.712911 329.5373 
L 651.712911 39.816875 
" clip-path="url(#p54ad3da4e6)" style="fill: none; stroke: #ffffff; stroke-width: 0.8; stroke-linecap: round"/>
     </g>
     <g id="line2d_2"/>
     <g id="text_3">
      <!-- Water Heating -->
      <g style="fill: #262626" transform="translate(603.627993 384.769453) rotate(-45) scale(0.11 -0.11)">
       <defs>
        <path id="SourceSansPro-Regular-57" d="M 1037 0 
L 1670 0 
L 2291 2528 
C 2362 2854 2438 3155 2502 3482 
L 2528 3482 
C 2592 3155 2656 2854 2733 2528 
L 3366 0 
L 4006 0 
L 4877 4198 
L 4365 4198 
L 3923 1914 
C 3840 1466 3763 1011 3686 557 
L 3661 557 
C 3558 1011 3456 1472 3354 1914 
L 2771 4198 
L 2285 4198 
L 1702 1914 
C 1606 1466 1504 1011 1408 557 
L 1382 557 
C 1306 1011 1216 1459 1139 1914 
L 698 4198 
L 147 4198 
L 1037 0 
z
" transform="scale(0.015625)"/>
        <path id="SourceSansPro-Regular-61" d="M 1242 -77 
C 1632 -77 1978 128 2272 371 
L 2291 371 
L 2336 0 
L 2771 0 
L 2771 1907 
C 2771 2682 2451 3187 1690 3187 
C 1190 3187 755 2970 467 2784 
L 672 2419 
C 915 2586 1242 2752 1600 2752 
C 2112 2752 2240 2368 2240 1971 
C 915 1824 333 1485 333 806 
C 333 250 723 -77 1242 -77 
z
M 1395 346 
C 1088 346 845 493 845 845 
C 845 1242 1203 1498 2240 1626 
L 2240 762 
C 1939 493 1696 346 1395 346 
z
" transform="scale(0.015625)"/>
        <path id="SourceSansPro-Regular-74" d="M 1504 -77 
C 1696 -77 1907 -19 2080 38 
L 1978 435 
C 1875 397 1734 352 1626 352 
C 1267 352 1146 570 1146 954 
L 1146 2682 
L 1984 2682 
L 1984 3110 
L 1146 3110 
L 1146 3981 
L 704 3981 
L 640 3110 
L 154 3078 
L 154 2682 
L 614 2682 
L 614 960 
C 614 346 838 -77 1504 -77 
z
" transform="scale(0.015625)"/>
        <path id="SourceSansPro-Regular-65" d="M 1786 -77 
C 2208 -77 2541 70 2810 243 
L 2624 589 
C 2394 442 2144 346 1850 346 
C 1254 346 851 768 813 1427 
L 2912 1427 
C 2925 1504 2931 1619 2931 1728 
C 2931 2618 2483 3187 1690 3187 
C 979 3187 294 2566 294 1549 
C 294 531 954 -77 1786 -77 
z
M 806 1805 
C 870 2419 1267 2771 1702 2771 
C 2189 2771 2470 2432 2470 1805 
L 806 1805 
z
" transform="scale(0.015625)"/>
        <path id="SourceSansPro-Regular-72" d="M 525 0 
L 1050 0 
L 1050 1997 
C 1261 2522 1574 2714 1837 2714 
C 1965 2714 2035 2694 2138 2662 
L 2240 3123 
C 2138 3168 2042 3187 1907 3187 
C 1555 3187 1235 2938 1024 2547 
L 1005 2547 
L 960 3110 
L 525 3110 
L 525 0 
z
" transform="scale(0.015625)"/>
        <path id="SourceSansPro-Regular-20" transform="scale(0.015625)"/>
        <path id="SourceSansPro-Regular-48" d="M 576 0 
L 1107 0 
L 1107 1978 
L 3059 1978 
L 3059 0 
L 3597 0 
L 3597 4198 
L 3059 4198 
L 3059 2438 
L 1107 2438 
L 1107 4198 
L 576 4198 
L 576 0 
z
" transform="scale(0.015625)"/>
        <path id="SourceSansPro-Regular-69" d="M 525 0 
L 1050 0 
L 1050 3110 
L 525 3110 
L 525 0 
z
M 794 3750 
C 998 3750 1158 3891 1158 4090 
C 1158 4294 998 4429 794 4429 
C 589 4429 429 4294 429 4090 
C 429 3891 589 3750 794 3750 
z
" transform="scale(0.015625)"/>
        <path id="SourceSansPro-Regular-6e" d="M 525 0 
L 1050 0 
L 1050 2253 
C 1363 2566 1581 2733 1901 2733 
C 2310 2733 2490 2483 2490 1901 
L 2490 0 
L 3014 0 
L 3014 1971 
C 3014 2765 2720 3187 2067 3187 
C 1638 3187 1318 2957 1024 2662 
L 1005 2662 
L 960 3110 
L 525 3110 
L 525 0 
z
" transform="scale(0.015625)"/>
        <path id="SourceSansPro-Regular-67" d="M 1574 -1434 
C 2541 -1434 3149 -934 3149 -358 
C 3149 160 2784 384 2061 384 
L 1459 384 
C 1037 384 909 525 909 723 
C 909 896 998 998 1107 1094 
C 1248 1024 1421 986 1574 986 
C 2208 986 2714 1402 2714 2067 
C 2714 2330 2605 2566 2458 2707 
L 3098 2707 
L 3098 3110 
L 2016 3110 
C 1901 3155 1747 3187 1574 3187 
C 941 3187 403 2758 403 2080 
C 403 1709 602 1408 806 1242 
L 806 1216 
C 646 1107 467 902 467 640 
C 467 397 589 230 742 134 
L 742 109 
C 461 -83 288 -333 288 -595 
C 288 -1133 813 -1434 1574 -1434 
z
M 1574 1338 
C 1216 1338 915 1626 915 2080 
C 915 2534 1210 2803 1574 2803 
C 1939 2803 2234 2534 2234 2080 
C 2234 1626 1933 1338 1574 1338 
z
M 1651 -1069 
C 1088 -1069 749 -858 749 -525 
C 749 -346 845 -160 1069 0 
C 1203 -38 1350 -51 1472 -51 
L 2010 -51 
C 2413 -51 2637 -147 2637 -435 
C 2637 -762 2246 -1069 1651 -1069 
z
" transform="scale(0.015625)"/>
       </defs>
       <use xlink:href="#SourceSansPro-Regular-57"/>
       <use xlink:href="#SourceSansPro-Regular-61" x="78.599991"/>
       <use xlink:href="#SourceSansPro-Regular-74" x="128.999985"/>
       <use xlink:href="#SourceSansPro-Regular-65" x="162.799973"/>
       <use xlink:href="#SourceSansPro-Regular-72" x="212.399963"/>
       <use xlink:href="#SourceSansPro-Regular-20" x="247.09996"/>
       <use xlink:href="#SourceSansPro-Regular-48" x="267.099945"/>
       <use xlink:href="#SourceSansPro-Regular-65" x="332.299942"/>
       <use xlink:href="#SourceSansPro-Regular-61" x="381.899933"/>
       <use xlink:href="#SourceSansPro-Regular-74" x="432.299927"/>
       <use xlink:href="#SourceSansPro-Regular-69" x="466.099915"/>
       <use xlink:href="#SourceSansPro-Regular-6e" x="490.699905"/>
       <use xlink:href="#SourceSansPro-Regular-67" x="545.399902"/>
      </g>
     </g>
    </g>
    <g id="xtick_2">
     <g id="line2d_3">
      <path d="M 758.019112 329.5373 
L 758.019112 39.816875 
" clip-path="url(#p54ad3da4e6)" style="fill: none; stroke: #ffffff; stroke-width: 0.8; stroke-linecap: round"/>
     </g>
     <g id="line2d_4"/>
     <g id="text_4">
      <!-- Space Heating -->
      <g style="fill: #262626" transform="translate(709.358122 385.345525) rotate(-45) scale(0.11 -0.11)">
       <defs>
        <path id="SourceSansPro-Regular-53" d="M 1741 -77 
C 2624 -77 3168 454 3168 1120 
C 3168 1741 2790 2029 2304 2240 
L 1709 2496 
C 1376 2637 1011 2790 1011 3194 
C 1011 3571 1325 3808 1792 3808 
C 2182 3808 2490 3654 2746 3411 
L 3034 3757 
C 2733 4064 2291 4275 1792 4275 
C 1030 4275 474 3802 474 3162 
C 474 2547 928 2246 1325 2080 
L 1926 1818 
C 2323 1638 2624 1504 2624 1075 
C 2624 666 2298 390 1747 390 
C 1312 390 890 602 589 915 
L 269 544 
C 634 166 1152 -77 1741 -77 
z
" transform="scale(0.015625)"/>
        <path id="SourceSansPro-Regular-70" d="M 525 -1312 
L 1050 -1312 
L 1050 -262 
L 1037 282 
C 1325 58 1613 -77 1901 -77 
C 2611 -77 3245 544 3245 1600 
C 3245 2566 2816 3187 2016 3187 
C 1651 3187 1306 2989 1024 2752 
L 1005 2752 
L 960 3110 
L 525 3110 
L 525 -1312 
z
M 1811 365 
C 1606 365 1331 454 1050 691 
L 1050 2323 
C 1357 2598 1619 2746 1882 2746 
C 2470 2746 2701 2285 2701 1600 
C 2701 832 2323 365 1811 365 
z
" transform="scale(0.015625)"/>
        <path id="SourceSansPro-Regular-63" d="M 1754 -77 
C 2125 -77 2477 70 2758 320 
L 2528 672 
C 2336 499 2086 358 1798 358 
C 1229 358 838 838 838 1549 
C 838 2266 1248 2752 1811 2752 
C 2061 2752 2253 2637 2432 2477 
L 2701 2822 
C 2483 3021 2202 3187 1792 3187 
C 992 3187 294 2592 294 1549 
C 294 518 928 -77 1754 -77 
z
" transform="scale(0.015625)"/>
       </defs>
       <use xlink:href="#SourceSansPro-Regular-53"/>
       <use xlink:href="#SourceSansPro-Regular-70" x="53.399994"/>
       <use xlink:href="#SourceSansPro-Regular-61" x="108.899979"/>
       <use xlink:href="#SourceSansPro-Regular-63" x="159.299973"/>
       <use xlink:href="#SourceSansPro-Regular-65" x="204.899963"/>
       <use xlink:href="#SourceSansPro-Regular-20" x="254.499954"/>
       <use xlink:href="#SourceSansPro-Regular-48" x="274.499939"/>
       <use xlink:href="#SourceSansPro-Regular-65" x="339.699936"/>
       <use xlink:href="#SourceSansPro-Regular-61" x="389.299927"/>
       <use xlink:href="#SourceSansPro-Regular-74" x="439.699921"/>
       <use xlink:href="#SourceSansPro-Regular-69" x="473.499908"/>
       <use xlink:href="#SourceSansPro-Regular-6e" x="498.099899"/>
       <use xlink:href="#SourceSansPro-Regular-67" x="552.799896"/>
      </g>
     </g>
    </g>
    <g id="xtick_3">
     <g id="line2d_5">
      <path d="M 864.325312 329.5373 
L 864.325312 39.816875 
" clip-path="url(#p54ad3da4e6)" style="fill: none; stroke: #ffffff; stroke-width: 0.8; stroke-linecap: round"/>
     </g>
     <g id="line2d_6"/>
     <g id="text_5">
      <!-- Space Cooling -->
      <g style="fill: #262626" transform="translate(816.286577 384.871542) rotate(-45) scale(0.11 -0.11)">
       <defs>
        <path id="SourceSansPro-Regular-43" d="M 2163 -77 
C 2707 -77 3117 147 3450 531 
L 3155 864 
C 2886 570 2586 390 2182 390 
C 1389 390 883 1056 883 2112 
C 883 3155 1408 3808 2202 3808 
C 2560 3808 2835 3648 3059 3411 
L 3347 3757 
C 3104 4032 2707 4275 2195 4275 
C 1126 4275 333 3450 333 2099 
C 333 730 1114 -77 2163 -77 
z
" transform="scale(0.015625)"/>
        <path id="SourceSansPro-Regular-6f" d="M 1734 -77 
C 2496 -77 3174 518 3174 1549 
C 3174 2592 2496 3187 1734 3187 
C 973 3187 294 2592 294 1549 
C 294 518 973 -77 1734 -77 
z
M 1734 358 
C 1203 358 838 838 838 1549 
C 838 2266 1203 2752 1734 2752 
C 2272 2752 2630 2266 2630 1549 
C 2630 838 2272 358 1734 358 
z
" transform="scale(0.015625)"/>
        <path id="SourceSansPro-Regular-6c" d="M 1082 -77 
C 1222 -77 1312 -58 1382 -26 
L 1312 371 
C 1254 358 1229 358 1197 358 
C 1120 358 1050 422 1050 589 
L 1050 4557 
L 525 4557 
L 525 627 
C 525 173 685 -77 1082 -77 
z
" transform="scale(0.015625)"/>
       </defs>
       <use xlink:href="#SourceSansPro-Regular-53"/>
       <use xlink:href="#SourceSansPro-Regular-70" x="53.399994"/>
       <use xlink:href="#SourceSansPro-Regular-61" x="108.899979"/>
       <use xlink:href="#SourceSansPro-Regular-63" x="159.299973"/>
       <use xlink:href="#SourceSansPro-Regular-65" x="204.899963"/>
       <use xlink:href="#SourceSansPro-Regular-20" x="254.499954"/>
       <use xlink:href="#SourceSansPro-Regular-43" x="274.499939"/>
       <use xlink:href="#SourceSansPro-Regular-6f" x="331.59993"/>
       <use xlink:href="#SourceSansPro-Regular-6f" x="385.799927"/>
       <use xlink:href="#SourceSansPro-Regular-6c" x="439.999924"/>
       <use xlink:href="#SourceSansPro-Regular-69" x="465.499908"/>
       <use xlink:href="#SourceSansPro-Regular-6e" x="490.099899"/>
       <use xlink:href="#SourceSansPro-Regular-67" x="544.799896"/>
      </g>
     </g>
    </g>
    <g id="xtick_4">
     <g id="line2d_7">
      <path d="M 970.631513 329.5373 
L 970.631513 39.816875 
" clip-path="url(#p54ad3da4e6)" style="fill: none; stroke: #ffffff; stroke-width: 0.8; stroke-linecap: round"/>
     </g>
     <g id="line2d_8"/>
     <g id="text_6">
      <!-- Clothes Drying -->
      <g style="fill: #262626" transform="translate(921.511125 385.953194) rotate(-45) scale(0.11 -0.11)">
       <defs>
        <path id="SourceSansPro-Regular-68" d="M 525 0 
L 1050 0 
L 1050 2253 
C 1363 2566 1581 2733 1901 2733 
C 2310 2733 2490 2483 2490 1901 
L 2490 0 
L 3014 0 
L 3014 1971 
C 3014 2765 2720 3187 2067 3187 
C 1638 3187 1325 2957 1030 2675 
L 1050 3315 
L 1050 4557 
L 525 4557 
L 525 0 
z
" transform="scale(0.015625)"/>
        <path id="SourceSansPro-Regular-73" d="M 1338 -77 
C 2074 -77 2477 346 2477 851 
C 2477 1440 1978 1626 1530 1792 
C 1178 1926 838 2035 838 2330 
C 838 2566 1018 2778 1408 2778 
C 1683 2778 1907 2662 2118 2502 
L 2368 2835 
C 2131 3027 1792 3187 1402 3187 
C 730 3187 333 2803 333 2304 
C 333 1779 819 1568 1261 1408 
C 1600 1280 1971 1139 1971 819 
C 1971 550 1766 333 1357 333 
C 986 333 710 486 442 704 
L 179 352 
C 474 109 896 -77 1338 -77 
z
" transform="scale(0.015625)"/>
        <path id="SourceSansPro-Regular-44" d="M 576 0 
L 1651 0 
C 2918 0 3610 781 3610 2118 
C 3610 3450 2918 4198 1626 4198 
L 576 4198 
L 576 0 
z
M 1107 435 
L 1107 3763 
L 1587 3763 
C 2566 3763 3059 3174 3059 2118 
C 3059 1056 2566 435 1587 435 
L 1107 435 
z
" transform="scale(0.015625)"/>
        <path id="SourceSansPro-Regular-79" d="M 576 -1338 
C 1203 -1338 1523 -870 1741 -256 
L 2912 3110 
L 2400 3110 
L 1843 1389 
C 1760 1114 1670 794 1581 512 
L 1555 512 
C 1459 800 1350 1120 1254 1389 
L 621 3110 
L 77 3110 
L 1325 -6 
L 1254 -237 
C 1126 -621 902 -902 550 -902 
C 474 -902 378 -877 314 -858 
L 211 -1274 
C 314 -1312 435 -1338 576 -1338 
z
" transform="scale(0.015625)"/>
       </defs>
       <use xlink:href="#SourceSansPro-Regular-43"/>
       <use xlink:href="#SourceSansPro-Regular-6c" x="57.099991"/>
       <use xlink:href="#SourceSansPro-Regular-6f" x="82.599976"/>
       <use xlink:href="#SourceSansPro-Regular-74" x="136.799973"/>
       <use xlink:href="#SourceSansPro-Regular-68" x="170.59996"/>
       <use xlink:href="#SourceSansPro-Regular-65" x="224.999954"/>
       <use xlink:href="#SourceSansPro-Regular-73" x="274.599945"/>
       <use xlink:href="#SourceSansPro-Regular-20" x="316.499939"/>
       <use xlink:href="#SourceSansPro-Regular-44" x="336.499924"/>
       <use xlink:href="#SourceSansPro-Regular-72" x="397.999908"/>
       <use xlink:href="#SourceSansPro-Regular-79" x="432.699905"/>
       <use xlink:href="#SourceSansPro-Regular-69" x="479.399902"/>
       <use xlink:href="#SourceSansPro-Regular-6e" x="503.999893"/>
       <use xlink:href="#SourceSansPro-Regular-67" x="558.69989"/>
      </g>
     </g>
    </g>
    <g id="xtick_5">
     <g id="line2d_9">
      <path d="M 1076.937714 329.5373 
L 1076.937714 39.816875 
" clip-path="url(#p54ad3da4e6)" style="fill: none; stroke: #ffffff; stroke-width: 0.8; stroke-linecap: round"/>
     </g>
     <g id="line2d_10"/>
     <g id="text_7">
      <!-- Other Appliances -->
      <g style="fill: #262626" transform="translate(1019.60406 394.314732) rotate(-45) scale(0.11 -0.11)">
       <defs>
        <path id="SourceSansPro-Regular-4f" d="M 2125 -77 
C 3181 -77 3923 768 3923 2118 
C 3923 3456 3181 4275 2125 4275 
C 1069 4275 333 3462 333 2118 
C 333 768 1069 -77 2125 -77 
z
M 2125 390 
C 1376 390 883 1069 883 2118 
C 883 3162 1376 3808 2125 3808 
C 2874 3808 3366 3162 3366 2118 
C 3366 1069 2874 390 2125 390 
z
" transform="scale(0.015625)"/>
        <path id="SourceSansPro-Regular-41" d="M 1299 2349 
C 1453 2816 1587 3277 1715 3763 
L 1741 3763 
C 1875 3277 2010 2816 2163 2349 
L 2362 1709 
L 1101 1709 
L 1299 2349 
z
M 19 0 
L 563 0 
L 966 1280 
L 2496 1280 
L 2893 0 
L 3462 0 
L 2042 4198 
L 1440 4198 
L 19 0 
z
" transform="scale(0.015625)"/>
       </defs>
       <use xlink:href="#SourceSansPro-Regular-4f"/>
       <use xlink:href="#SourceSansPro-Regular-74" x="66.399994"/>
       <use xlink:href="#SourceSansPro-Regular-68" x="100.199982"/>
       <use xlink:href="#SourceSansPro-Regular-65" x="154.599976"/>
       <use xlink:href="#SourceSansPro-Regular-72" x="204.199966"/>
       <use xlink:href="#SourceSansPro-Regular-20" x="238.899963"/>
       <use xlink:href="#SourceSansPro-Regular-41" x="258.899948"/>
       <use xlink:href="#SourceSansPro-Regular-70" x="313.299942"/>
       <use xlink:href="#SourceSansPro-Regular-70" x="368.799927"/>
       <use xlink:href="#SourceSansPro-Regular-6c" x="424.299911"/>
       <use xlink:href="#SourceSansPro-Regular-69" x="449.799896"/>
       <use xlink:href="#SourceSansPro-Regular-61" x="474.399887"/>
       <use xlink:href="#SourceSansPro-Regular-6e" x="524.799881"/>
       <use xlink:href="#SourceSansPro-Regular-63" x="579.499878"/>
       <use xlink:href="#SourceSansPro-Regular-65" x="625.099869"/>
       <use xlink:href="#SourceSansPro-Regular-73" x="674.69986"/>
      </g>
     </g>
    </g>
    <g id="text_8">
     <!-- End Use -->
     <g style="fill: #275258" transform="translate(839.692969 409.722383) scale(0.14 -0.14)">
      <use xlink:href="#SourceSansPro-Bold-45"/>
      <use xlink:href="#SourceSansPro-Bold-6e" x="54.799988"/>
      <use xlink:href="#SourceSansPro-Bold-64" x="111.999985"/>
      <use xlink:href="#SourceSansPro-Bold-20" x="169.299973"/>
      <use xlink:href="#SourceSansPro-Bold-55" x="189.299957"/>
      <use xlink:href="#SourceSansPro-Bold-73" x="255.799942"/>
      <use xlink:href="#SourceSansPro-Bold-65" x="300.09993"/>
     </g>
    </g>
   </g>
   <g id="matplotlib.axis_2">
    <g id="ytick_1">
     <g id="line2d_11">
      <path d="M 595.370625 329.5373 
L 1133.28 329.5373 
" clip-path="url(#p54ad3da4e6)" style="fill: none; stroke: #ffffff; stroke-opacity: 0.3; stroke-width: 0.8; stroke-linecap: round"/>
     </g>
     <g id="line2d_12"/>
     <g id="text_9">
      <!-- 0 -->
      <g style="fill: #262626" transform="translate(586.403281 333.453472) scale(0.11 -0.11)">
       <defs>
        <path id="SourceSansPro-Regular-30" d="M 1594 -77 
C 2406 -77 2899 685 2899 2054 
C 2899 3424 2406 4160 1594 4160 
C 774 4160 282 3424 282 2054 
C 282 685 774 -77 1594 -77 
z
M 1594 346 
C 1114 346 794 858 794 2054 
C 794 3251 1114 3738 1594 3738 
C 2067 3738 2387 3251 2387 2054 
C 2387 858 2067 346 1594 346 
z
" transform="scale(0.015625)"/>
       </defs>
       <use xlink:href="#SourceSansPro-Regular-30"/>
      </g>
     </g>
    </g>
    <g id="ytick_2">
     <g id="line2d_13">
      <path d="M 595.370625 279.587805 
L 1133.28 279.587805 
" clip-path="url(#p54ad3da4e6)" style="fill: none; stroke: #ffffff; stroke-opacity: 0.3; stroke-width: 0.8; stroke-linecap: round"/>
     </g>
     <g id="line2d_14"/>
     <g id="text_10">
      <!-- 20 -->
      <g style="fill: #262626" transform="translate(580.935938 283.503977) scale(0.11 -0.11)">
       <defs>
        <path id="SourceSansPro-Regular-32" d="M 256 0 
L 2893 0 
L 2893 454 
L 1709 454 
C 1498 454 1248 435 1024 416 
C 1990 1427 2688 2189 2688 2957 
C 2688 3680 2221 4160 1466 4160 
C 934 4160 570 3910 230 3539 
L 531 3238 
C 768 3514 1062 3731 1402 3731 
C 1920 3731 2176 3398 2176 2931 
C 2176 2272 1485 1536 256 314 
L 256 0 
z
" transform="scale(0.015625)"/>
       </defs>
       <use xlink:href="#SourceSansPro-Regular-32"/>
       <use xlink:href="#SourceSansPro-Regular-30" x="49.699997"/>
      </g>
     </g>
    </g>
    <g id="ytick_3">
     <g id="line2d_15">
      <path d="M 595.370625 229.63831 
L 1133.28 229.63831 
" clip-path="url(#p54ad3da4e6)" style="fill: none; stroke: #ffffff; stroke-opacity: 0.3; stroke-width: 0.8; stroke-linecap: round"/>
     </g>
     <g id="line2d_16"/>
     <g id="text_11">
      <!-- 40 -->
      <g style="fill: #262626" transform="translate(580.935938 233.554482) scale(0.11 -0.11)">
       <defs>
        <path id="SourceSansPro-Regular-34" d="M 1946 0 
L 2445 0 
L 2445 1126 
L 3002 1126 
L 3002 1549 
L 2445 1549 
L 2445 4083 
L 1856 4083 
L 109 1472 
L 109 1126 
L 1946 1126 
L 1946 0 
z
M 666 1549 
L 1619 2944 
C 1734 3142 1850 3322 1952 3520 
L 1978 3520 
C 1965 3302 1946 2950 1946 2733 
L 1946 1549 
L 666 1549 
z
" transform="scale(0.015625)"/>
       </defs>
       <use xlink:href="#SourceSansPro-Regular-34"/>
       <use xlink:href="#SourceSansPro-Regular-30" x="49.699997"/>
      </g>
     </g>
    </g>
    <g id="ytick_4">
     <g id="line2d_17">
      <path d="M 595.370625 179.688815 
L 1133.28 179.688815 
" clip-path="url(#p54ad3da4e6)" style="fill: none; stroke: #ffffff; stroke-opacity: 0.3; stroke-width: 0.8; stroke-linecap: round"/>
     </g>
     <g id="line2d_18"/>
     <g id="text_12">
      <!-- 60 -->
      <g style="fill: #262626" transform="translate(580.935938 183.604987) scale(0.11 -0.11)">
       <defs>
        <path id="SourceSansPro-Regular-36" d="M 1715 -77 
C 2374 -77 2925 454 2925 1235 
C 2925 2074 2464 2496 1760 2496 
C 1427 2496 1062 2298 806 1984 
C 832 3277 1312 3718 1882 3718 
C 2138 3718 2387 3597 2554 3398 
L 2848 3725 
C 2618 3974 2304 4160 1862 4160 
C 1050 4160 307 3526 307 1888 
C 307 576 915 -77 1715 -77 
z
M 1715 339 
C 1197 339 883 768 819 1562 
C 1075 1939 1408 2099 1670 2099 
C 2176 2099 2426 1766 2426 1235 
C 2426 698 2118 339 1715 339 
z
" transform="scale(0.015625)"/>
       </defs>
       <use xlink:href="#SourceSansPro-Regular-36"/>
       <use xlink:href="#SourceSansPro-Regular-30" x="49.699997"/>
      </g>
     </g>
    </g>
    <g id="ytick_5">
     <g id="line2d_19">
      <path d="M 595.370625 129.73932 
L 1133.28 129.73932 
" clip-path="url(#p54ad3da4e6)" style="fill: none; stroke: #ffffff; stroke-opacity: 0.3; stroke-width: 0.8; stroke-linecap: round"/>
     </g>
     <g id="line2d_20"/>
     <g id="text_13">
      <!-- 80 -->
      <g style="fill: #262626" transform="translate(580.935938 133.655492) scale(0.11 -0.11)">
       <defs>
        <path id="SourceSansPro-Regular-38" d="M 1600 -77 
C 2394 -77 2918 403 2918 1011 
C 2918 1562 2573 1850 2208 2061 
L 2208 2086 
C 2458 2278 2771 2643 2771 3072 
C 2771 3706 2330 4160 1619 4160 
C 960 4160 461 3738 461 3110 
C 461 2682 730 2381 1030 2170 
L 1030 2144 
C 646 1939 262 1574 262 1043 
C 262 397 832 -77 1600 -77 
z
M 1888 2227 
C 1395 2419 947 2624 947 3110 
C 947 3507 1229 3770 1606 3770 
C 2054 3770 2317 3450 2317 3046 
C 2317 2746 2163 2470 1888 2227 
z
M 1613 314 
C 1114 314 736 640 736 1094 
C 736 1466 979 1766 1306 1984 
C 1894 1747 2413 1555 2413 1030 
C 2413 608 2086 314 1613 314 
z
" transform="scale(0.015625)"/>
       </defs>
       <use xlink:href="#SourceSansPro-Regular-38"/>
       <use xlink:href="#SourceSansPro-Regular-30" x="49.699997"/>
      </g>
     </g>
    </g>
    <g id="ytick_6">
     <g id="line2d_21">
      <path d="M 595.370625 79.789825 
L 1133.28 79.789825 
" clip-path="url(#p54ad3da4e6)" style="fill: none; stroke: #ffffff; stroke-opacity: 0.3; stroke-width: 0.8; stroke-linecap: round"/>
     </g>
     <g id="line2d_22"/>
     <g id="text_14">
      <!-- 100 -->
      <g style="fill: #262626" transform="translate(575.468594 83.705997) scale(0.11 -0.11)">
       <defs>
        <path id="SourceSansPro-Regular-31" d="M 506 0 
L 2810 0 
L 2810 435 
L 1965 435 
L 1965 4083 
L 1562 4083 
C 1338 3949 1069 3846 698 3782 
L 698 3443 
L 1440 3443 
L 1440 435 
L 506 435 
L 506 0 
z
" transform="scale(0.015625)"/>
       </defs>
       <use xlink:href="#SourceSansPro-Regular-31"/>
       <use xlink:href="#SourceSansPro-Regular-30" x="49.699997"/>
       <use xlink:href="#SourceSansPro-Regular-30" x="99.399994"/>
      </g>
     </g>
    </g>
    <g id="text_15">
     <!-- Annual Cost (Billions $) -->
     <g style="fill: #275258" transform="translate(568.891719 255.907556) rotate(-90) scale(0.14 -0.14)">
      <defs>
       <path id="SourceSansPro-Bold-42" d="M 493 0 
L 2042 0 
C 2944 0 3661 378 3661 1229 
C 3661 1786 3334 2099 2912 2208 
L 2912 2234 
C 3251 2362 3456 2765 3456 3136 
C 3456 3936 2784 4173 1920 4173 
L 493 4173 
L 493 0 
z
M 1434 2502 
L 1434 3443 
L 1882 3443 
C 2323 3443 2534 3322 2534 2995 
C 2534 2694 2336 2502 1875 2502 
L 1434 2502 
z
M 1434 730 
L 1434 1805 
L 1965 1805 
C 2483 1805 2739 1658 2739 1293 
C 2739 909 2477 730 1965 730 
L 1434 730 
z
" transform="scale(0.015625)"/>
       <path id="SourceSansPro-Bold-24" d="M 1376 -704 
L 1997 -704 
L 1997 -38 
C 2656 102 2995 576 2995 1190 
C 2995 2413 1306 2362 1306 2970 
C 1306 3258 1472 3379 1779 3379 
C 2048 3379 2246 3270 2477 3059 
L 2950 3597 
C 2701 3859 2406 4064 1997 4122 
L 1997 4768 
L 1376 4768 
L 1376 4109 
C 774 3987 403 3552 403 2925 
C 403 1773 2093 1786 2093 1126 
C 2093 832 1933 685 1574 685 
C 1267 685 986 813 659 1056 
L 250 422 
C 550 147 998 -19 1376 -64 
L 1376 -704 
z
" transform="scale(0.015625)"/>
      </defs>
      <use xlink:href="#SourceSansPro-Bold-41"/>
      <use xlink:href="#SourceSansPro-Bold-6e" x="57.299988"/>
      <use xlink:href="#SourceSansPro-Bold-6e" x="114.499985"/>
      <use xlink:href="#SourceSansPro-Bold-75" x="171.699982"/>
      <use xlink:href="#SourceSansPro-Bold-61" x="228.499969"/>
      <use xlink:href="#SourceSansPro-Bold-6c" x="281.199966"/>
      <use xlink:href="#SourceSansPro-Bold-20" x="309.799957"/>
      <use xlink:href="#SourceSansPro-Bold-43" x="329.799942"/>
      <use xlink:href="#SourceSansPro-Bold-6f" x="387.999939"/>
      <use xlink:href="#SourceSansPro-Bold-73" x="443.499924"/>
      <use xlink:href="#SourceSansPro-Bold-74" x="487.799911"/>
      <use xlink:href="#SourceSansPro-Bold-20" x="526.099899"/>
      <use xlink:href="#SourceSansPro-Bold-28" x="546.099884"/>
      <use xlink:href="#SourceSansPro-Bold-42" x="580.499878"/>
      <use xlink:href="#SourceSansPro-Bold-69" x="640.999863"/>
      <use xlink:href="#SourceSansPro-Bold-6c" x="668.599854"/>
      <use xlink:href="#SourceSansPro-Bold-6c" x="697.199844"/>
      <use xlink:href="#SourceSansPro-Bold-69" x="725.799835"/>
      <use xlink:href="#SourceSansPro-Bold-6f" x="753.399826"/>
      <use xlink:href="#SourceSansPro-Bold-6e" x="808.899811"/>
      <use xlink:href="#SourceSansPro-Bold-73" x="866.099808"/>
      <use xlink:href="#SourceSansPro-Bold-20" x="910.399796"/>
      <use xlink:href="#SourceSansPro-Bold-24" x="930.39978"/>
      <use xlink:href="#SourceSansPro-Bold-29" x="983.199768"/>
     </g>
    </g>
   </g>
   <g id="patch_4">
    <path d="M 619.821051 329.5373 
L 683.604771 329.5373 
L 683.604771 276.450445 
L 619.821051 276.450445 
z
" clip-path="url(#p54ad3da4e6)" style="fill: #f76828; opacity: 0.85; stroke: #ffffff; stroke-linejoin: miter"/>
   </g>
   <g id="patch_5">
    <path d="M 726.127252 329.5373 
L 789.910972 329.5373 
L 789.910972 261.429486 
L 726.127252 261.429486 
z
" clip-path="url(#p54ad3da4e6)" style="fill: #f76828; opacity: 0.85; stroke: #ffffff; stroke-linejoin: miter"/>
   </g>
   <g id="patch_6">
    <path d="M 832.433452 329.5373 
L 896.217173 329.5373 
L 896.217173 201.232218 
L 832.433452 201.232218 
z
" clip-path="url(#p54ad3da4e6)" style="fill: #f76828; opacity: 0.85; stroke: #ffffff; stroke-linejoin: miter"/>
   </g>
   <g id="patch_7">
    <path d="M 938.739653 329.5373 
L 1002.523373 329.5373 
L 1002.523373 308.936425 
L 938.739653 308.936425 
z
" clip-path="url(#p54ad3da4e6)" style="fill: #f76828; opacity: 0.85; stroke: #ffffff; stroke-linejoin: miter"/>
   </g>
   <g id="patch_8">
    <path d="M 1045.045854 329.5373 
L 1108.829574 329.5373 
L 1108.829574 94.166972 
L 1045.045854 94.166972 
z
" clip-path="url(#p54ad3da4e6)" style="fill: #f76828; opacity: 0.85; stroke: #ffffff; stroke-linejoin: miter"/>
   </g>
   <g id="patch_9">
    <path d="M 619.821051 276.450445 
L 683.604771 276.450445 
L 683.604771 242.092176 
L 619.821051 242.092176 
z
" clip-path="url(#p54ad3da4e6)" style="fill: #00a79e; opacity: 0.85; stroke: #ffffff; stroke-linejoin: miter"/>
   </g>
   <g id="patch_10">
    <path d="M 726.127252 261.429486 
L 789.910972 261.429486 
L 789.910972 175.058967 
L 726.127252 175.058967 
z
" clip-path="url(#p54ad3da4e6)" style="fill: #00a79e; opacity: 0.85; stroke: #ffffff; stroke-linejoin: miter"/>
   </g>
   <g id="patch_11">
    <path d="M 832.433452 201.232218 
L 896.217173 201.232218 
L 896.217173 201.232218 
L 832.433452 201.232218 
z
" clip-path="url(#p54ad3da4e6)" style="fill: #00a79e; opacity: 0.85; stroke: #ffffff; stroke-linejoin: miter"/>
   </g>
   <g id="patch_12">
    <path d="M 938.739653 308.936425 
L 1002.523373 308.936425 
L 1002.523373 307.568215 
L 938.739653 307.568215 
z
" clip-path="url(#p54ad3da4e6)" style="fill: #00a79e; opacity: 0.85; stroke: #ffffff; stroke-linejoin: miter"/>
   </g>
   <g id="patch_13">
    <path d="M 1045.045854 94.166972 
L 1108.829574 94.166972 
L 1108.829574 85.494051 
L 1045.045854 85.494051 
z
" clip-path="url(#p54ad3da4e6)" style="fill: #00a79e; opacity: 0.85; stroke: #ffffff; stroke-linejoin: miter"/>
   </g>
   <g id="patch_14">
    <path d="M 619.821051 242.092176 
L 683.604771 242.092176 
L 683.604771 236.602305 
L 619.821051 236.602305 
z
" clip-path="url(#p54ad3da4e6)" style="fill: #397493; opacity: 0.85; stroke: #ffffff; stroke-linejoin: miter"/>
   </g>
   <g id="patch_15">
    <path d="M 726.127252 175.058967 
L 789.910972 175.058967 
L 789.910972 153.40428 
L 726.127252 153.40428 
z
" clip-path="url(#p54ad3da4e6)" style="fill: #397493; opacity: 0.85; stroke: #ffffff; stroke-linejoin: miter"/>
   </g>
   <g id="patch_16">
    <path d="M 832.433452 201.232218 
L 896.217173 201.232218 
L 896.217173 201.232218 
L 832.433452 201.232218 
z
" clip-path="url(#p54ad3da4e6)" style="fill: #397493; opacity: 0.85; stroke: #ffffff; stroke-linejoin: miter"/>
   </g>
   <g id="patch_17">
    <path d="M 938.739653 307.568215 
L 1002.523373 307.568215 
L 1002.523373 307.394617 
L 938.739653 307.394617 
z
" clip-path="url(#p54ad3da4e6)" style="fill: #397493; opacity: 0.85; stroke: #ffffff; stroke-linejoin: miter"/>
   </g>
   <g id="patch_18">
    <path d="M 1045.045854 85.494051 
L 1108.829574 85.494051 
L 1108.829574 79.85373 
L 1045.045854 79.85373 
z
" clip-path="url(#p54ad3da4e6)" style="fill: #397493; opacity: 0.85; stroke: #ffffff; stroke-linejoin: miter"/>
   </g>
   <g id="patch_19">
    <path d="M 619.821051 236.602305 
L 683.604771 236.602305 
L 683.604771 234.057846 
L 619.821051 234.057846 
z
" clip-path="url(#p54ad3da4e6)" style="fill: #6e6e6e; opacity: 0.85; stroke: #ffffff; stroke-linejoin: miter"/>
   </g>
   <g id="patch_20">
    <path d="M 726.127252 153.40428 
L 789.910972 153.40428 
L 789.910972 134.821359 
L 726.127252 134.821359 
z
" clip-path="url(#p54ad3da4e6)" style="fill: #6e6e6e; opacity: 0.85; stroke: #ffffff; stroke-linejoin: miter"/>
   </g>
   <g id="patch_21">
    <path d="M 832.433452 201.232218 
L 896.217173 201.232218 
L 896.217173 201.232218 
L 832.433452 201.232218 
z
" clip-path="url(#p54ad3da4e6)" style="fill: #6e6e6e; opacity: 0.85; stroke: #ffffff; stroke-linejoin: miter"/>
   </g>
   <g id="patch_22">
    <path d="M 938.739653 307.394617 
L 1002.523373 307.394617 
L 1002.523373 307.394617 
L 938.739653 307.394617 
z
" clip-path="url(#p54ad3da4e6)" style="fill: #6e6e6e; opacity: 0.85; stroke: #ffffff; stroke-linejoin: miter"/>
   </g>
   <g id="patch_23">
    <path d="M 1045.045854 79.85373 
L 1108.829574 79.85373 
L 1108.829574 77.606496 
L 1045.045854 77.606496 
z
" clip-path="url(#p54ad3da4e6)" style="fill: #6e6e6e; opacity: 0.85; stroke: #ffffff; stroke-linejoin: miter"/>
   </g>
   <g id="patch_24">
    <path d="M 595.370625 329.5373 
L 595.370625 39.816875 
" style="fill: none"/>
   </g>
   <g id="patch_25">
    <path d="M 1133.28 329.5373 
L 1133.28 39.816875 
" style="fill: none"/>
   </g>
   <g id="patch_26">
    <path d="M 595.370625 329.5373 
L 1133.28 329.5373 
" style="fill: none"/>
   </g>
   <g id="patch_27">
    <path d="M 595.370625 39.816875 
L 1133.28 39.816875 
" style="fill: none"/>
   </g>
   <g id="text_16">
    <!-- $21B -->
    <g style="fill: #ffffff" transform="translate(641.862833 305.31981) scale(0.09 -0.09)">
     <defs>
      <path id="SourceSansPro-Bold-32" d="M 237 0 
L 3098 0 
L 3098 794 
L 2278 794 
C 2086 794 1805 768 1600 742 
C 2259 1434 2899 2163 2899 2848 
C 2899 3629 2355 4141 1555 4141 
C 973 4141 595 3923 192 3494 
L 704 2989 
C 909 3206 1133 3405 1427 3405 
C 1779 3405 2003 3187 2003 2790 
C 2003 2214 1274 1517 237 538 
L 237 0 
z
" transform="scale(0.015625)"/>
      <path id="SourceSansPro-Bold-31" d="M 448 0 
L 3034 0 
L 3034 762 
L 2272 762 
L 2272 4064 
L 1581 4064 
C 1293 3891 1011 3776 570 3693 
L 570 3110 
L 1331 3110 
L 1331 762 
L 448 762 
L 448 0 
z
" transform="scale(0.015625)"/>
     </defs>
     <use xlink:href="#SourceSansPro-Bold-24"/>
     <use xlink:href="#SourceSansPro-Bold-32" x="52.799988"/>
     <use xlink:href="#SourceSansPro-Bold-31" x="105.599976"/>
     <use xlink:href="#SourceSansPro-Bold-42" x="158.399963"/>
    </g>
   </g>
   <g id="text_17">
    <!-- $27B -->
    <g style="fill: #ffffff" transform="translate(748.169034 297.809331) scale(0.09 -0.09)">
     <defs>
      <path id="SourceSansPro-Bold-37" d="M 1018 0 
L 1965 0 
C 2035 1587 2170 2349 3110 3488 
L 3110 4064 
L 282 4064 
L 282 3270 
L 2106 3270 
C 1338 2208 1094 1350 1018 0 
z
" transform="scale(0.015625)"/>
     </defs>
     <use xlink:href="#SourceSansPro-Bold-24"/>
     <use xlink:href="#SourceSansPro-Bold-32" x="52.799988"/>
     <use xlink:href="#SourceSansPro-Bold-37" x="105.599976"/>
     <use xlink:href="#SourceSansPro-Bold-42" x="158.399963"/>
    </g>
   </g>
   <g id="text_18">
    <!-- $51B -->
    <g style="fill: #ffffff" transform="translate(854.475234 267.710697) scale(0.09 -0.09)">
     <defs>
      <path id="SourceSansPro-Bold-35" d="M 1581 -77 
C 2374 -77 3072 442 3072 1344 
C 3072 2208 2477 2605 1779 2605 
C 1613 2605 1478 2579 1325 2509 
L 1395 3270 
L 2886 3270 
L 2886 4064 
L 582 4064 
L 467 2010 
L 890 1741 
C 1133 1894 1254 1946 1491 1946 
C 1869 1946 2131 1728 2131 1318 
C 2131 902 1862 685 1446 685 
C 1101 685 813 864 570 1088 
L 147 493 
C 467 173 915 -77 1581 -77 
z
" transform="scale(0.015625)"/>
     </defs>
     <use xlink:href="#SourceSansPro-Bold-24"/>
     <use xlink:href="#SourceSansPro-Bold-35" x="52.799988"/>
     <use xlink:href="#SourceSansPro-Bold-31" x="105.599976"/>
     <use xlink:href="#SourceSansPro-Bold-42" x="158.399963"/>
    </g>
   </g>
   <g id="text_19">
    <!-- $8B -->
    <g style="fill: #ffffff" transform="translate(963.157294 321.5628) scale(0.09 -0.09)">
     <defs>
      <path id="SourceSansPro-Bold-38" d="M 1683 -77 
C 2547 -77 3123 410 3123 1050 
C 3123 1587 2810 1901 2419 2112 
L 2419 2138 
C 2701 2323 2950 2637 2950 3027 
C 2950 3699 2458 4141 1715 4141 
C 960 4141 416 3712 416 3021 
C 416 2592 646 2298 960 2061 
L 960 2035 
C 576 1830 269 1530 269 1037 
C 269 378 870 -77 1683 -77 
z
M 1939 2368 
C 1523 2528 1242 2688 1242 3021 
C 1242 3334 1446 3488 1696 3488 
C 2003 3488 2189 3277 2189 2963 
C 2189 2752 2099 2554 1939 2368 
z
M 1702 576 
C 1363 576 1075 787 1075 1146 
C 1075 1395 1210 1626 1389 1792 
C 1901 1574 2246 1440 2246 1082 
C 2246 742 2016 576 1702 576 
z
" transform="scale(0.015625)"/>
     </defs>
     <use xlink:href="#SourceSansPro-Bold-24"/>
     <use xlink:href="#SourceSansPro-Bold-38" x="52.799988"/>
     <use xlink:href="#SourceSansPro-Bold-42" x="105.599976"/>
    </g>
   </g>
   <g id="text_20">
    <!-- $94B -->
    <g style="fill: #ffffff" transform="translate(1067.087636 214.178074) scale(0.09 -0.09)">
     <defs>
      <path id="SourceSansPro-Bold-39" d="M 1613 2189 
C 1306 2189 1075 2349 1075 2778 
C 1075 3238 1312 3437 1587 3437 
C 1875 3437 2138 3232 2221 2592 
C 2061 2304 1824 2189 1613 2189 
z
M 1466 -77 
C 2317 -77 3110 608 3110 2125 
C 3110 3552 2355 4141 1568 4141 
C 832 4141 218 3622 218 2778 
C 218 1920 736 1523 1427 1523 
C 1677 1523 2029 1683 2240 1952 
C 2208 1005 1856 685 1402 685 
C 1165 685 909 819 774 973 
L 275 410 
C 531 154 928 -77 1466 -77 
z
" transform="scale(0.015625)"/>
      <path id="SourceSansPro-Bold-34" d="M 1882 0 
L 2758 0 
L 2758 973 
L 3226 973 
L 3226 1690 
L 2758 1690 
L 2758 4064 
L 1606 4064 
L 122 1619 
L 122 973 
L 1882 973 
L 1882 0 
z
M 1024 1690 
L 1562 2573 
C 1677 2803 1792 3034 1894 3258 
L 1920 3258 
C 1907 3002 1882 2611 1882 2349 
L 1882 1690 
L 1024 1690 
z
" transform="scale(0.015625)"/>
     </defs>
     <use xlink:href="#SourceSansPro-Bold-24"/>
     <use xlink:href="#SourceSansPro-Bold-39" x="52.799988"/>
     <use xlink:href="#SourceSansPro-Bold-34" x="105.599976"/>
     <use xlink:href="#SourceSansPro-Bold-42" x="158.399963"/>
    </g>
   </g>
   <g id="text_21">
    <!-- $14B -->
    <g style="fill: #ffffff" transform="translate(641.862833 261.597248) scale(0.09 -0.09)">
     <use xlink:href="#SourceSansPro-Bold-24"/>
     <use xlink:href="#SourceSansPro-Bold-31" x="52.799988"/>
     <use xlink:href="#SourceSansPro-Bold-34" x="105.599976"/>
     <use xlink:href="#SourceSansPro-Bold-42" x="158.399963"/>
    </g>
   </g>
   <g id="text_22">
    <!-- $35B -->
    <g style="fill: #ffffff" transform="translate(748.169034 220.570164) scale(0.09 -0.09)">
     <defs>
      <path id="SourceSansPro-Bold-33" d="M 1555 -77 
C 2374 -77 3066 352 3066 1107 
C 3066 1632 2726 1965 2259 2099 
L 2259 2125 
C 2694 2310 2938 2605 2938 3027 
C 2938 3738 2374 4141 1536 4141 
C 1037 4141 627 3942 256 3622 
L 730 3046 
C 986 3270 1203 3405 1491 3405 
C 1811 3405 1990 3238 1990 2957 
C 1990 2630 1760 2413 1030 2413 
L 1030 1747 
C 1914 1747 2125 1523 2125 1165 
C 2125 858 1862 685 1466 685 
C 1120 685 819 858 576 1094 
L 141 499 
C 435 154 896 -77 1555 -77 
z
" transform="scale(0.015625)"/>
     </defs>
     <use xlink:href="#SourceSansPro-Bold-24"/>
     <use xlink:href="#SourceSansPro-Bold-33" x="52.799988"/>
     <use xlink:href="#SourceSansPro-Bold-35" x="105.599976"/>
     <use xlink:href="#SourceSansPro-Bold-42" x="158.399963"/>
    </g>
   </g>
   <g id="text_23">
    <!-- $9B -->
    <g style="fill: #ffffff" transform="translate(750.544893 166.557561) scale(0.09 -0.09)">
     <use xlink:href="#SourceSansPro-Bold-24"/>
     <use xlink:href="#SourceSansPro-Bold-39" x="52.799988"/>
     <use xlink:href="#SourceSansPro-Bold-42" x="105.599976"/>
    </g>
   </g>
   <g id="text_24">
    <!-- $7B -->
    <g style="fill: #ffffff" transform="translate(750.544893 146.438757) scale(0.09 -0.09)">
     <use xlink:href="#SourceSansPro-Bold-24"/>
     <use xlink:href="#SourceSansPro-Bold-37" x="52.799988"/>
     <use xlink:href="#SourceSansPro-Bold-42" x="105.599976"/>
    </g>
   </g>
   <g id="text_25">
    <!-- $38B -->
    <g style="fill: #275258" transform="translate(639.673927 227.038209) scale(0.11 -0.11)">
     <use xlink:href="#SourceSansPro-Bold-24"/>
     <use xlink:href="#SourceSansPro-Bold-33" x="52.799988"/>
     <use xlink:href="#SourceSansPro-Bold-38" x="105.599976"/>
     <use xlink:href="#SourceSansPro-Bold-42" x="158.399963"/>
    </g>
   </g>
   <g id="text_26">
    <!-- $78B -->
    <g style="fill: #275258" transform="translate(745.980128 127.801722) scale(0.11 -0.11)">
     <use xlink:href="#SourceSansPro-Bold-24"/>
     <use xlink:href="#SourceSansPro-Bold-37" x="52.799988"/>
     <use xlink:href="#SourceSansPro-Bold-38" x="105.599976"/>
     <use xlink:href="#SourceSansPro-Bold-42" x="158.399963"/>
    </g>
   </g>
   <g id="text_27">
    <!-- $51B -->
    <g style="fill: #275258" transform="translate(852.286328 194.212581) scale(0.11 -0.11)">
     <use xlink:href="#SourceSansPro-Bold-24"/>
     <use xlink:href="#SourceSansPro-Bold-35" x="52.799988"/>
     <use xlink:href="#SourceSansPro-Bold-31" x="105.599976"/>
     <use xlink:href="#SourceSansPro-Bold-42" x="158.399963"/>
    </g>
   </g>
   <g id="text_28">
    <!-- $9B -->
    <g style="fill: #275258" transform="translate(961.496357 300.37498) scale(0.11 -0.11)">
     <use xlink:href="#SourceSansPro-Bold-24"/>
     <use xlink:href="#SourceSansPro-Bold-39" x="52.799988"/>
     <use xlink:href="#SourceSansPro-Bold-42" x="105.599976"/>
    </g>
   </g>
   <g id="text_29">
    <!-- $101B -->
    <g style="fill: #275258" transform="translate(1061.994901 70.586859) scale(0.11 -0.11)">
     <defs>
      <path id="SourceSansPro-Bold-30" d="M 1690 -77 
C 2560 -77 3142 666 3142 2048 
C 3142 3430 2560 4141 1690 4141 
C 819 4141 237 3430 237 2048 
C 237 666 819 -77 1690 -77 
z
M 1690 653 
C 1376 653 1126 941 1126 2048 
C 1126 3162 1376 3411 1690 3411 
C 2010 3411 2253 3162 2253 2048 
C 2253 941 2010 653 1690 653 
z
" transform="scale(0.015625)"/>
     </defs>
     <use xlink:href="#SourceSansPro-Bold-24"/>
     <use xlink:href="#SourceSansPro-Bold-31" x="52.799988"/>
     <use xlink:href="#SourceSansPro-Bold-30" x="105.599976"/>
     <use xlink:href="#SourceSansPro-Bold-31" x="158.399963"/>
     <use xlink:href="#SourceSansPro-Bold-42" x="211.199951"/>
    </g>
   </g>
   <g id="text_30">
    <!-- Total U.S. Residential Energy Costs by End Use (2022) -->
    <g style="fill: #275258" transform="translate(676.947813 19.816875) scale(0.16 -0.16)">
     <defs>
      <path id="SourceSansPro-Bold-54" d="M 1306 0 
L 2253 0 
L 2253 3379 
L 3398 3379 
L 3398 4173 
L 160 4173 
L 160 3379 
L 1306 3379 
L 1306 0 
z
" transform="scale(0.015625)"/>
      <path id="SourceSansPro-Bold-53" d="M 1766 -77 
C 2765 -77 3341 525 3341 1216 
C 3341 1805 3021 2144 2515 2349 
L 1978 2566 
C 1619 2714 1344 2803 1344 3059 
C 1344 3296 1549 3437 1875 3437 
C 2208 3437 2464 3315 2739 3104 
L 3219 3699 
C 2861 4058 2355 4250 1875 4250 
C 1005 4250 390 3699 390 3008 
C 390 2400 800 2042 1229 1869 
L 1773 1638 
C 2138 1485 2374 1402 2374 1139 
C 2374 890 2182 736 1792 736 
C 1446 736 1062 915 762 1171 
L 224 525 
C 646 128 1222 -77 1766 -77 
z
" transform="scale(0.015625)"/>
      <path id="SourceSansPro-Bold-79" d="M 768 -1242 
C 1517 -1242 1856 -832 2157 -32 
L 3258 3174 
L 2355 3174 
L 1971 1811 
C 1894 1510 1824 1210 1754 909 
L 1728 909 
C 1645 1222 1568 1523 1478 1811 
L 1024 3174 
L 77 3174 
L 1299 83 
L 1254 -83 
C 1171 -333 1011 -499 698 -499 
C 627 -499 544 -474 486 -461 
L 320 -1178 
C 448 -1216 576 -1242 768 -1242 
z
" transform="scale(0.015625)"/>
      <path id="SourceSansPro-Bold-62" d="M 2080 -77 
C 2765 -77 3418 550 3418 1645 
C 3418 2618 2938 3251 2170 3251 
C 1875 3251 1574 3117 1331 2899 
L 1357 3386 
L 1357 4486 
L 416 4486 
L 416 0 
L 1152 0 
L 1229 339 
L 1254 339 
C 1504 64 1798 -77 2080 -77 
z
M 1862 691 
C 1702 691 1523 742 1357 896 
L 1357 2195 
C 1536 2394 1709 2483 1901 2483 
C 2278 2483 2451 2195 2451 1626 
C 2451 973 2189 691 1862 691 
z
" transform="scale(0.015625)"/>
     </defs>
     <use xlink:href="#SourceSansPro-Bold-54"/>
     <use xlink:href="#SourceSansPro-Bold-6f" x="55.599991"/>
     <use xlink:href="#SourceSansPro-Bold-74" x="111.099976"/>
     <use xlink:href="#SourceSansPro-Bold-61" x="149.399963"/>
     <use xlink:href="#SourceSansPro-Bold-6c" x="202.09996"/>
     <use xlink:href="#SourceSansPro-Bold-20" x="230.699951"/>
     <use xlink:href="#SourceSansPro-Bold-55" x="250.699936"/>
     <use xlink:href="#SourceSansPro-Bold-2e" x="317.199921"/>
     <use xlink:href="#SourceSansPro-Bold-53" x="347.199905"/>
     <use xlink:href="#SourceSansPro-Bold-2e" x="402.799896"/>
     <use xlink:href="#SourceSansPro-Bold-20" x="432.799881"/>
     <use xlink:href="#SourceSansPro-Bold-52" x="452.799866"/>
     <use xlink:href="#SourceSansPro-Bold-65" x="514.099854"/>
     <use xlink:href="#SourceSansPro-Bold-73" x="565.899841"/>
     <use xlink:href="#SourceSansPro-Bold-69" x="610.199829"/>
     <use xlink:href="#SourceSansPro-Bold-64" x="637.79982"/>
     <use xlink:href="#SourceSansPro-Bold-65" x="695.099808"/>
     <use xlink:href="#SourceSansPro-Bold-6e" x="746.899796"/>
     <use xlink:href="#SourceSansPro-Bold-74" x="804.099792"/>
     <use xlink:href="#SourceSansPro-Bold-69" x="842.39978"/>
     <use xlink:href="#SourceSansPro-Bold-61" x="869.999771"/>
     <use xlink:href="#SourceSansPro-Bold-6c" x="922.699768"/>
     <use xlink:href="#SourceSansPro-Bold-20" x="951.299759"/>
     <use xlink:href="#SourceSansPro-Bold-45" x="971.299744"/>
     <use xlink:href="#SourceSansPro-Bold-6e" x="1026.099731"/>
     <use xlink:href="#SourceSansPro-Bold-65" x="1083.299728"/>
     <use xlink:href="#SourceSansPro-Bold-72" x="1135.099716"/>
     <use xlink:href="#SourceSansPro-Bold-67" x="1174.899704"/>
     <use xlink:href="#SourceSansPro-Bold-79" x="1228.299698"/>
     <use xlink:href="#SourceSansPro-Bold-20" x="1280.399689"/>
     <use xlink:href="#SourceSansPro-Bold-43" x="1300.399673"/>
     <use xlink:href="#SourceSansPro-Bold-6f" x="1358.59967"/>
     <use xlink:href="#SourceSansPro-Bold-73" x="1414.099655"/>
     <use xlink:href="#SourceSansPro-Bold-74" x="1458.399643"/>
     <use xlink:href="#SourceSansPro-Bold-73" x="1496.699631"/>
     <use xlink:href="#SourceSansPro-Bold-20" x="1540.999619"/>
     <use xlink:href="#SourceSansPro-Bold-62" x="1560.999603"/>
     <use xlink:href="#SourceSansPro-Bold-79" x="1618.299591"/>
     <use xlink:href="#SourceSansPro-Bold-20" x="1670.399582"/>
     <use xlink:href="#SourceSansPro-Bold-45" x="1690.399567"/>
     <use xlink:href="#SourceSansPro-Bold-6e" x="1745.199554"/>
     <use xlink:href="#SourceSansPro-Bold-64" x="1802.399551"/>
     <use xlink:href="#SourceSansPro-Bold-20" x="1859.699539"/>
     <use xlink:href="#SourceSansPro-Bold-55" x="1879.699524"/>
     <use xlink:href="#SourceSansPro-Bold-73" x="1946.199509"/>
     <use xlink:href="#SourceSansPro-Bold-65" x="1990.499496"/>
     <use xlink:href="#SourceSansPro-Bold-20" x="2042.299484"/>
     <use xlink:href="#SourceSansPro-Bold-28" x="2062.299469"/>
     <use xlink:href="#SourceSansPro-Bold-32" x="2096.699463"/>
     <use xlink:href="#SourceSansPro-Bold-30" x="2149.499451"/>
     <use xlink:href="#SourceSansPro-Bold-32" x="2202.299438"/>
     <use xlink:href="#SourceSansPro-Bold-32" x="2255.099426"/>
     <use xlink:href="#SourceSansPro-Bold-29" x="2307.899414"/>
    </g>
   </g>
   <g id="legend_1">
    <g id="patch_28">
     <path d="M 1033.065938 129.699375 
L 1127.58 129.699375 
Q 1129.78 129.699375 1129.78 127.499375 
L 1129.78 49.516875 
Q 1129.78 47.316875 1127.58 47.316875 
L 1033.065938 47.316875 
Q 1030.865937 47.316875 1030.865937 49.516875 
L 1030.865937 127.499375 
Q 1030.865937 129.699375 1033.065938 129.699375 
z
" style="fill: #464649; opacity: 0.5; stroke: #464649; stroke-linejoin: miter"/>
    </g>
    <g id="patch_29">
     <path d="M 1031.065938 127.699375 
L 1125.58 127.699375 
Q 1127.78 127.699375 1127.78 125.499375 
L 1127.78 47.516875 
Q 1127.78 45.316875 1125.58 45.316875 
L 1031.065938 45.316875 
Q 1028.865937 45.316875 1028.865937 47.516875 
L 1028.865937 125.499375 
Q 1028.865937 127.699375 1031.065938 127.699375 
z
" style="fill: #eaeaf2; stroke: #cccccc; stroke-linejoin: miter"/>
    </g>
    <g id="text_31">
     <!-- Energy Source -->
     <g style="fill: #262626" transform="translate(1042.279844 58.26125) scale(0.12 -0.12)">
      <defs>
       <path id="SourceSansPro-Regular-45" d="M 576 0 
L 3059 0 
L 3059 454 
L 1107 454 
L 1107 1978 
L 2701 1978 
L 2701 2432 
L 1107 2432 
L 1107 3750 
L 2995 3750 
L 2995 4198 
L 576 4198 
L 576 0 
z
" transform="scale(0.015625)"/>
       <path id="SourceSansPro-Regular-75" d="M 1434 -77 
C 1862 -77 2170 147 2458 486 
L 2477 486 
L 2522 0 
L 2957 0 
L 2957 3110 
L 2432 3110 
L 2432 902 
C 2138 538 1914 378 1594 378 
C 1184 378 1011 627 1011 1210 
L 1011 3110 
L 480 3110 
L 480 1139 
C 480 346 774 -77 1434 -77 
z
" transform="scale(0.015625)"/>
      </defs>
      <use xlink:href="#SourceSansPro-Regular-45"/>
      <use xlink:href="#SourceSansPro-Regular-6e" x="52.699997"/>
      <use xlink:href="#SourceSansPro-Regular-65" x="107.399994"/>
      <use xlink:href="#SourceSansPro-Regular-72" x="156.999985"/>
      <use xlink:href="#SourceSansPro-Regular-67" x="191.699982"/>
      <use xlink:href="#SourceSansPro-Regular-79" x="242.099976"/>
      <use xlink:href="#SourceSansPro-Regular-20" x="288.799973"/>
      <use xlink:href="#SourceSansPro-Regular-53" x="308.799957"/>
      <use xlink:href="#SourceSansPro-Regular-6f" x="362.199951"/>
      <use xlink:href="#SourceSansPro-Regular-75" x="416.399948"/>
      <use xlink:href="#SourceSansPro-Regular-72" x="470.799942"/>
      <use xlink:href="#SourceSansPro-Regular-63" x="505.499939"/>
      <use xlink:href="#SourceSansPro-Regular-65" x="551.09993"/>
     </g>
    </g>
    <g id="patch_30">
     <path d="M 1033.265938 74.282344 
L 1055.265938 74.282344 
L 1055.265938 66.582344 
L 1033.265938 66.582344 
z
" style="fill: #f76828; opacity: 0.85; stroke: #ffffff; stroke-linejoin: miter"/>
    </g>
    <g id="text_32">
     <!-- Electric -->
     <g style="fill: #262626" transform="translate(1064.065938 74.282344) scale(0.11 -0.11)">
      <use xlink:href="#SourceSansPro-Regular-45"/>
      <use xlink:href="#SourceSansPro-Regular-6c" x="52.699997"/>
      <use xlink:href="#SourceSansPro-Regular-65" x="78.199982"/>
      <use xlink:href="#SourceSansPro-Regular-63" x="127.799973"/>
      <use xlink:href="#SourceSansPro-Regular-74" x="173.399963"/>
      <use xlink:href="#SourceSansPro-Regular-72" x="207.199951"/>
      <use xlink:href="#SourceSansPro-Regular-69" x="241.899948"/>
      <use xlink:href="#SourceSansPro-Regular-63" x="266.499939"/>
     </g>
    </g>
    <g id="patch_31">
     <path d="M 1033.265938 89.869687 
L 1055.265938 89.869687 
L 1055.265938 82.169687 
L 1033.265938 82.169687 
z
" style="fill: #00a79e; opacity: 0.85; stroke: #ffffff; stroke-linejoin: miter"/>
    </g>
    <g id="text_33">
     <!-- Methane Gas -->
     <g style="fill: #262626" transform="translate(1064.065938 89.869687) scale(0.11 -0.11)">
      <defs>
       <path id="SourceSansPro-Regular-4d" d="M 576 0 
L 1056 0 
L 1056 2310 
C 1056 2682 1018 3181 992 3552 
L 1018 3552 
L 1350 2598 
L 2144 422 
L 2496 422 
L 3290 2598 
L 3622 3552 
L 3648 3552 
C 3622 3181 3578 2682 3578 2310 
L 3578 0 
L 4077 0 
L 4077 4198 
L 3430 4198 
L 2637 1958 
C 2534 1670 2451 1370 2349 1082 
L 2323 1082 
C 2221 1370 2125 1670 2022 1958 
L 1216 4198 
L 576 4198 
L 576 0 
z
" transform="scale(0.015625)"/>
       <path id="SourceSansPro-Regular-47" d="M 2227 -77 
C 2790 -77 3251 128 3520 410 
L 3520 2176 
L 2144 2176 
L 2144 1734 
L 3034 1734 
L 3034 640 
C 2867 486 2579 390 2278 390 
C 1382 390 883 1056 883 2112 
C 883 3155 1427 3808 2272 3808 
C 2694 3808 2963 3629 3174 3411 
L 3469 3757 
C 3226 4013 2842 4275 2259 4275 
C 1146 4275 333 3450 333 2099 
C 333 730 1120 -77 2227 -77 
z
" transform="scale(0.015625)"/>
      </defs>
      <use xlink:href="#SourceSansPro-Regular-4d"/>
      <use xlink:href="#SourceSansPro-Regular-65" x="72.699982"/>
      <use xlink:href="#SourceSansPro-Regular-74" x="122.299973"/>
      <use xlink:href="#SourceSansPro-Regular-68" x="156.09996"/>
      <use xlink:href="#SourceSansPro-Regular-61" x="210.499954"/>
      <use xlink:href="#SourceSansPro-Regular-6e" x="260.899948"/>
      <use xlink:href="#SourceSansPro-Regular-65" x="315.599945"/>
      <use xlink:href="#SourceSansPro-Regular-20" x="365.199936"/>
      <use xlink:href="#SourceSansPro-Regular-47" x="385.199921"/>
      <use xlink:href="#SourceSansPro-Regular-61" x="446.899918"/>
      <use xlink:href="#SourceSansPro-Regular-73" x="497.299911"/>
     </g>
    </g>
    <g id="patch_32">
     <path d="M 1033.265938 105.457031 
L 1055.265938 105.457031 
L 1055.265938 97.757031 
L 1033.265938 97.757031 
z
" style="fill: #397493; opacity: 0.85; stroke: #ffffff; stroke-linejoin: miter"/>
    </g>
    <g id="text_34">
     <!-- Propane -->
     <g style="fill: #262626" transform="translate(1064.065938 105.457031) scale(0.11 -0.11)">
      <defs>
       <path id="SourceSansPro-Regular-50" d="M 576 0 
L 1107 0 
L 1107 1664 
L 1798 1664 
C 2720 1664 3347 2080 3347 2963 
C 3347 3885 2714 4198 1773 4198 
L 576 4198 
L 576 0 
z
M 1107 2099 
L 1107 3770 
L 1709 3770 
C 2445 3770 2816 3571 2816 2963 
C 2816 2368 2464 2099 1734 2099 
L 1107 2099 
z
" transform="scale(0.015625)"/>
      </defs>
      <use xlink:href="#SourceSansPro-Regular-50"/>
      <use xlink:href="#SourceSansPro-Regular-72" x="56.599991"/>
      <use xlink:href="#SourceSansPro-Regular-6f" x="91.299988"/>
      <use xlink:href="#SourceSansPro-Regular-70" x="145.499985"/>
      <use xlink:href="#SourceSansPro-Regular-61" x="200.999969"/>
      <use xlink:href="#SourceSansPro-Regular-6e" x="251.399963"/>
      <use xlink:href="#SourceSansPro-Regular-65" x="306.09996"/>
     </g>
    </g>
    <g id="patch_33">
     <path d="M 1033.265938 121.044375 
L 1055.265938 121.044375 
L 1055.265938 113.344375 
L 1033.265938 113.344375 
z
" style="fill: #6e6e6e; opacity: 0.85; stroke: #ffffff; stroke-linejoin: miter"/>
    </g>
    <g id="text_35">
     <!-- Fuel Oil -->
     <g style="fill: #262626" transform="translate(1064.065938 121.044375) scale(0.11 -0.11)">
      <defs>
       <path id="SourceSansPro-Regular-46" d="M 576 0 
L 1107 0 
L 1107 1882 
L 2707 1882 
L 2707 2330 
L 1107 2330 
L 1107 3750 
L 2995 3750 
L 2995 4198 
L 576 4198 
L 576 0 
z
" transform="scale(0.015625)"/>
      </defs>
      <use xlink:href="#SourceSansPro-Regular-46"/>
      <use xlink:href="#SourceSansPro-Regular-75" x="49.399994"/>
      <use xlink:href="#SourceSansPro-Regular-65" x="103.799988"/>
      <use xlink:href="#SourceSansPro-Regular-6c" x="153.399979"/>
      <use xlink:href="#SourceSansPro-Regular-20" x="178.899963"/>
      <use xlink:href="#SourceSansPro-Regular-4f" x="198.899948"/>
      <use xlink:href="#SourceSansPro-Regular-69" x="265.299942"/>
      <use xlink:href="#SourceSansPro-Regular-6c" x="289.899933"/>
     </g>
    </g>
   </g>
  </g>
 </g>
 <defs>
  <clipPath id="p54ad3da4e6">
   <rect x="595.370625" y="39.816875" width="537.909375" height="289.720425"/>
  </clipPath>
 </defs>
</svg>
