<?xml version="1.0" encoding="utf-8" standalone="no"?>
<!DOCTYPE svg PUBLIC "-//W3C//DTD SVG 1.1//EN"
  "http://www.w3.org/Graphics/SVG/1.1/DTD/svg11.dtd">
<svg xmlns:xlink="http://www.w3.org/1999/xlink" width="564.48pt" height="420.156562pt" viewBox="0 0 564.48 420.156562" xmlns="http://www.w3.org/2000/svg" version="1.1">
 <metadata>
  <rdf:RDF xmlns:dc="http://purl.org/dc/elements/1.1/" xmlns:cc="http://creativecommons.org/ns#" xmlns:rdf="http://www.w3.org/1999/02/22-rdf-syntax-ns#">
   <cc:Work>
    <dc:type rdf:resource="http://purl.org/dc/dcmitype/StillImage"/>
    <dc:date>2025-10-09T11:41:53.680803</dc:date>
    <dc:format>image/svg+xml</dc:format>
    <dc:creator>
     <cc:Agent>
      <dc:title>Matplotlib v3.10.7, https://matplotlib.org/</dc:title>
     </cc:Agent>
    </dc:creator>
   </cc:Work>
  </rdf:RDF>
 </metadata>
 <defs>
  <style type="text/css">*{stroke-linejoin: round; stroke-linecap: butt}</style>
 </defs>
 <g id="figure_1">
  <g id="patch_1">
   <path d="M 0 420.156562 
L 564.48 420.156562 
L 564.48 0 
L 0 0 
L 0 420.156562 
z
" style="fill: none"/>
  </g>
  <g id="axes_1">
   <g id="text_1">
    <g id="patch_2">
     <path d="M 216.21875 283.287062 
L 348.26125 283.287062 
Q 364.26125 283.287062 364.26125 267.287062 
L 364.26125 186.026062 
Q 364.26125 170.026062 348.26125 170.026062 
L 216.21875 170.026062 
Q 200.21875 170.026062 200.21875 186.026062 
L 200.21875 267.287062 
Q 200.21875 283.287062 216.21875 283.287062 
z
" style="fill: #e8f0f1; stroke: #275258; stroke-width: 2; stroke-linejoin: miter"/>
    </g>
    <!-- PLACEHOLDER: -->
    <g style="fill: #275258" transform="translate(227.92875 197.081062) scale(0.16 -0.16)">
     <defs>
      <path id="SourceSansPro-Bold-50" d="M 493 0 
L 1434 0 
L 1434 1414 
L 1952 1414 
C 2835 1414 3584 1850 3584 2829 
C 3584 3840 2842 4173 1926 4173 
L 493 4173 
L 493 0 
z
M 1434 2163 
L 1434 3424 
L 1869 3424 
C 2381 3424 2662 3264 2662 2829 
C 2662 2394 2413 2163 1894 2163 
L 1434 2163 
z
" transform="scale(0.015625)"/>
      <path id="SourceSansPro-Bold-4c" d="M 493 0 
L 3085 0 
L 3085 794 
L 1434 794 
L 1434 4173 
L 493 4173 
L 493 0 
z
" transform="scale(0.015625)"/>
      <path id="SourceSansPro-Bold-41" d="M 1472 2112 
C 1587 2528 1696 3014 1798 3456 
L 1824 3456 
C 1933 3021 2048 2528 2163 2112 
L 2259 1728 
L 1370 1728 
L 1472 2112 
z
M -38 0 
L 922 0 
L 1178 992 
L 2451 992 
L 2707 0 
L 3706 0 
L 2400 4173 
L 1267 4173 
L -38 0 
z
" transform="scale(0.015625)"/>
      <path id="SourceSansPro-Bold-43" d="M 2234 -77 
C 2778 -77 3238 134 3584 538 
L 3085 1126 
C 2880 909 2611 736 2272 736 
C 1658 736 1261 1235 1261 2093 
C 1261 2931 1715 3437 2285 3437 
C 2586 3437 2810 3296 3021 3104 
L 3520 3706 
C 3238 3994 2803 4250 2266 4250 
C 1210 4250 294 3443 294 2061 
C 294 659 1178 -77 2234 -77 
z
" transform="scale(0.015625)"/>
      <path id="SourceSansPro-Bold-45" d="M 493 0 
L 3168 0 
L 3168 794 
L 1434 794 
L 1434 1754 
L 2854 1754 
L 2854 2541 
L 1434 2541 
L 1434 3379 
L 3104 3379 
L 3104 4173 
L 493 4173 
L 493 0 
z
" transform="scale(0.015625)"/>
      <path id="SourceSansPro-Bold-48" d="M 493 0 
L 1434 0 
L 1434 1741 
L 2874 1741 
L 2874 0 
L 3821 0 
L 3821 4173 
L 2874 4173 
L 2874 2566 
L 1434 2566 
L 1434 4173 
L 493 4173 
L 493 0 
z
" transform="scale(0.015625)"/>
      <path id="SourceSansPro-Bold-4f" d="M 2189 -77 
C 3315 -77 4083 742 4083 2106 
C 4083 3462 3315 4250 2189 4250 
C 1062 4250 294 3469 294 2106 
C 294 742 1062 -77 2189 -77 
z
M 2189 736 
C 1619 736 1261 1267 1261 2106 
C 1261 2938 1619 3437 2189 3437 
C 2758 3437 3117 2938 3117 2106 
C 3117 1267 2758 736 2189 736 
z
" transform="scale(0.015625)"/>
      <path id="SourceSansPro-Bold-44" d="M 493 0 
L 1722 0 
C 2944 0 3763 672 3763 2106 
C 3763 3539 2944 4173 1670 4173 
L 493 4173 
L 493 0 
z
M 1434 762 
L 1434 3411 
L 1613 3411 
C 2323 3411 2797 3104 2797 2106 
C 2797 1107 2323 762 1613 762 
L 1434 762 
z
" transform="scale(0.015625)"/>
      <path id="SourceSansPro-Bold-52" d="M 493 0 
L 1434 0 
L 1434 1504 
L 1952 1504 
L 2752 0 
L 3808 0 
L 2861 1670 
C 3309 1869 3603 2259 3603 2874 
C 3603 3866 2880 4173 1997 4173 
L 493 4173 
L 493 0 
z
M 1434 2253 
L 1434 3424 
L 1920 3424 
C 2413 3424 2682 3283 2682 2874 
C 2682 2464 2413 2253 1920 2253 
L 1434 2253 
z
" transform="scale(0.015625)"/>
      <path id="SourceSansPro-Bold-3a" d="M 960 1997 
C 1286 1997 1530 2253 1530 2586 
C 1530 2925 1286 3181 960 3181 
C 634 3181 390 2925 390 2586 
C 390 2253 634 1997 960 1997 
z
M 960 -77 
C 1286 -77 1530 179 1530 512 
C 1530 851 1286 1107 960 1107 
C 634 1107 390 851 390 512 
C 390 179 634 -77 960 -77 
z
" transform="scale(0.015625)"/>
     </defs>
     <use xlink:href="#SourceSansPro-Bold-50"/>
     <use xlink:href="#SourceSansPro-Bold-4c" transform="translate(59.599991 0)"/>
     <use xlink:href="#SourceSansPro-Bold-41" transform="translate(111.399979 0)"/>
     <use xlink:href="#SourceSansPro-Bold-43" transform="translate(168.699966 0)"/>
     <use xlink:href="#SourceSansPro-Bold-45" transform="translate(226.899963 0)"/>
     <use xlink:href="#SourceSansPro-Bold-48" transform="translate(281.699951 0)"/>
     <use xlink:href="#SourceSansPro-Bold-4f" transform="translate(349.099945 0)"/>
     <use xlink:href="#SourceSansPro-Bold-4c" transform="translate(417.499939 0)"/>
     <use xlink:href="#SourceSansPro-Bold-44" transform="translate(469.299927 0)"/>
     <use xlink:href="#SourceSansPro-Bold-45" transform="translate(532.799911 0)"/>
     <use xlink:href="#SourceSansPro-Bold-52" transform="translate(587.599899 0)"/>
     <use xlink:href="#SourceSansPro-Bold-3a" transform="translate(648.899887 0)"/>
    </g>
    <!-- Infographic -->
    <g style="fill: #275258" transform="translate(241.32125 213.889062) scale(0.16 -0.16)">
     <defs>
      <path id="SourceSansPro-Bold-49" d="M 493 0 
L 1434 0 
L 1434 4173 
L 493 4173 
L 493 0 
z
" transform="scale(0.015625)"/>
      <path id="SourceSansPro-Bold-6e" d="M 416 0 
L 1357 0 
L 1357 2144 
C 1562 2342 1709 2451 1946 2451 
C 2214 2451 2336 2310 2336 1850 
L 2336 0 
L 3277 0 
L 3277 1971 
C 3277 2765 2982 3251 2291 3251 
C 1862 3251 1542 3027 1274 2771 
L 1248 2771 
L 1184 3174 
L 416 3174 
L 416 0 
z
" transform="scale(0.015625)"/>
      <path id="SourceSansPro-Bold-66" d="M 576 0 
L 1517 0 
L 1517 2438 
L 2086 2438 
L 2086 3174 
L 1517 3174 
L 1517 3366 
C 1517 3693 1651 3821 1882 3821 
C 1984 3821 2099 3795 2208 3757 
L 2381 4448 
C 2240 4499 2010 4563 1747 4563 
C 890 4563 576 4013 576 3341 
L 576 3168 
L 154 3136 
L 154 2438 
L 576 2438 
L 576 0 
z
" transform="scale(0.015625)"/>
      <path id="SourceSansPro-Bold-6f" d="M 1779 -77 
C 2579 -77 3322 531 3322 1587 
C 3322 2643 2579 3251 1779 3251 
C 973 3251 230 2643 230 1587 
C 230 531 973 -77 1779 -77 
z
M 1779 685 
C 1389 685 1197 1037 1197 1587 
C 1197 2138 1389 2490 1779 2490 
C 2163 2490 2362 2138 2362 1587 
C 2362 1037 2163 685 1779 685 
z
" transform="scale(0.015625)"/>
      <path id="SourceSansPro-Bold-67" d="M 1549 -1350 
C 2637 -1350 3322 -870 3322 -211 
C 3322 358 2893 595 2112 595 
L 1600 595 
C 1248 595 1120 672 1120 832 
C 1120 941 1152 998 1235 1069 
C 1376 1024 1504 1005 1619 1005 
C 2317 1005 2867 1344 2867 2074 
C 2867 2240 2822 2394 2765 2490 
L 3270 2490 
L 3270 3174 
L 2112 3174 
C 1971 3226 1798 3251 1619 3251 
C 934 3251 307 2867 307 2106 
C 307 1734 512 1434 736 1280 
L 736 1254 
C 531 1114 378 890 378 659 
C 378 397 506 230 672 122 
L 672 96 
C 378 -70 218 -282 218 -544 
C 218 -1107 806 -1350 1549 -1350 
z
M 1619 1574 
C 1370 1574 1184 1754 1184 2106 
C 1184 2445 1370 2618 1619 2618 
C 1869 2618 2054 2438 2054 2106 
C 2054 1754 1869 1574 1619 1574 
z
M 1696 -762 
C 1274 -762 992 -634 992 -397 
C 992 -282 1050 -186 1165 -83 
C 1267 -109 1395 -122 1613 -122 
L 1939 -122 
C 2253 -122 2426 -173 2426 -371 
C 2426 -589 2118 -762 1696 -762 
z
" transform="scale(0.015625)"/>
      <path id="SourceSansPro-Bold-72" d="M 416 0 
L 1357 0 
L 1357 1843 
C 1523 2272 1818 2426 2054 2426 
C 2189 2426 2285 2406 2400 2374 
L 2554 3187 
C 2464 3226 2355 3251 2176 3251 
C 1850 3251 1504 3046 1274 2618 
L 1248 2618 
L 1184 3174 
L 416 3174 
L 416 0 
z
" transform="scale(0.015625)"/>
      <path id="SourceSansPro-Bold-61" d="M 1216 -77 
C 1574 -77 1869 90 2138 326 
L 2163 326 
L 2227 0 
L 2995 0 
L 2995 1818 
C 2995 2790 2547 3251 1734 3251 
C 1235 3251 781 3078 378 2835 
L 717 2214 
C 1024 2394 1286 2502 1555 2502 
C 1901 2502 2035 2323 2054 2042 
C 800 1914 269 1549 269 883 
C 269 346 634 -77 1216 -77 
z
M 1536 653 
C 1312 653 1171 749 1171 954 
C 1171 1197 1389 1389 2054 1478 
L 2054 922 
C 1888 755 1747 653 1536 653 
z
" transform="scale(0.015625)"/>
      <path id="SourceSansPro-Bold-70" d="M 416 -1178 
L 1357 -1178 
L 1357 -250 
L 1325 256 
C 1549 45 1805 -77 2080 -77 
C 2765 -77 3418 550 3418 1638 
C 3418 2618 2944 3251 2176 3251 
C 1843 3251 1523 3085 1274 2861 
L 1248 2861 
L 1184 3174 
L 416 3174 
L 416 -1178 
z
M 1862 691 
C 1702 691 1523 742 1357 896 
L 1357 2195 
C 1542 2394 1709 2483 1901 2483 
C 2278 2483 2451 2195 2451 1626 
C 2451 973 2189 691 1862 691 
z
" transform="scale(0.015625)"/>
      <path id="SourceSansPro-Bold-68" d="M 416 0 
L 1357 0 
L 1357 2144 
C 1562 2342 1709 2451 1946 2451 
C 2214 2451 2336 2310 2336 1850 
L 2336 0 
L 3277 0 
L 3277 1971 
C 3277 2765 2982 3251 2291 3251 
C 1862 3251 1549 3027 1312 2816 
L 1357 3386 
L 1357 4486 
L 416 4486 
L 416 0 
z
" transform="scale(0.015625)"/>
      <path id="SourceSansPro-Bold-69" d="M 416 0 
L 1357 0 
L 1357 3174 
L 416 3174 
L 416 0 
z
M 883 3642 
C 1203 3642 1427 3846 1427 4134 
C 1427 4422 1203 4621 883 4621 
C 570 4621 339 4422 339 4134 
C 339 3846 570 3642 883 3642 
z
" transform="scale(0.015625)"/>
      <path id="SourceSansPro-Bold-63" d="M 1798 -77 
C 2144 -77 2534 26 2848 301 
L 2477 915 
C 2310 787 2112 685 1907 685 
C 1498 685 1197 1037 1197 1587 
C 1197 2138 1485 2490 1939 2490 
C 2086 2490 2214 2432 2368 2304 
L 2810 2912 
C 2573 3110 2272 3251 1882 3251 
C 1005 3251 230 2643 230 1587 
C 230 531 915 -77 1798 -77 
z
" transform="scale(0.015625)"/>
     </defs>
     <use xlink:href="#SourceSansPro-Bold-49"/>
     <use xlink:href="#SourceSansPro-Bold-6e" transform="translate(30.099991 0)"/>
     <use xlink:href="#SourceSansPro-Bold-66" transform="translate(87.299988 0)"/>
     <use xlink:href="#SourceSansPro-Bold-6f" transform="translate(121.399979 0)"/>
     <use xlink:href="#SourceSansPro-Bold-67" transform="translate(176.899963 0)"/>
     <use xlink:href="#SourceSansPro-Bold-72" transform="translate(230.299957 0)"/>
     <use xlink:href="#SourceSansPro-Bold-61" transform="translate(270.099945 0)"/>
     <use xlink:href="#SourceSansPro-Bold-70" transform="translate(322.799942 0)"/>
     <use xlink:href="#SourceSansPro-Bold-68" transform="translate(380.09993 0)"/>
     <use xlink:href="#SourceSansPro-Bold-69" transform="translate(437.199921 0)"/>
     <use xlink:href="#SourceSansPro-Bold-63" transform="translate(464.799911 0)"/>
    </g>
    <!-- from Canva -->
    <g style="fill: #275258" transform="translate(241.58375 230.722062) scale(0.16 -0.16)">
     <defs>
      <path id="SourceSansPro-Bold-6d" d="M 416 0 
L 1357 0 
L 1357 2144 
C 1555 2349 1741 2451 1894 2451 
C 2163 2451 2285 2310 2285 1850 
L 2285 0 
L 3226 0 
L 3226 2144 
C 3430 2349 3610 2451 3770 2451 
C 4038 2451 4160 2310 4160 1850 
L 4160 0 
L 5101 0 
L 5101 1971 
C 5101 2765 4794 3251 4109 3251 
C 3686 3251 3392 3008 3110 2720 
C 2950 3059 2682 3251 2234 3251 
C 1818 3251 1536 3027 1274 2765 
L 1248 2765 
L 1184 3174 
L 416 3174 
L 416 0 
z
" transform="scale(0.015625)"/>
      <path id="SourceSansPro-Bold-20" transform="scale(0.015625)"/>
      <path id="SourceSansPro-Bold-76" d="M 1146 0 
L 2234 0 
L 3270 3174 
L 2368 3174 
L 1952 1677 
C 1869 1363 1786 1030 1709 698 
L 1683 698 
C 1600 1030 1517 1363 1434 1677 
L 1024 3174 
L 77 3174 
L 1146 0 
z
" transform="scale(0.015625)"/>
     </defs>
     <use xlink:href="#SourceSansPro-Bold-66"/>
     <use xlink:href="#SourceSansPro-Bold-72" transform="translate(34.099991 0)"/>
     <use xlink:href="#SourceSansPro-Bold-6f" transform="translate(73.899979 0)"/>
     <use xlink:href="#SourceSansPro-Bold-6d" transform="translate(129.399963 0)"/>
     <use xlink:href="#SourceSansPro-Bold-20" transform="translate(215.099945 0)"/>
     <use xlink:href="#SourceSansPro-Bold-43" transform="translate(235.09993 0)"/>
     <use xlink:href="#SourceSansPro-Bold-61" transform="translate(293.299927 0)"/>
     <use xlink:href="#SourceSansPro-Bold-6e" transform="translate(345.999924 0)"/>
     <use xlink:href="#SourceSansPro-Bold-76" transform="translate(403.199921 0)"/>
     <use xlink:href="#SourceSansPro-Bold-61" transform="translate(455.499908 0)"/>
    </g>
    <!--  -->
    <g style="fill: #275258" transform="translate(282.24 247.125062) scale(0.16 -0.16)"/>
    <!-- (Why This Matters) -->
    <g style="fill: #275258" transform="translate(216.21875 264.182062) scale(0.16 -0.16)">
     <defs>
      <path id="SourceSansPro-Bold-28" d="M 1306 -1146 
L 1894 -902 
C 1427 -70 1222 870 1222 1779 
C 1222 2688 1427 3629 1894 4461 
L 1306 4704 
C 768 3827 461 2906 461 1779 
C 461 653 768 -269 1306 -1146 
z
" transform="scale(0.015625)"/>
      <path id="SourceSansPro-Bold-57" d="M 864 0 
L 2029 0 
L 2419 1894 
C 2490 2214 2541 2554 2592 2861 
L 2618 2861 
C 2662 2554 2714 2214 2784 1894 
L 3194 0 
L 4378 0 
L 5120 4173 
L 4218 4173 
L 3930 2221 
C 3872 1792 3814 1350 3757 902 
L 3731 902 
C 3648 1350 3565 1798 3482 2221 
L 3034 4173 
L 2234 4173 
L 1786 2221 
C 1702 1786 1619 1344 1536 902 
L 1510 902 
C 1459 1344 1395 1786 1344 2221 
L 1056 4173 
L 90 4173 
L 864 0 
z
" transform="scale(0.015625)"/>
      <path id="SourceSansPro-Bold-79" d="M 768 -1242 
C 1517 -1242 1856 -832 2157 -32 
L 3258 3174 
L 2355 3174 
L 1971 1811 
C 1894 1510 1824 1210 1754 909 
L 1728 909 
C 1645 1222 1568 1523 1478 1811 
L 1024 3174 
L 77 3174 
L 1299 83 
L 1254 -83 
C 1171 -333 1011 -499 698 -499 
C 627 -499 544 -474 486 -461 
L 320 -1178 
C 448 -1216 576 -1242 768 -1242 
z
" transform="scale(0.015625)"/>
      <path id="SourceSansPro-Bold-54" d="M 1306 0 
L 2253 0 
L 2253 3379 
L 3398 3379 
L 3398 4173 
L 160 4173 
L 160 3379 
L 1306 3379 
L 1306 0 
z
" transform="scale(0.015625)"/>
      <path id="SourceSansPro-Bold-73" d="M 1350 -77 
C 2202 -77 2656 371 2656 947 
C 2656 1530 2202 1754 1798 1901 
C 1472 2022 1178 2099 1178 2304 
C 1178 2464 1293 2554 1536 2554 
C 1760 2554 1978 2451 2208 2285 
L 2630 2848 
C 2355 3053 1997 3251 1510 3251 
C 774 3251 294 2848 294 2259 
C 294 1734 749 1472 1133 1325 
C 1459 1197 1779 1101 1779 890 
C 1779 723 1658 621 1376 621 
C 1107 621 845 736 557 954 
L 134 365 
C 454 102 934 -77 1350 -77 
z
" transform="scale(0.015625)"/>
      <path id="SourceSansPro-Bold-4d" d="M 493 0 
L 1338 0 
L 1338 1530 
C 1338 1939 1261 2547 1216 2950 
L 1242 2950 
L 1574 1958 
L 2170 365 
L 2688 365 
L 3283 1958 
L 3622 2950 
L 3648 2950 
C 3603 2547 3526 1939 3526 1530 
L 3526 0 
L 4384 0 
L 4384 4173 
L 3360 4173 
L 2701 2317 
C 2618 2074 2547 1805 2464 1549 
L 2438 1549 
C 2355 1805 2278 2074 2195 2317 
L 1523 4173 
L 493 4173 
L 493 0 
z
" transform="scale(0.015625)"/>
      <path id="SourceSansPro-Bold-74" d="M 1638 -77 
C 1946 -77 2176 -13 2342 38 
L 2195 723 
C 2112 691 1997 659 1894 659 
C 1645 659 1485 806 1485 1165 
L 1485 2438 
L 2246 2438 
L 2246 3174 
L 1485 3174 
L 1485 4019 
L 704 4019 
L 595 3174 
L 109 3136 
L 109 2438 
L 544 2438 
L 544 1152 
C 544 416 851 -77 1638 -77 
z
" transform="scale(0.015625)"/>
      <path id="SourceSansPro-Bold-65" d="M 1837 -77 
C 2214 -77 2637 58 2963 282 
L 2650 851 
C 2419 710 2202 640 1965 640 
C 1542 640 1222 851 1139 1312 
L 3040 1312 
C 3059 1389 3078 1562 3078 1728 
C 3078 2592 2630 3251 1728 3251 
C 966 3251 230 2618 230 1587 
C 230 538 928 -77 1837 -77 
z
M 1133 1933 
C 1197 2336 1453 2534 1747 2534 
C 2125 2534 2278 2285 2278 1933 
L 1133 1933 
z
" transform="scale(0.015625)"/>
      <path id="SourceSansPro-Bold-29" d="M 896 -1146 
C 1434 -269 1741 653 1741 1779 
C 1741 2906 1434 3827 896 4704 
L 307 4461 
C 781 3629 986 2688 986 1779 
C 986 870 781 -70 307 -902 
L 896 -1146 
z
" transform="scale(0.015625)"/>
     </defs>
     <use xlink:href="#SourceSansPro-Bold-28"/>
     <use xlink:href="#SourceSansPro-Bold-57" transform="translate(34.399994 0)"/>
     <use xlink:href="#SourceSansPro-Bold-68" transform="translate(115.699982 0)"/>
     <use xlink:href="#SourceSansPro-Bold-79" transform="translate(172.799973 0)"/>
     <use xlink:href="#SourceSansPro-Bold-20" transform="translate(224.899963 0)"/>
     <use xlink:href="#SourceSansPro-Bold-54" transform="translate(244.899948 0)"/>
     <use xlink:href="#SourceSansPro-Bold-68" transform="translate(300.499939 0)"/>
     <use xlink:href="#SourceSansPro-Bold-69" transform="translate(357.59993 0)"/>
     <use xlink:href="#SourceSansPro-Bold-73" transform="translate(385.199921 0)"/>
     <use xlink:href="#SourceSansPro-Bold-20" transform="translate(429.499908 0)"/>
     <use xlink:href="#SourceSansPro-Bold-4d" transform="translate(449.499893 0)"/>
     <use xlink:href="#SourceSansPro-Bold-61" transform="translate(525.699875 0)"/>
     <use xlink:href="#SourceSansPro-Bold-74" transform="translate(578.399872 0)"/>
     <use xlink:href="#SourceSansPro-Bold-74" transform="translate(616.69986 0)"/>
     <use xlink:href="#SourceSansPro-Bold-65" transform="translate(654.999847 0)"/>
     <use xlink:href="#SourceSansPro-Bold-72" transform="translate(706.799835 0)"/>
     <use xlink:href="#SourceSansPro-Bold-73" transform="translate(746.599823 0)"/>
     <use xlink:href="#SourceSansPro-Bold-29" transform="translate(790.899811 0)"/>
    </g>
   </g>
   <g id="text_2">
    <!-- Why This Matters -->
    <g style="fill: #275258" transform="translate(214.159219 20.196562) scale(0.18 -0.18)">
     <use xlink:href="#SourceSansPro-Bold-57"/>
     <use xlink:href="#SourceSansPro-Bold-68" transform="translate(81.299988 0)"/>
     <use xlink:href="#SourceSansPro-Bold-79" transform="translate(138.399979 0)"/>
     <use xlink:href="#SourceSansPro-Bold-20" transform="translate(190.499969 0)"/>
     <use xlink:href="#SourceSansPro-Bold-54" transform="translate(210.499954 0)"/>
     <use xlink:href="#SourceSansPro-Bold-68" transform="translate(266.099945 0)"/>
     <use xlink:href="#SourceSansPro-Bold-69" transform="translate(323.199936 0)"/>
     <use xlink:href="#SourceSansPro-Bold-73" transform="translate(350.799927 0)"/>
     <use xlink:href="#SourceSansPro-Bold-20" transform="translate(395.099915 0)"/>
     <use xlink:href="#SourceSansPro-Bold-4d" transform="translate(415.099899 0)"/>
     <use xlink:href="#SourceSansPro-Bold-61" transform="translate(491.299881 0)"/>
     <use xlink:href="#SourceSansPro-Bold-74" transform="translate(543.999878 0)"/>
     <use xlink:href="#SourceSansPro-Bold-74" transform="translate(582.299866 0)"/>
     <use xlink:href="#SourceSansPro-Bold-65" transform="translate(620.599854 0)"/>
     <use xlink:href="#SourceSansPro-Bold-72" transform="translate(672.399841 0)"/>
     <use xlink:href="#SourceSansPro-Bold-73" transform="translate(712.199829 0)"/>
    </g>
   </g>
  </g>
 </g>
</svg>
